<svg width="224" height="299" viewBox="0 0 224 299" fill="none" xmlns="http://www.w3.org/2000/svg">
<path d="M223.65 298.813C223.65 298.914 173.579 299 111.836 299C50.0917 299 0 298.914 0 298.813C0 298.712 50.0628 298.625 111.836 298.625C173.608 298.625 223.65 298.719 223.65 298.813Z" fill="#263238"/>
<path d="M174.863 210.541C163.723 202.761 161.199 188.318 161.639 175.332C161.711 173.169 161.473 170.876 162.504 168.979C163.535 167.083 165.943 165.778 167.883 166.686C169.491 167.443 170.19 169.318 171.092 170.868C172.294 172.933 174.057 174.616 176.175 175.721C177.552 176.442 179.261 176.875 180.624 176.125C182.499 175.094 182.715 172.52 182.701 170.357C182.701 166.333 182.677 162.314 182.629 158.301C182.499 156.145 182.718 153.983 183.278 151.898C183.948 149.85 185.441 147.953 187.481 147.377C189.522 146.8 192.067 147.989 192.529 150.095C192.608 150.987 192.63 151.883 192.594 152.777C192.651 153.679 193.07 154.666 193.913 154.94C194.757 155.214 195.636 154.587 196.285 153.953C198.506 151.789 200.02 148.97 201.427 146.187C202.833 143.404 204.21 140.541 206.229 138.169C208.248 135.796 211.038 133.914 214.16 133.734C217.283 133.554 220.534 135.472 221.313 138.5C222.092 141.529 220.325 144.622 218.429 147.081C215.567 150.731 212.194 153.948 208.414 156.635C207.676 157.038 207.087 157.667 206.733 158.43C206.265 159.872 207.628 161.315 209.048 161.769C210.656 162.302 212.401 162.137 214.095 162.338C215.79 162.54 217.593 163.276 218.234 164.862C219.114 167.069 217.268 169.376 215.458 170.89C211.824 173.919 207.698 176.301 203.258 177.935C201.672 178.512 200.006 179.024 198.723 180.134C197.439 181.244 196.675 183.184 197.446 184.706C198.218 186.227 200.201 186.71 201.866 186.4C203.532 186.09 205.01 185.196 206.596 184.597C209.56 183.48 213.382 183.682 215.249 186.241C215.828 187.123 216.194 188.127 216.319 189.174C216.444 190.221 216.325 191.283 215.97 192.277C215.249 194.253 214.138 196.065 212.704 197.605C207.981 203.248 201.845 207.535 194.923 210.029C188.051 212.408 181.684 213.057 174.856 210.555" fill="#4CAF4F"/>
<path d="M218.141 135.515C218.141 135.515 218.076 135.587 217.932 135.717L217.29 136.287C216.727 136.791 215.898 137.527 214.853 138.5C211.888 141.253 209.136 144.225 206.618 147.391C205.01 149.388 203.345 151.652 201.571 154.111C199.797 156.57 197.966 159.223 196.148 162.043C194.211 165.016 192.437 168.092 190.834 171.258C189.998 172.909 189.262 174.632 188.505 176.392L186.27 181.764C183.324 188.53 180.757 195.456 178.584 202.508C176.832 208.279 175.625 214.2 174.978 220.196C174.559 224.242 174.491 228.317 174.776 232.374C174.892 233.817 175 234.92 175.101 235.67C175.144 236.03 175.173 236.319 175.202 236.528V236.823C175.171 236.73 175.149 236.633 175.137 236.535C175.101 236.326 175.058 236.045 175 235.684C174.87 234.963 174.733 233.824 174.603 232.382C174.255 228.316 174.28 224.228 174.675 220.167C175.282 214.146 176.463 208.197 178.201 202.4C180.357 195.328 182.916 188.385 185.866 181.605L188.159 176.255C188.916 174.503 189.659 172.765 190.503 171.106C192.117 167.931 193.905 164.847 195.86 161.87C197.706 158.985 199.566 156.375 201.318 153.938C203.071 151.501 204.765 149.222 206.366 147.232C208.909 144.074 211.699 141.123 214.708 138.407C215.776 137.448 216.626 136.727 217.203 136.243L217.874 135.703C217.956 135.631 218.045 135.568 218.141 135.515Z" fill="#263238"/>
<path d="M190.596 171.092C190.495 170.795 190.424 170.488 190.387 170.176C190.272 169.578 190.142 168.734 189.991 167.638C189.681 165.475 189.363 162.511 189.024 159.231C188.685 155.95 188.303 152.979 187.986 150.838C187.82 149.77 187.676 148.912 187.575 148.314C187.496 148.008 187.455 147.693 187.452 147.376C187.577 147.665 187.666 147.968 187.719 148.278C187.878 148.869 188.058 149.72 188.26 150.794C188.671 152.957 189.075 155.899 189.414 159.187C189.753 162.475 190.041 165.36 190.265 167.602C190.373 168.612 190.467 169.47 190.539 170.155C190.595 170.464 190.614 170.778 190.596 171.092Z" fill="#263238"/>
<path d="M218.342 165.915C217.992 165.991 217.634 166.035 217.275 166.045C216.554 166.11 215.53 166.196 214.261 166.34C211.723 166.614 208.233 167.119 204.404 167.84C200.576 168.561 197.136 169.376 194.663 170.003C193.43 170.321 192.435 170.609 191.779 170.804C191.428 170.928 191.066 171.015 190.697 171.063C191.03 170.896 191.378 170.758 191.736 170.652C192.413 170.414 193.394 170.083 194.62 169.729C197.079 169.008 200.518 168.15 204.361 167.415C207.617 166.792 210.902 166.335 214.204 166.045C215.48 165.936 216.511 165.893 217.232 165.879C217.602 165.854 217.974 165.866 218.342 165.915Z" fill="#263238"/>
<path d="M178.555 201.896C178.478 201.791 178.415 201.677 178.367 201.557L177.891 200.554C177.48 199.682 176.925 198.391 176.262 196.812C174.92 193.639 173.212 189.198 171.394 184.266C169.577 179.334 167.905 174.892 166.636 171.683C166.015 170.126 165.503 168.85 165.121 167.898L164.718 166.867C164.662 166.748 164.623 166.622 164.602 166.492C164.679 166.596 164.742 166.71 164.79 166.831L165.266 167.833C165.669 168.705 166.232 169.996 166.895 171.575C168.236 174.748 169.945 179.19 171.762 184.122C173.579 189.054 175.252 193.495 176.521 196.704C177.141 198.261 177.653 199.538 178.028 200.489C178.194 200.9 178.331 201.211 178.439 201.521C178.495 201.639 178.534 201.766 178.555 201.896Z" fill="#263238"/>
<path d="M215.386 190.02C215.271 190.086 215.147 190.137 215.018 190.171L213.951 190.532L210.007 191.808C206.676 192.889 202.075 194.433 197.028 196.134C191.981 197.836 187.359 199.35 184.006 200.36C182.333 200.872 180.97 201.261 180.026 201.52L178.937 201.802C178.81 201.842 178.68 201.868 178.547 201.881C178.663 201.815 178.786 201.764 178.915 201.73L179.982 201.369L183.926 200.093C187.258 199.011 191.858 197.468 196.905 195.766C201.953 194.065 206.568 192.551 209.92 191.541C211.601 191.029 212.956 190.64 213.908 190.38L214.997 190.099C215.123 190.059 215.254 190.032 215.386 190.02Z" fill="#263238"/>
<path d="M200.359 15.1137L196.646 16.4404L195.052 11.5877C192.125 2.63944 182.794 -2.11231 174.221 0.908909C165.648 3.93013 161.083 13.7437 164.011 22.692L165.604 27.5447L161.877 28.8786C160.455 29.43 159.301 30.5079 158.653 31.8884C158.006 33.2689 157.916 34.8457 158.401 36.2911L168.734 67.8661C168.948 68.5816 169.304 69.2467 169.781 69.8219C170.258 70.397 170.845 70.8705 171.508 71.2142C172.171 71.5579 172.897 71.7648 173.642 71.8226C174.386 71.8804 175.135 71.7879 175.843 71.5506L214.326 57.7857C215.766 57.2353 216.937 56.1478 217.592 54.7519C218.247 53.3561 218.335 51.7606 217.838 50.3012L207.498 18.7262C207.278 18.0127 206.916 17.3508 206.435 16.78C205.953 16.2093 205.362 15.7414 204.696 15.4042C204.029 15.0671 203.302 14.8676 202.557 14.8177C201.812 14.7678 201.065 14.8684 200.359 15.1137ZM171.027 20.1611C170.237 17.8344 170.379 15.2925 171.422 13.068C172.465 10.8434 174.329 9.10883 176.622 8.22762C177.755 7.84014 178.954 7.68476 180.147 7.77075C181.341 7.85673 182.506 8.18232 183.571 8.72808C184.636 9.27384 185.581 10.0286 186.348 10.9473C187.115 11.866 187.689 12.9299 188.036 14.0754L189.623 18.9281L172.613 25.0138L171.027 20.1611ZM192.658 48.1813L195.297 56.2427C195.346 56.4043 195.33 56.5784 195.254 56.7288C195.177 56.8792 195.046 56.9943 194.886 57.0502L191.187 58.3698C191.04 58.4106 190.883 58.3928 190.749 58.3203C190.614 58.2477 190.513 58.1259 190.466 57.9804L187.806 49.9551C186.339 49.8751 184.931 49.3489 183.771 48.4468C182.611 47.5448 181.755 46.31 181.316 44.9077C180.689 43.0538 180.804 41.0292 181.635 39.2577C182.467 37.4863 183.952 36.1054 185.78 35.4042C186.682 35.0959 187.637 34.9725 188.588 35.0412C189.538 35.1098 190.466 35.3692 191.314 35.8039C192.163 36.2386 192.915 36.8396 193.526 37.5712C194.137 38.3028 194.595 39.1499 194.872 40.0622C195.336 41.4867 195.374 43.0155 194.982 44.4615C194.591 45.9074 193.785 47.2077 192.666 48.2029L192.658 48.1813Z" fill="#4CAF4F"/>
<path d="M196.48 16.3539C196.48 16.4549 189.594 19.0434 181.028 22.1224C172.462 25.2013 165.475 27.6745 165.439 27.6024C165.403 27.5303 172.325 24.92 180.898 21.8339C189.471 18.7478 196.444 16.2602 196.48 16.3539Z" fill="#263238"/>
<path d="M204.657 17.6806C204.689 17.7431 204.715 17.8083 204.736 17.8752C204.794 18.0195 204.859 18.2069 204.945 18.4377C205.133 18.964 205.392 19.6923 205.717 20.6008L208.486 28.6622C209.639 32.08 211.016 36.1323 212.545 40.6317C213.266 42.8886 214.117 45.2393 214.91 47.7125C215.335 48.987 215.518 50.3294 215.451 51.6711C215.39 52.3688 215.191 53.0476 214.867 53.6684C214.52 54.2871 214.058 54.8331 213.504 55.2764C212.39 56.0895 211.154 56.72 209.841 57.1439L206.128 58.4778L199.097 60.9943L187.193 65.2341L179.153 68.0607L176.99 68.7817L176.413 68.9692C176.351 68.9966 176.286 69.0137 176.218 69.0197C176.218 69.0197 176.276 69.0197 176.399 68.9331L176.961 68.7096L179.124 67.8948L187.121 64.9529L199.004 60.6266L206.02 58.0885L209.733 56.7473C211.008 56.3406 212.209 55.7294 213.288 54.9375C213.803 54.5261 214.234 54.0194 214.557 53.4449C214.862 52.8708 215.046 52.24 215.098 51.5918C215.164 50.299 214.988 49.0053 214.578 47.7774C213.8 45.3258 212.978 42.9535 212.235 40.6966C210.735 36.19 209.351 32.1233 208.255 28.7055C207.159 25.2877 206.236 22.5405 205.601 20.608C205.298 19.6635 205.068 18.928 204.88 18.3944L204.707 17.8176C204.685 17.7739 204.668 17.7279 204.657 17.6806Z" fill="#263238"/>
<path d="M184.352 7.73737C184.352 7.73737 183.97 7.5499 183.263 7.26147C182.256 6.87446 181.191 6.65995 180.112 6.62695C178.514 6.57213 176.923 6.87257 175.454 7.50663C173.668 8.29617 172.141 9.57322 171.049 11.1912C169.948 12.8046 169.358 14.7112 169.354 16.664C169.369 18.2646 169.612 19.8548 170.075 21.3869C170.45 22.6993 170.839 23.7448 171.099 24.4731C171.252 24.843 171.377 25.2238 171.474 25.6123C171.269 25.2665 171.098 24.9019 170.962 24.5235C170.666 23.8025 170.241 22.7786 169.823 21.459C169.309 19.9108 169.03 18.2947 168.993 16.664C168.974 14.6374 169.578 12.6539 170.724 10.9821C171.855 9.30502 173.444 7.98847 175.303 7.18937C176.817 6.55184 178.458 6.27061 180.098 6.36737C181.2 6.42352 182.282 6.68008 183.292 7.12447C183.562 7.24904 183.822 7.39366 184.071 7.55711C184.173 7.60217 184.268 7.66299 184.352 7.73737Z" fill="#263238"/>
<path d="M184.684 35.9521C184.799 35.8824 184.919 35.8221 185.044 35.7719C185.405 35.609 185.779 35.4763 186.162 35.3753C186.77 35.1959 187.396 35.0894 188.029 35.058C188.89 35.0117 189.751 35.1418 190.56 35.4402C192.406 36.0891 194.101 37.9711 194.937 40.4876C195.338 41.838 195.338 43.2759 194.937 44.6264C194.492 46.0921 193.695 47.4265 192.615 48.5129L192.658 48.3182C193.617 50.9501 194.663 53.8054 195.745 56.7834L195.81 56.9637L195.629 57.0285L193.978 57.5765L190.373 58.7807L190.192 58.8384L190.135 58.6581C189.147 55.673 188.065 52.8897 187.251 50.1569L187.409 50.2795C186 50.1624 184.656 49.6333 183.544 48.758C182.539 47.9837 181.715 46.9995 181.129 45.8738C180.6 44.8756 180.337 43.7583 180.365 42.6291C180.398 41.475 180.686 40.3426 181.208 39.3129C181.731 38.2832 182.474 37.3818 183.386 36.6732C183.761 36.3686 184.182 36.1252 184.633 35.9521C184.226 36.1938 183.831 36.4561 183.451 36.7381C182.449 37.5852 181.682 38.6751 181.223 39.9035C180.828 40.8298 180.644 41.8319 180.682 42.838C180.721 43.8441 180.982 44.8291 181.446 45.7224C182.022 46.8053 182.827 47.75 183.804 48.4913C184.864 49.3232 186.145 49.8247 187.489 49.9334H187.611L187.647 50.0415C188.44 52.7239 189.529 55.5288 190.531 58.5283L190.293 58.413L193.899 57.2088L195.543 56.6536L195.427 56.8988C194.353 53.9208 193.315 51.0582 192.363 48.4264V48.3182L192.449 48.2317C193.498 47.1904 194.279 45.9116 194.728 44.5038C195.11 43.212 195.11 41.8371 194.728 40.5452C193.942 38.1225 192.32 36.2838 190.56 35.6348C189.781 35.3345 188.95 35.1948 188.116 35.2238C187.493 35.2381 186.874 35.3228 186.27 35.4762C185.196 35.743 184.691 35.9882 184.684 35.9521Z" fill="#263238"/>
<path d="M162.396 244.149L90.3698 243.818C86.2103 243.795 82.23 242.122 79.303 239.167C76.376 236.211 74.7417 232.215 74.7589 228.055L75.5233 47.4961C75.5318 45.4353 75.9463 43.3965 76.7432 41.496C77.5401 39.5956 78.7038 37.8709 80.1676 36.4204C81.6315 34.9699 83.3669 33.8222 85.2745 33.0428C87.1822 32.2634 89.2248 31.8676 91.2855 31.878L163.304 32.2097C167.464 32.2307 171.445 33.9017 174.373 36.8557C177.302 39.8098 178.938 43.8053 178.923 47.9647L178.158 228.517C178.15 230.578 177.735 232.618 176.939 234.519C176.142 236.42 174.978 238.146 173.515 239.598C172.051 241.049 170.316 242.198 168.408 242.979C166.5 243.76 164.457 244.158 162.396 244.149Z" fill="#455A64"/>
<path d="M163.196 38.4181H149.237C148.781 38.4265 148.332 38.5246 147.914 38.7068C147.497 38.8889 147.119 39.1515 146.803 39.4796C146.487 39.8077 146.239 40.1949 146.072 40.619C145.906 41.043 145.825 41.4958 145.833 41.9512V44.4821C145.842 44.9373 145.761 45.3896 145.594 45.8133C145.428 46.237 145.179 46.6237 144.863 46.9512C144.547 47.2787 144.169 47.5407 143.752 47.722C143.334 47.9034 142.885 48.0006 142.43 48.0081L115.217 47.8855C114.297 47.861 113.424 47.4721 112.79 46.8042C112.156 46.1363 111.812 45.2441 111.836 44.3235V41.7926C111.859 40.8732 111.517 39.9821 110.884 39.3144C110.252 38.6467 109.38 38.257 108.461 38.2306H103.551L91.3289 38.1729C88.4219 38.1556 85.6265 39.2909 83.5547 41.3302C81.4829 43.3695 80.3037 46.1467 80.2751 49.0536L79.5541 225.294C79.5474 226.736 79.8249 228.165 80.3706 229.5C80.9164 230.835 81.7197 232.049 82.7348 233.074C83.7499 234.098 84.9568 234.913 86.2866 235.471C87.6164 236.029 89.0431 236.319 90.4853 236.326L162.36 236.658C163.803 236.664 165.233 236.387 166.569 235.841C167.905 235.294 169.12 234.491 170.145 233.475C171.17 232.459 171.985 231.251 172.544 229.921C173.102 228.59 173.393 227.162 173.399 225.719L174.12 49.4791C174.138 46.5639 172.997 43.7613 170.948 41.6871C168.9 39.613 166.112 38.4371 163.196 38.4181Z" fill="white"/>
<path d="M153.527 213.144L100.082 212.913C99.5271 212.913 99.08 212.308 99.0872 211.572L99.1449 197.591C99.1449 196.87 99.5992 196.25 100.154 196.25L153.599 196.495C153.907 196.548 154.182 196.718 154.367 196.969C154.553 197.22 154.634 197.534 154.594 197.843L154.544 211.81C154.544 212.553 154.082 213.151 153.527 213.144Z" fill="#4CAF4F"/>
<path d="M116.331 206.452C116.036 206.452 115.753 206.404 115.481 206.31C115.212 206.211 115.004 206.087 114.856 205.935L115.021 205.612C115.161 205.748 115.348 205.863 115.583 205.958C115.821 206.049 116.07 206.094 116.331 206.094C116.581 206.094 116.783 206.064 116.938 206.003C117.097 205.939 117.213 205.854 117.284 205.748C117.36 205.642 117.398 205.525 117.398 205.396C117.398 205.241 117.353 205.116 117.262 205.022C117.175 204.927 117.059 204.854 116.916 204.801C116.772 204.744 116.613 204.695 116.439 204.653C116.265 204.612 116.091 204.568 115.917 204.523C115.743 204.474 115.583 204.409 115.435 204.33C115.291 204.25 115.174 204.146 115.083 204.018C114.996 203.885 114.953 203.713 114.953 203.502C114.953 203.305 115.004 203.125 115.106 202.963C115.212 202.796 115.373 202.664 115.588 202.566C115.804 202.463 116.08 202.412 116.417 202.412C116.64 202.412 116.861 202.445 117.08 202.509C117.3 202.569 117.489 202.654 117.648 202.764L117.506 203.099C117.336 202.985 117.154 202.902 116.961 202.849C116.772 202.796 116.589 202.77 116.411 202.77C116.173 202.77 115.976 202.802 115.821 202.866C115.666 202.931 115.55 203.018 115.475 203.127C115.403 203.233 115.367 203.354 115.367 203.49C115.367 203.645 115.411 203.77 115.498 203.865C115.588 203.959 115.706 204.033 115.849 204.086C115.997 204.139 116.157 204.186 116.331 204.228C116.505 204.269 116.677 204.315 116.848 204.364C117.022 204.413 117.18 204.477 117.324 204.557C117.472 204.632 117.589 204.735 117.676 204.863C117.767 204.992 117.812 205.16 117.812 205.368C117.812 205.561 117.759 205.741 117.653 205.907C117.547 206.07 117.385 206.202 117.165 206.304C116.95 206.402 116.672 206.452 116.331 206.452ZM118.727 206.417V202.446H119.147V206.417H118.727ZM120.439 206.417V202.446H120.785L123.525 205.896H123.343V202.446H123.757V206.417H123.411L120.677 202.968H120.858V206.417H120.439ZM126.795 206.452C126.492 206.452 126.213 206.402 125.955 206.304C125.702 206.202 125.481 206.06 125.292 205.879C125.106 205.697 124.961 205.483 124.855 205.238C124.753 204.992 124.702 204.723 124.702 204.432C124.702 204.141 124.753 203.872 124.855 203.626C124.961 203.381 125.108 203.167 125.297 202.985C125.486 202.804 125.708 202.664 125.961 202.566C126.218 202.463 126.498 202.412 126.801 202.412C127.103 202.412 127.379 202.46 127.629 202.554C127.882 202.649 128.098 202.792 128.276 202.985L128.015 203.252C127.848 203.086 127.665 202.966 127.464 202.895C127.264 202.823 127.048 202.787 126.818 202.787C126.572 202.787 126.345 202.828 126.137 202.912C125.933 202.991 125.753 203.106 125.598 203.258C125.447 203.405 125.328 203.579 125.241 203.78C125.157 203.976 125.116 204.194 125.116 204.432C125.116 204.666 125.157 204.884 125.241 205.084C125.328 205.285 125.447 205.461 125.598 205.612C125.753 205.759 125.933 205.875 126.137 205.958C126.345 206.037 126.57 206.077 126.812 206.077C127.039 206.077 127.253 206.043 127.453 205.975C127.657 205.907 127.844 205.792 128.015 205.629L128.253 205.947C128.064 206.113 127.843 206.24 127.589 206.327C127.336 206.41 127.071 206.452 126.795 206.452ZM127.85 205.896V204.432H128.253V205.947L127.85 205.896ZM132.525 206.452C132.019 206.452 131.62 206.306 131.328 206.015C131.037 205.723 130.892 205.292 130.892 204.721V202.446H131.311V204.704C131.311 205.173 131.417 205.519 131.629 205.742C131.841 205.966 132.14 206.077 132.525 206.077C132.915 206.077 133.216 205.966 133.427 205.742C133.639 205.519 133.745 205.173 133.745 204.704V202.446H134.154V204.721C134.154 205.292 134.008 205.723 133.717 206.015C133.429 206.306 133.032 206.452 132.525 206.452ZM135.419 206.417V202.446H136.905C137.242 202.446 137.531 202.501 137.773 202.611C138.015 202.717 138.2 202.872 138.329 203.076C138.461 203.277 138.527 203.521 138.527 203.808C138.527 204.088 138.461 204.33 138.329 204.534C138.2 204.735 138.015 204.89 137.773 204.999C137.531 205.109 137.242 205.164 136.905 205.164H135.651L135.838 204.965V206.417H135.419ZM135.838 204.999L135.651 204.795H136.894C137.291 204.795 137.591 204.71 137.796 204.54C138.004 204.366 138.108 204.122 138.108 203.808C138.108 203.49 138.004 203.244 137.796 203.07C137.591 202.896 137.291 202.81 136.894 202.81H135.651L135.838 202.611V204.999Z" fill="#E8E8E3"/>
<path d="M110.742 90.2258L92.1971 90.1416L92.1817 93.545L110.727 93.6291L110.742 90.2258Z" fill="#4CAF4F"/>
<path opacity="0.1" d="M110.742 90.2258L92.1971 90.1416L92.1817 93.545L110.727 93.6291L110.742 90.2258Z" fill="black"/>
<path d="M165.107 111.122C165.253 111.107 165.396 111.073 165.533 111.021C165.732 110.943 165.906 110.81 166.033 110.638C166.161 110.466 166.237 110.261 166.254 110.048C166.254 108.901 166.254 107.228 166.254 105.08C166.254 104.005 166.254 102.801 166.254 101.474C166.254 101.15 166.254 100.811 166.254 100.472C166.301 100.143 166.229 99.8083 166.052 99.5274C165.952 99.3927 165.823 99.2829 165.674 99.2066C165.526 99.1303 165.361 99.0895 165.194 99.0876H164.069H153.65L93.3405 98.8641C93.1862 98.8614 93.0335 98.8961 92.8954 98.9652C92.7573 99.0342 92.6379 99.1356 92.5474 99.2606C92.3733 99.5427 92.3067 99.8781 92.3599 100.205C92.3599 100.926 92.3599 101.647 92.3599 102.368C92.3599 103.81 92.3599 105.253 92.3599 106.695C92.3599 107.416 92.3599 108.137 92.3599 108.858C92.33 109.194 92.33 109.532 92.3599 109.867C92.3978 110.011 92.4682 110.145 92.5657 110.257C92.6632 110.37 92.7852 110.458 92.9223 110.516C93.0644 110.573 93.2165 110.6 93.3694 110.596H97.0396L113.054 110.682L140.166 110.848L158.445 110.992L163.413 111.05H164.703C164.999 111.05 165.143 111.05 165.143 111.05H164.703H163.413H158.445H140.166L113.054 110.963L97.0396 110.898H93.3694C93.1674 110.907 92.966 110.872 92.7781 110.798C92.5883 110.716 92.4194 110.593 92.2845 110.437C92.1495 110.281 92.052 110.096 91.9994 109.896C91.9576 109.707 91.9431 109.513 91.9561 109.319V108.786C91.9561 108.065 91.9561 107.344 91.9561 106.623C91.9561 105.18 91.9561 103.738 91.9561 102.296C91.9561 101.575 91.9561 100.854 91.9561 100.133C91.9424 99.9411 91.9424 99.7483 91.9561 99.5563C91.9831 99.3442 92.0652 99.1428 92.1941 98.9722C92.3185 98.7982 92.4831 98.6568 92.6739 98.5601C92.8648 98.4634 93.0762 98.4143 93.2901 98.417L153.599 98.7487L164.018 98.8208H165.143C165.341 98.8209 165.537 98.8689 165.712 98.9605C165.888 99.0521 166.039 99.1848 166.153 99.3472C166.356 99.6607 166.438 100.037 166.383 100.407C166.383 100.746 166.383 101.085 166.383 101.409C166.383 102.722 166.383 103.926 166.383 105.015C166.383 107.178 166.333 108.836 166.318 109.99C166.301 110.212 166.22 110.424 166.086 110.601C165.952 110.779 165.77 110.915 165.561 110.992C165.425 111.077 165.268 111.122 165.107 111.122Z" fill="#E0E0E0"/>
<path d="M131.686 102.484H97.7677V105.663H131.686V102.484Z" fill="#4CAF4F"/>
<path opacity="0.2" d="M131.686 102.484H97.7677V105.663H131.686V102.484Z" fill="white"/>
<path d="M110.616 121.274L92.0706 121.189L92.0552 124.593L110.6 124.677L110.616 121.274Z" fill="#4CAF4F"/>
<path opacity="0.1" d="M110.616 121.274L92.0706 121.189L92.0552 124.593L110.6 124.677L110.616 121.274Z" fill="black"/>
<path d="M164.638 142.171C164.784 142.153 164.929 142.126 165.071 142.091C165.273 142.027 165.458 141.921 165.615 141.779C165.771 141.637 165.896 141.463 165.98 141.269C166.093 140.978 166.138 140.665 166.109 140.354C166.109 140.007 166.109 139.633 166.109 139.214C166.109 138.378 166.109 137.426 166.109 136.33V131.751C166.144 131.42 166.071 131.086 165.9 130.8C165.722 130.506 165.443 130.288 165.114 130.187C164.755 130.123 164.389 130.103 164.026 130.129H153.65L93.5497 129.905C93.2264 129.906 92.9144 130.024 92.6717 130.238C92.429 130.451 92.2721 130.746 92.2301 131.066C92.2301 131.751 92.2301 132.508 92.2301 133.23C92.2301 134.672 92.2301 136.114 92.2301 137.556C92.2301 138.277 92.2301 138.998 92.2301 139.719C92.2033 140.056 92.2178 140.395 92.2734 140.729C92.3634 141.021 92.5487 141.275 92.7998 141.45C93.0661 141.619 93.379 141.699 93.6939 141.68H94.6962H96.78L112.737 141.76L139.755 141.925L157.969 142.07L162.922 142.127H157.969H139.755L112.723 142.099L96.7656 142.041H93.629C93.239 142.064 92.852 141.96 92.5258 141.745C92.1977 141.518 91.9582 141.184 91.848 140.801C91.7834 140.434 91.764 140.061 91.7903 139.69C91.7903 138.969 91.7903 138.248 91.7903 137.527C91.7903 136.085 91.7903 134.643 91.7903 133.201C91.7903 132.48 91.7903 131.759 91.7903 131.038C91.8429 130.625 92.044 130.246 92.3559 129.971C92.6678 129.697 93.0691 129.545 93.4848 129.545L153.585 129.877L163.961 129.956C164.347 129.932 164.735 129.959 165.114 130.035C165.489 130.158 165.805 130.415 166.001 130.756C166.188 131.074 166.269 131.443 166.232 131.809C166.232 132.148 166.232 132.48 166.232 132.811C166.232 134.116 166.232 135.313 166.232 136.417C166.232 137.52 166.232 138.45 166.232 139.301C166.232 139.712 166.232 140.094 166.232 140.447C166.258 140.77 166.206 141.094 166.081 141.392C165.987 141.591 165.852 141.767 165.684 141.909C165.516 142.051 165.319 142.155 165.107 142.214C164.95 142.227 164.791 142.212 164.638 142.171Z" fill="#E0E0E0"/>
<path d="M110.476 153.67L91.9309 153.586L91.9154 156.989L110.461 157.073L110.476 153.67Z" fill="#4CAF4F"/>
<path opacity="0.1" d="M110.476 153.67L91.9309 153.586L91.9154 156.989L110.461 157.073L110.476 153.67Z" fill="black"/>
<path d="M164.494 174.553C164.64 174.536 164.785 174.509 164.927 174.474C165.127 174.41 165.312 174.304 165.469 174.164C165.625 174.023 165.75 173.851 165.835 173.659C165.948 173.368 165.993 173.054 165.965 172.743C165.965 172.39 165.965 172.022 165.965 171.597C165.965 170.767 165.965 169.808 165.965 168.712V164.134C166 163.802 165.926 163.469 165.756 163.182C165.574 162.893 165.296 162.679 164.97 162.576C164.611 162.51 164.246 162.488 163.881 162.511H153.505L93.4055 162.288C93.0822 162.289 92.7702 162.407 92.5275 162.62C92.2848 162.834 92.1279 163.128 92.086 163.449C92.086 164.17 92.086 164.891 92.086 165.612C92.086 167.054 92.086 168.496 92.086 169.938C92.086 170.659 92.086 171.38 92.086 172.101C92.0591 172.436 92.0736 172.773 92.1292 173.104C92.2156 173.398 92.4017 173.653 92.6556 173.825C92.9203 173.998 93.2344 174.079 93.5497 174.055H96.6863L112.643 174.142L139.661 174.308L157.875 174.452L162.829 174.51H157.875H139.661L112.643 174.43L96.6863 174.366H93.5497C93.1594 174.392 92.7714 174.288 92.4465 174.07C92.1184 173.843 91.8789 173.509 91.7687 173.125C91.7041 172.759 91.6847 172.386 91.711 172.015C91.711 171.294 91.711 170.573 91.711 169.852C91.711 168.41 91.711 166.968 91.711 165.525C91.711 164.804 91.711 164.083 91.711 163.326C91.762 162.915 91.9616 162.536 92.2723 162.261C92.583 161.986 92.9834 161.834 93.3983 161.834L153.498 162.165L163.874 162.245C164.261 162.221 164.648 162.248 165.028 162.324C165.402 162.446 165.718 162.703 165.915 163.045C166.101 163.363 166.182 163.731 166.146 164.098C166.146 164.437 166.146 164.776 166.146 165.1C166.146 166.405 166.146 167.602 166.146 168.705C166.146 169.808 166.146 170.739 166.146 171.589C166.146 172 166.146 172.383 166.146 172.736C166.173 173.058 166.121 173.383 165.994 173.681C165.9 173.88 165.765 174.056 165.597 174.198C165.429 174.34 165.232 174.444 165.021 174.503C164.852 174.56 164.671 174.578 164.494 174.553Z" fill="#E0E0E0"/>
<path d="M130.962 134.431L97.0441 134.277L97.0297 137.457L130.948 137.611L130.962 134.431Z" fill="#4CAF4F"/>
<path opacity="0.2" d="M130.962 134.431L97.0441 134.277L97.0297 137.457L130.948 137.611L130.962 134.431Z" fill="white"/>
<path d="M100.111 168.669C100.09 168.959 99.984 169.237 99.8065 169.467C99.629 169.698 99.3878 169.871 99.1128 169.965C98.8378 170.06 98.541 170.072 98.2594 169.999C97.9778 169.927 97.7236 169.773 97.5285 169.557C97.3333 169.342 97.2058 169.074 97.1617 168.786C97.1175 168.499 97.1587 168.205 97.2802 167.94C97.4017 167.676 97.598 167.453 97.8449 167.3C98.0918 167.146 98.3784 167.068 98.6691 167.076C99.0708 167.098 99.4475 167.278 99.7175 167.576C99.9875 167.875 100.129 168.267 100.111 168.669Z" fill="#4CAF4F"/>
<path d="M104.704 168.691C104.719 168.894 104.691 169.098 104.623 169.29C104.555 169.483 104.448 169.659 104.309 169.808C104.17 169.957 104.002 170.075 103.815 170.157C103.628 170.238 103.426 170.28 103.223 170.28C103.019 170.28 102.817 170.238 102.63 170.157C102.443 170.075 102.275 169.957 102.136 169.808C101.997 169.659 101.891 169.483 101.822 169.29C101.754 169.098 101.727 168.894 101.741 168.691C101.727 168.488 101.754 168.284 101.822 168.092C101.891 167.9 101.997 167.724 102.136 167.575C102.275 167.426 102.443 167.307 102.63 167.225C102.817 167.144 103.019 167.102 103.223 167.102C103.426 167.102 103.628 167.144 103.815 167.225C104.002 167.307 104.17 167.426 104.309 167.575C104.448 167.724 104.555 167.9 104.623 168.092C104.691 168.284 104.719 168.488 104.704 168.691Z" fill="#4CAF4F"/>
<path d="M109.305 168.712C109.283 169.003 109.177 169.28 109 169.51C108.822 169.741 108.581 169.914 108.306 170.008C108.031 170.103 107.734 170.115 107.453 170.042C107.171 169.97 106.917 169.816 106.722 169.6C106.527 169.385 106.399 169.117 106.355 168.829C106.311 168.542 106.352 168.248 106.474 167.983C106.595 167.719 106.791 167.496 107.038 167.343C107.285 167.189 107.572 167.111 107.862 167.119C108.264 167.143 108.639 167.324 108.909 167.621C109.178 167.919 109.32 168.311 109.305 168.712Z" fill="#4CAF4F"/>
<path d="M113.898 168.734C113.877 169.024 113.771 169.302 113.593 169.532C113.416 169.762 113.174 169.936 112.899 170.03C112.624 170.125 112.328 170.137 112.046 170.064C111.764 169.991 111.51 169.838 111.315 169.622C111.12 169.407 110.992 169.138 110.948 168.851C110.904 168.564 110.945 168.269 111.067 168.005C111.188 167.741 111.385 167.518 111.632 167.365C111.878 167.211 112.165 167.133 112.456 167.141C112.857 167.165 113.232 167.345 113.502 167.643C113.772 167.941 113.914 168.333 113.898 168.734Z" fill="#4CAF4F"/>
<path d="M118.491 168.749C118.471 169.039 118.366 169.317 118.189 169.549C118.013 169.78 117.772 169.954 117.497 170.05C117.222 170.146 116.925 170.158 116.643 170.087C116.361 170.015 116.106 169.862 115.91 169.646C115.714 169.431 115.586 169.163 115.541 168.875C115.497 168.587 115.537 168.293 115.659 168.028C115.78 167.763 115.977 167.54 116.224 167.386C116.471 167.232 116.758 167.154 117.049 167.162C117.449 167.186 117.823 167.366 118.092 167.662C118.362 167.959 118.505 168.348 118.491 168.749Z" fill="#4CAF4F"/>
<path d="M123.091 168.77C123.072 169.059 122.968 169.336 122.793 169.567C122.618 169.798 122.379 169.972 122.106 170.069C121.833 170.166 121.538 170.181 121.257 170.112C120.975 170.043 120.72 169.894 120.523 169.682C120.325 169.47 120.194 169.205 120.145 168.92C120.096 168.634 120.132 168.341 120.248 168.075C120.364 167.81 120.555 167.584 120.797 167.426C121.04 167.267 121.324 167.183 121.613 167.184C122.019 167.199 122.403 167.374 122.68 167.672C122.957 167.969 123.105 168.364 123.091 168.77Z" fill="#4CAF4F"/>
<path d="M127.684 168.792C127.699 168.995 127.671 169.199 127.603 169.391C127.535 169.583 127.428 169.759 127.289 169.908C127.15 170.057 126.982 170.176 126.795 170.257C126.608 170.339 126.406 170.381 126.203 170.381C125.999 170.381 125.797 170.339 125.61 170.257C125.423 170.176 125.255 170.057 125.116 169.908C124.977 169.759 124.871 169.583 124.803 169.391C124.734 169.199 124.707 168.995 124.721 168.792C124.707 168.589 124.734 168.385 124.803 168.192C124.871 168 124.977 167.824 125.116 167.675C125.255 167.526 125.423 167.408 125.61 167.326C125.797 167.245 125.999 167.203 126.203 167.203C126.406 167.203 126.608 167.245 126.795 167.326C126.982 167.408 127.15 167.526 127.289 167.675C127.428 167.824 127.535 168 127.603 168.192C127.671 168.385 127.699 168.589 127.684 168.792Z" fill="#4CAF4F"/>
<path d="M132.277 168.814C132.258 169.103 132.154 169.379 131.979 169.61C131.804 169.841 131.565 170.016 131.292 170.112C131.019 170.209 130.724 170.224 130.443 170.156C130.161 170.087 129.906 169.937 129.709 169.725C129.511 169.513 129.38 169.248 129.331 168.963C129.282 168.677 129.318 168.384 129.434 168.118C129.55 167.853 129.741 167.627 129.983 167.469C130.226 167.311 130.51 167.227 130.799 167.227C131.205 167.242 131.589 167.418 131.866 167.715C132.143 168.012 132.291 168.407 132.277 168.814Z" fill="#4CAF4F"/>
<path d="M136.871 168.835C136.851 169.126 136.746 169.404 136.569 169.635C136.392 169.867 136.152 170.041 135.877 170.137C135.602 170.232 135.305 170.245 135.022 170.173C134.74 170.101 134.485 169.948 134.29 169.733C134.094 169.517 133.966 169.249 133.921 168.961C133.876 168.674 133.917 168.379 134.038 168.115C134.16 167.85 134.356 167.627 134.603 167.473C134.851 167.319 135.137 167.241 135.428 167.249C135.828 167.273 136.203 167.452 136.472 167.749C136.741 168.045 136.884 168.435 136.871 168.835Z" fill="#4CAF4F"/>
<g opacity="0.2">
<path d="M100.111 168.669C100.09 168.959 99.984 169.237 99.8065 169.467C99.629 169.698 99.3878 169.871 99.1128 169.965C98.8378 170.06 98.541 170.072 98.2594 169.999C97.9778 169.927 97.7236 169.773 97.5285 169.557C97.3333 169.342 97.2058 169.074 97.1617 168.786C97.1175 168.499 97.1587 168.205 97.2802 167.94C97.4017 167.676 97.598 167.453 97.8449 167.3C98.0918 167.146 98.3784 167.068 98.6691 167.076C99.0708 167.098 99.4475 167.278 99.7175 167.576C99.9875 167.875 100.129 168.267 100.111 168.669Z" fill="white"/>
<path d="M104.704 168.691C104.719 168.894 104.691 169.098 104.623 169.29C104.555 169.483 104.448 169.659 104.309 169.808C104.17 169.957 104.002 170.075 103.815 170.157C103.628 170.238 103.426 170.28 103.223 170.28C103.019 170.28 102.817 170.238 102.63 170.157C102.443 170.075 102.275 169.957 102.136 169.808C101.997 169.659 101.891 169.483 101.822 169.29C101.754 169.098 101.727 168.894 101.741 168.691C101.727 168.488 101.754 168.284 101.822 168.092C101.891 167.9 101.997 167.724 102.136 167.575C102.275 167.426 102.443 167.307 102.63 167.225C102.817 167.144 103.019 167.102 103.223 167.102C103.426 167.102 103.628 167.144 103.815 167.225C104.002 167.307 104.17 167.426 104.309 167.575C104.448 167.724 104.555 167.9 104.623 168.092C104.691 168.284 104.719 168.488 104.704 168.691Z" fill="white"/>
<path d="M109.305 168.713C109.283 169.003 109.177 169.28 109 169.511C108.822 169.741 108.581 169.914 108.306 170.009C108.031 170.103 107.734 170.115 107.453 170.042C107.171 169.97 106.917 169.816 106.722 169.601C106.527 169.385 106.399 169.117 106.355 168.829C106.311 168.542 106.352 168.248 106.474 167.984C106.595 167.719 106.791 167.497 107.038 167.343C107.285 167.189 107.572 167.111 107.862 167.119C108.264 167.143 108.639 167.324 108.909 167.622C109.178 167.92 109.32 168.311 109.305 168.713Z" fill="white"/>
<path d="M113.898 168.734C113.877 169.024 113.771 169.302 113.593 169.532C113.416 169.762 113.174 169.936 112.899 170.03C112.624 170.125 112.328 170.137 112.046 170.064C111.764 169.991 111.51 169.838 111.315 169.622C111.12 169.407 110.992 169.138 110.948 168.851C110.904 168.564 110.945 168.269 111.067 168.005C111.188 167.741 111.385 167.518 111.632 167.365C111.878 167.211 112.165 167.133 112.456 167.141C112.857 167.165 113.232 167.345 113.502 167.643C113.772 167.941 113.914 168.333 113.898 168.734Z" fill="white"/>
<path d="M118.491 168.749C118.471 169.039 118.366 169.318 118.189 169.549C118.013 169.78 117.772 169.955 117.497 170.05C117.222 170.146 116.925 170.159 116.643 170.087C116.361 170.015 116.106 169.862 115.91 169.647C115.714 169.431 115.586 169.163 115.541 168.875C115.497 168.587 115.537 168.293 115.659 168.028C115.78 167.764 115.977 167.54 116.224 167.387C116.471 167.233 116.758 167.155 117.049 167.162C117.449 167.187 117.823 167.366 118.092 167.662C118.362 167.959 118.505 168.349 118.491 168.749Z" fill="white"/>
<path d="M123.091 168.77C123.072 169.059 122.968 169.336 122.793 169.567C122.618 169.798 122.379 169.972 122.106 170.069C121.833 170.166 121.538 170.181 121.257 170.112C120.975 170.043 120.72 169.894 120.523 169.682C120.325 169.47 120.194 169.205 120.145 168.92C120.096 168.634 120.132 168.341 120.248 168.075C120.364 167.81 120.555 167.584 120.797 167.426C121.04 167.267 121.324 167.183 121.613 167.184C122.019 167.199 122.403 167.374 122.68 167.672C122.957 167.969 123.105 168.364 123.091 168.77Z" fill="white"/>
<path d="M127.684 168.792C127.699 168.995 127.671 169.199 127.603 169.391C127.535 169.583 127.428 169.759 127.289 169.908C127.15 170.057 126.982 170.176 126.795 170.257C126.608 170.339 126.406 170.381 126.203 170.381C125.999 170.381 125.797 170.339 125.61 170.257C125.423 170.176 125.255 170.057 125.116 169.908C124.977 169.759 124.871 169.583 124.803 169.391C124.734 169.199 124.707 168.995 124.721 168.792C124.707 168.589 124.734 168.385 124.803 168.192C124.871 168 124.977 167.824 125.116 167.675C125.255 167.526 125.423 167.408 125.61 167.326C125.797 167.245 125.999 167.203 126.203 167.203C126.406 167.203 126.608 167.245 126.795 167.326C126.982 167.408 127.15 167.526 127.289 167.675C127.428 167.824 127.535 168 127.603 168.192C127.671 168.385 127.699 168.589 127.684 168.792Z" fill="white"/>
<path d="M132.277 168.814C132.258 169.103 132.154 169.379 131.979 169.61C131.804 169.841 131.565 170.016 131.292 170.112C131.019 170.209 130.724 170.224 130.443 170.156C130.161 170.087 129.906 169.937 129.709 169.725C129.511 169.513 129.38 169.248 129.331 168.963C129.282 168.677 129.318 168.384 129.434 168.118C129.55 167.853 129.741 167.627 129.983 167.469C130.226 167.311 130.51 167.227 130.799 167.227C131.205 167.242 131.589 167.418 131.866 167.715C132.143 168.012 132.291 168.407 132.277 168.814Z" fill="white"/>
<path d="M136.871 168.835C136.851 169.126 136.746 169.404 136.569 169.635C136.392 169.867 136.152 170.041 135.877 170.137C135.602 170.232 135.305 170.245 135.022 170.173C134.74 170.101 134.485 169.948 134.29 169.733C134.094 169.517 133.966 169.249 133.921 168.961C133.876 168.674 133.917 168.379 134.038 168.115C134.16 167.85 134.356 167.627 134.603 167.473C134.851 167.319 135.137 167.241 135.428 167.249C135.828 167.273 136.203 167.452 136.472 167.749C136.741 168.045 136.884 168.435 136.871 168.835Z" fill="white"/>
</g>
<path d="M130.345 64.7436C130.846 64.523 131.271 64.16 131.567 63.6998C131.863 63.2395 132.018 62.7023 132.011 62.155C132.029 61.7993 131.975 61.4434 131.852 61.1092C131.729 60.7749 131.539 60.4693 131.294 60.2109C131.048 59.9525 130.753 59.7467 130.426 59.606C130.098 59.4654 129.746 59.3929 129.39 59.3929C129.033 59.3929 128.681 59.4654 128.354 59.606C128.026 59.7467 127.731 59.9525 127.486 60.2109C127.241 60.4693 127.051 60.7749 126.927 61.1092C126.804 61.4434 126.75 61.7993 126.769 62.155C126.758 62.7078 126.911 63.2514 127.208 63.7172C127.506 64.1831 127.935 64.5503 128.442 64.7725C124.404 65.3781 124.584 69.7622 124.584 69.7622L134.131 69.8054C134.131 69.8054 134.354 65.3421 130.345 64.7436Z" fill="#4CAF4F"/>
<path opacity="0.1" d="M130.345 64.7436C130.846 64.523 131.271 64.16 131.567 63.6998C131.863 63.2395 132.018 62.7023 132.011 62.155C132.029 61.7993 131.975 61.4434 131.852 61.1092C131.729 60.7749 131.539 60.4693 131.294 60.2109C131.048 59.9525 130.753 59.7467 130.426 59.606C130.098 59.4654 129.746 59.3929 129.39 59.3929C129.033 59.3929 128.681 59.4654 128.354 59.606C128.026 59.7467 127.731 59.9525 127.486 60.2109C127.241 60.4693 127.051 60.7749 126.927 61.1092C126.804 61.4434 126.75 61.7993 126.769 62.155C126.758 62.7078 126.911 63.2514 127.208 63.7172C127.506 64.1831 127.935 64.5503 128.442 64.7725C124.404 65.3781 124.584 69.7622 124.584 69.7622L134.131 69.8054C134.131 69.8054 134.354 65.3421 130.345 64.7436Z" fill="black"/>
<path d="M145.858 72.6331L111.832 72.4787L111.814 76.5454L145.84 76.6998L145.858 72.6331Z" fill="#4CAF4F"/>
<path opacity="0.2" d="M145.858 72.6331L111.832 72.4787L111.814 76.5454L145.84 76.6998L145.858 72.6331Z" fill="white"/>
<path d="M20.7662 93.7084H20.4273L19.4467 93.7805C18.916 93.8124 18.3883 93.8823 17.8676 93.9897C17.5303 94.037 17.1957 94.102 16.8653 94.1843L15.7477 94.4944C13.8454 95.078 12.0506 95.9669 10.4335 97.1262C8.29691 98.6771 6.51284 100.663 5.19862 102.952C4.42618 104.272 3.81147 105.678 3.36714 107.142C2.90025 108.732 2.63144 110.374 2.56678 112.03C2.5238 112.901 2.53825 113.772 2.61004 114.641C2.61004 115.081 2.73262 115.52 2.7903 115.967C2.83882 116.418 2.92321 116.864 3.04267 117.301C3.69106 120.195 5.00666 122.897 6.88452 125.191C8.76239 127.486 11.1505 129.31 13.8585 130.518C15.8184 131.364 17.9191 131.836 20.0524 131.91C22.2557 132.031 24.4612 131.715 26.5418 130.98L27.1764 130.742H27.2629L27.335 130.785L36.4275 135.4L36.1607 135.631C35.1873 132.617 34.2499 129.696 33.3414 126.891V126.783L33.4207 126.704C35.6264 124.482 37.2638 121.762 38.1941 118.772C39.0367 116.039 39.2826 113.158 38.9151 110.322C38.5883 107.801 37.7779 105.367 36.5285 103.154C35.4514 101.253 34.062 99.5468 32.4184 98.1069C31.0625 96.9672 29.5617 96.0119 27.9551 95.2659C26.7395 94.7416 25.4735 94.343 24.1768 94.0762L22.7347 93.8382L21.6891 93.7589L21.0546 93.7157H20.8383C20.9102 93.7077 20.9827 93.7077 21.0546 93.7157H21.6964L22.7419 93.7589L24.184 93.968C25.4968 94.2153 26.7801 94.5995 28.0128 95.1145C29.647 95.8516 31.1748 96.8047 32.5554 97.9482C34.2292 99.3817 35.6481 101.088 36.752 102.996C38.0369 105.233 38.8722 107.699 39.2108 110.257C39.6087 113.137 39.3799 116.068 38.5402 118.852C37.6039 121.903 35.9411 124.682 33.6947 126.949L33.738 126.762C34.6465 129.566 35.5911 132.487 36.5717 135.494L36.7087 135.933L36.2977 135.724L27.2052 131.117H27.3638L26.7149 131.355C24.5942 132.101 22.3479 132.424 20.1028 132.307C17.9236 132.224 15.7789 131.734 13.7792 130.864C9.96458 129.231 6.79087 126.391 4.74436 122.781C3.8026 121.114 3.11483 119.316 2.70377 117.446C2.59121 116.997 2.50692 116.542 2.45141 116.083C2.39372 115.629 2.29999 115.181 2.27835 114.734C2.08321 112.169 2.35437 109.589 3.07872 107.12C3.53412 105.637 4.16595 104.213 4.96068 102.88C6.30625 100.57 8.12748 98.5715 10.3037 97.0181C11.9474 95.8557 13.7724 94.9737 15.7044 94.4079L16.8364 94.1194C17.1696 94.0422 17.5066 93.982 17.8459 93.9392C18.372 93.8418 18.9047 93.7839 19.4395 93.7661L20.4273 93.7301C20.5396 93.7149 20.6529 93.7077 20.7662 93.7084Z" fill="#4CAF4F"/>
<path d="M24.8762 110.523H23.5422L20.658 106.471V103.81C20.658 103.81 18.5958 103.681 18.8409 107.163C19.0861 110.646 18.8409 109.759 18.8409 109.759C18.8409 109.759 14.4641 109.759 14.1036 110.156C13.7431 110.552 13.7215 114.778 13.671 117.136C13.6433 117.704 13.8064 118.265 14.1344 118.73C14.4623 119.195 14.9362 119.538 15.4808 119.703C15.6335 119.745 15.7911 119.767 15.9495 119.767C17.0455 119.767 22.6193 118.881 22.6193 118.881H24.9194L24.8762 110.523Z" fill="#4CAF4F"/>
<path d="M28.6905 109.81L27.8685 118.924H25.59V109.997L28.6905 109.81Z" fill="#4CAF4F"/>
<path d="M55.8672 295.359V289.194L44.8134 289.114L44.7197 298.438L45.4047 298.488C48.4547 298.683 60.9218 298.971 62.9696 298.337C65.2481 297.63 55.8672 295.359 55.8672 295.359Z" fill="#4CAF4F"/>
<path d="M63.2293 297.76C63.2293 297.861 59.0905 297.947 53.9926 297.947C48.8947 297.947 44.7559 297.861 44.7559 297.76C44.7559 297.659 48.8947 297.572 53.9926 297.572C59.0905 297.572 63.2293 297.659 63.2293 297.76Z" fill="#263238"/>
<path d="M56.0619 296.62C55.9682 296.57 56.0619 296.246 56.2854 295.899C56.509 295.553 56.8118 295.409 56.8839 295.481C56.956 295.553 56.8046 295.827 56.5883 296.123C56.372 296.419 56.1556 296.671 56.0619 296.62Z" fill="#263238"/>
<path d="M56.7685 297.024C56.6675 297.024 56.718 296.62 56.9343 296.238C57.1507 295.856 57.4391 295.625 57.5184 295.683C57.5977 295.741 57.4679 296.065 57.266 296.404C57.0641 296.743 56.8622 297.06 56.7685 297.024Z" fill="#263238"/>
<path d="M48.0871 297.731C48.0439 297.731 47.878 297.601 47.6401 297.327C47.3496 296.975 47.0261 296.651 46.6739 296.361C46.3275 296.084 45.9149 295.903 45.4769 295.835C45.138 295.791 44.9217 295.835 44.9001 295.791C44.8784 295.748 45.0875 295.597 45.4841 295.568C46.0075 295.557 46.5181 295.73 46.9262 296.058C47.3087 296.37 47.6312 296.749 47.878 297.176C48.0439 297.493 48.1304 297.702 48.0871 297.731Z" fill="#263238"/>
<path d="M56.0979 295.46C56.1484 295.546 55.9609 295.763 55.6437 295.878C55.3264 295.993 55.0452 295.95 55.0308 295.878C55.0164 295.806 55.2399 295.654 55.5139 295.553C55.7879 295.452 56.0402 295.373 56.0979 295.46Z" fill="#263238"/>
<path d="M55.9251 294.861C55.9251 294.969 55.6367 295.056 55.2617 295.063C54.8868 295.07 54.5911 294.984 54.5983 294.883C54.6056 294.782 54.9012 294.688 55.2617 294.681C55.6222 294.674 55.9107 294.76 55.9251 294.861Z" fill="#263238"/>
<path d="M83.0871 295.359V289.194L72.0334 289.114L71.9396 298.344L72.6246 298.394C75.6747 298.589 88.1489 298.971 90.1895 298.337C92.468 297.63 83.0871 295.359 83.0871 295.359Z" fill="#4CAF4F"/>
<path d="M90.4491 297.774C90.4491 297.875 86.3175 297.962 81.2124 297.962C76.1074 297.962 71.9829 297.875 71.9829 297.774C71.9829 297.673 76.1146 297.587 81.2124 297.587C86.3103 297.587 90.4491 297.673 90.4491 297.774Z" fill="#263238"/>
<path d="M83.2817 296.62C83.1952 296.57 83.2817 296.246 83.5052 295.899C83.7288 295.553 84.0316 295.409 84.1037 295.481C84.1758 295.553 84.0244 295.827 83.8081 296.123C83.5918 296.419 83.3754 296.671 83.2817 296.62Z" fill="#263238"/>
<path d="M83.9884 297.024C83.8947 297.024 83.9379 296.62 84.1615 296.238C84.385 295.856 84.6662 295.625 84.7455 295.683C84.8248 295.741 84.6878 296.065 84.4859 296.404C84.284 296.743 84.0894 297.06 83.9884 297.024Z" fill="#263238"/>
<path d="M75.3068 297.731C75.2636 297.731 75.1049 297.601 74.8598 297.327C74.5693 296.975 74.2458 296.651 73.8936 296.361C73.5472 296.084 73.1346 295.903 72.6966 295.835C72.3649 295.791 72.1414 295.835 72.1198 295.791C72.0981 295.748 72.3072 295.597 72.7038 295.568C73.2272 295.557 73.7378 295.73 74.1459 296.058C74.5303 296.368 74.8532 296.747 75.0977 297.176C75.2636 297.493 75.3501 297.702 75.3068 297.731Z" fill="#263238"/>
<path d="M83.3179 295.46C83.3683 295.546 83.1809 295.763 82.8636 295.878C82.5463 295.993 82.2651 295.95 82.2507 295.878C82.2363 295.806 82.4598 295.654 82.7338 295.553C83.0078 295.452 83.2602 295.373 83.3179 295.46Z" fill="#263238"/>
<path d="M83.1591 294.861C83.1591 294.969 82.8707 295.056 82.4957 295.063C82.1208 295.07 81.8324 294.984 81.8396 294.883C81.8468 294.782 82.1352 294.688 82.4957 294.681C82.8563 294.674 83.1591 294.76 83.1591 294.861Z" fill="#263238"/>
<path d="M123.812 112.283C123.524 111.987 122.81 112.131 122.81 112.131C122.882 111.716 122.882 111.292 122.81 110.877C122.68 110.473 121.772 110.552 121.772 110.552C121.73 110.212 121.73 109.868 121.772 109.528C121.779 109.453 121.763 109.377 121.725 109.312C121.688 109.246 121.631 109.193 121.563 109.161C121.133 108.985 120.671 108.902 120.207 108.916C119.652 108.519 121.901 105.368 122.738 104.359C123.574 103.349 123.423 102.563 122.68 102.563C122.168 102.563 119.544 105.592 118.736 106.608C117.928 107.625 115.787 110.451 115.715 108.195C115.643 105.938 114.734 104.236 114.165 103.948C113.595 103.659 112.989 104.337 113.299 104.964C113.572 105.677 113.742 106.425 113.804 107.185C113.882 107.791 113.856 108.406 113.725 109.002C113.486 110.112 113.16 111.202 112.751 112.261H112.694C112.694 112.261 96.9602 127.353 95.8209 128.427C94.8042 129.394 74.3551 127.281 70.2523 126.848C68.8581 126.644 67.4503 126.548 66.0414 126.56C64.2604 126.639 63.9431 126.891 62.1693 126.913C57.6897 126.963 53.2205 127.356 48.8009 128.088C46.7998 128.429 44.9304 129.312 43.397 130.642C41.8635 131.972 40.7248 133.698 40.105 135.631C35.9734 148.538 26.6141 179.089 24.9629 196.25C23.7151 198.512 22.5887 200.84 21.5883 203.222C20.4274 206.381 20.7087 206.489 21.098 206.561C22.1508 206.756 23.3477 201.088 23.7948 202.458C24.2418 203.828 21.5234 209.214 22.6267 209.373C24.0688 209.575 25.2152 203.604 25.3522 203.129C25.4892 202.653 26.2031 202.804 26.0733 203.251C25.8642 203.886 23.838 210.613 25.2513 210.829C26.03 210.945 26.1166 209.524 26.1166 209.524C26.1166 209.524 27.5587 203.085 28.2148 203.215C28.871 203.345 28.1716 207.145 27.8399 208.414C27.5082 209.683 27.9697 210.325 28.6475 210.015C29.1089 209.798 30.2122 205.941 30.515 204.686C30.8178 203.431 31.5749 199.956 32.5916 201.968C33.6083 203.979 35.1514 205.148 35.7859 205.176C35.9289 205.16 36.0637 205.101 36.1729 205.007C36.2821 204.914 36.3608 204.789 36.3988 204.65C36.4368 204.512 36.4324 204.365 36.3861 204.228C36.3399 204.092 36.2539 203.973 36.1392 203.886C35.5935 203.353 35.125 202.746 34.7476 202.083C34.4112 201.567 34.1672 200.996 34.0265 200.396C33.736 199.2 33.5669 197.977 33.5218 196.747L33.4064 196.026C35.0216 188.03 39.6724 164.559 46.3854 149.569L49.1398 155.236L50.3368 159.433L42.9965 177.553L74.3046 177.142L69.6322 159.159L75.3069 140.411C81.4431 140.548 97.1981 140.779 99.8228 139.589C103.125 138.147 120.207 116.573 120.207 116.573C121.32 115.708 122.387 114.784 123.401 113.804C123.401 113.804 124.44 112.932 123.812 112.283Z" fill="#FFBE9D"/>
<path d="M41.6191 164.163C42.5277 161.062 47.1929 145.733 47.1929 145.733C47.1929 145.733 49.4858 158.229 48.8802 159.736C48.323 161.026 47.6648 162.27 46.9117 163.456C41.6191 171.51 42.3114 175.541 42.3114 175.541L74.2901 174.568C74.3622 170.097 71.716 159.7 71.168 158.041C70.62 156.383 72.4442 150.953 72.4442 150.953C72.4442 150.953 76.0495 147.283 75.9197 145.394C75.8512 143.697 75.6414 142.009 75.2924 140.346L94.7609 141.068L94.148 127.872L66.1855 125.075C65.2121 127.822 56.408 126.473 56.408 126.473C46.9045 126.791 46.3132 128.536 42.3618 131.607C38.4104 134.679 31.8705 161.041 31.8705 161.041L41.6191 164.163Z" fill="#4CAF4F"/>
<path d="M60.5254 161.041C59.9712 161.14 59.4067 161.169 58.8453 161.127C57.7998 161.127 56.3649 161.055 54.7858 160.896C53.2067 160.738 51.779 160.514 50.7623 160.312C50.2017 160.24 49.652 160.1 49.1255 159.894C49.6892 159.894 50.2517 159.947 50.8056 160.053C51.8295 160.183 53.2499 160.363 54.8218 160.521C56.3937 160.68 57.8214 160.788 58.8525 160.86C59.4146 160.867 59.9747 160.928 60.5254 161.041Z" fill="#263238"/>
<path d="M62.7172 158.322C62.1629 158.594 61.5767 158.795 60.9723 158.921C58.0955 159.677 55.1276 160.028 52.1538 159.966C51.5384 159.986 50.923 159.928 50.3223 159.793C50.9296 159.716 51.5418 159.685 52.1538 159.699C53.2859 159.663 54.8433 159.584 56.5594 159.382C58.2756 159.18 59.8042 158.892 60.8858 158.661C61.4865 158.501 62.0989 158.387 62.7172 158.322Z" fill="#263238"/>
<path d="M73.4755 146.194C73.461 146.744 73.386 147.29 73.252 147.824C73.0645 148.826 72.7761 150.196 72.4084 151.696C72.0406 153.196 71.6873 154.58 71.3701 155.517C71.2425 156.054 71.0538 156.574 70.8076 157.068C70.8478 156.52 70.9494 155.978 71.1105 155.452C71.3845 154.328 71.6945 153.03 72.0406 151.609C72.3868 150.189 72.7184 148.891 72.9924 147.766C73.09 147.225 73.2522 146.697 73.4755 146.194Z" fill="#263238"/>
<path d="M41.9582 162.324C40.29 162.066 38.6437 161.683 37.0333 161.178C35.3878 160.793 33.773 160.287 32.2023 159.663C33.8696 159.925 35.5156 160.308 37.1271 160.81C38.773 161.193 40.3879 161.699 41.9582 162.324Z" fill="#263238"/>
<path d="M75.6386 140.188C75.3666 140.235 75.0885 140.235 74.8165 140.188C74.0634 140.11 73.3238 139.933 72.6173 139.661C71.4378 139.218 70.364 138.533 69.4649 137.65C68.5659 136.767 67.8614 135.706 67.3969 134.535C66.8834 133.246 66.6642 131.859 66.7552 130.475C66.7873 129.334 67.1287 128.222 67.743 127.259C68.1751 126.611 68.8204 126.134 69.5673 125.911C69.7668 125.856 69.9732 125.829 70.1802 125.832C70.3244 125.832 70.3965 125.832 70.3965 125.832C70.3965 125.832 70.0936 125.832 69.6105 126.026C68.9254 126.279 68.3443 126.754 67.9593 127.375C66.9787 128.918 66.7047 131.737 67.7502 134.369C68.2368 135.61 68.9986 136.724 69.9783 137.628C70.781 138.368 71.7055 138.963 72.7111 139.387C73.6547 139.76 74.6364 140.029 75.6386 140.188Z" fill="#263238"/>
<path d="M92.4465 140.808C92.2661 138.597 92.2083 136.377 92.2734 134.16C92.2169 131.944 92.2843 129.727 92.4753 127.519C92.6558 129.728 92.7136 131.945 92.6484 134.16C92.709 136.378 92.6416 138.598 92.4465 140.808Z" fill="#263238"/>
<path d="M65.9981 125.882C66.0774 124.274 66.2432 122.457 66.2432 122.457C66.2432 122.457 70.2235 122.017 70.4614 117.907C70.6994 113.797 70.4614 104.315 70.4614 104.315L63.2509 100.624L55.2472 106.918L56.4802 127.468L63.8205 127.937C64.3816 127.953 64.9259 127.745 65.3341 127.36C65.7424 126.975 65.9811 126.443 65.9981 125.882Z" fill="#FFBE9D"/>
<path d="M66.712 114.655C66.712 114.655 66.712 114.734 66.6472 114.828C66.5935 114.896 66.5241 114.95 66.445 114.985C66.3658 115.02 66.2793 115.036 66.1929 115.03C65.7314 115.03 65.2844 114.496 65.1257 113.876C65.0503 113.576 65.0503 113.261 65.1257 112.961C65.1405 112.829 65.1878 112.704 65.2634 112.596C65.3389 112.487 65.4403 112.4 65.5584 112.341C65.6553 112.3 65.7642 112.3 65.8612 112.341C65.9331 112.376 65.9913 112.434 66.027 112.506C66.0775 112.629 66.027 112.708 66.027 112.701C66.027 112.694 66.027 112.629 65.9549 112.557C65.9172 112.505 65.8618 112.469 65.7993 112.456C65.7367 112.443 65.6715 112.453 65.616 112.485C65.5276 112.538 65.4541 112.613 65.4024 112.703C65.3507 112.792 65.3225 112.893 65.3204 112.997C65.2597 113.265 65.2597 113.543 65.3204 113.811C65.4646 114.374 65.854 114.828 66.2001 114.871C66.2678 114.881 66.3367 114.876 66.4024 114.857C66.4682 114.839 66.5294 114.807 66.5822 114.763C66.6688 114.706 66.6976 114.648 66.712 114.655Z" fill="#EB996E"/>
<path d="M72.9347 102.094C72.3795 100.205 70.3678 99.2679 68.5363 98.7488C65.7458 97.9556 62.7318 97.6095 60.0062 98.6117C57.2806 99.614 54.007 101.373 54.007 104.38C52.3991 104.25 51.4761 105.656 50.8416 107.401C50.4359 108.465 50.1928 109.583 50.1205 110.718C49.9186 114.655 48.8154 120.092 46.2629 122.976C44.8208 124.584 42.8235 125.695 42.0015 127.699C41.2804 129.437 41.6554 131.499 40.9848 133.258C40.3863 134.809 39.0668 135.912 38.1006 137.26C37.1162 138.79 36.5369 140.545 36.4171 142.36C36.2972 144.175 36.6408 145.991 37.4156 147.636C38.1959 149.24 39.2945 150.668 40.6444 151.833C41.9944 152.998 43.5675 153.876 45.2678 154.414C48.6359 155.439 52.2276 155.474 55.615 154.515C58.1573 153.907 60.5288 152.731 62.5515 151.076C64.6212 149.386 66.0427 147.032 66.575 144.413C67.087 141.471 66.265 138.479 65.6521 135.551C63.7341 126.3 64.2821 125.817 66.7048 117.229C66.7625 117.078 66.7913 116.919 66.8346 116.768C66.8779 116.616 66.8995 116.544 66.9283 116.429C66.9972 116.09 67.0334 115.744 67.0365 115.398C66.6826 115.529 66.2985 115.557 65.9294 115.478C65.5603 115.399 65.2214 115.216 64.9526 114.951C64.6833 114.668 64.4955 114.318 64.4091 113.937C64.3228 113.556 64.3412 113.159 64.4623 112.788C64.6325 112.382 64.886 112.016 65.2064 111.714C65.5269 111.412 65.9072 111.181 66.3226 111.036C67.123 110.704 67.9811 110.531 68.767 110.163C70.4327 109.37 71.5863 107.726 72.3723 106.003C73.0185 104.808 73.2179 103.423 72.9347 102.094Z" fill="#263238"/>
<path d="M67.0004 114.85C67.1528 115.075 67.2786 115.317 67.3754 115.571C67.5917 116.025 67.8801 116.667 68.1974 117.41L68.255 117.547H68.1036L67.3826 117.612C66.885 117.612 66.4668 117.705 65.9765 117.698C65.9338 117.689 65.8942 117.668 65.8615 117.639C65.8287 117.61 65.8038 117.574 65.789 117.532C65.7676 117.467 65.7676 117.396 65.789 117.33C65.8057 117.233 65.8274 117.137 65.8539 117.042L65.9837 116.53C66.0489 116.189 66.1505 115.855 66.2866 115.535C66.2731 115.883 66.2224 116.229 66.1351 116.566L66.0342 117.078C65.9981 117.251 65.9332 117.518 66.0342 117.496C66.3947 117.496 66.9067 117.417 67.3826 117.388L68.1036 117.323L68.0099 117.482C67.6998 116.761 67.4403 116.083 67.2888 115.614C67.156 115.375 67.0588 115.117 67.0004 114.85Z" fill="#4CAF4F"/>
<path d="M42.3115 175.541L74.2902 174.568L88.2066 228.892L85.6468 291.205H68.7381L70.8075 230.219L58.4415 192.399L60.345 293.621L43.256 293.873L41.4606 198.73C41.3813 196.084 40.516 190.121 40.8405 187.496L42.3115 175.541Z" fill="#263238"/>
<path d="M62.6956 193.171C62.1722 193.204 61.6467 193.172 61.1309 193.077C60.1647 192.962 58.8452 192.76 57.3959 192.472C55.9465 192.183 54.6486 191.851 53.7113 191.585C53.2102 191.474 52.7255 191.3 52.2692 191.065C52.2692 190.957 54.6198 191.52 57.504 192.104C60.3882 192.688 62.71 193.063 62.6956 193.171Z" fill="#455A64"/>
<path d="M85.4737 287.788C85.4737 287.889 81.6449 287.975 76.922 287.975C72.1991 287.975 68.3631 287.889 68.3631 287.788C68.3631 287.687 72.1919 287.6 76.922 287.6C81.6521 287.6 85.4737 287.679 85.4737 287.788Z" fill="#455A64"/>
<path d="M60.1936 290.989C60.1936 291.097 56.4729 291.177 51.887 291.177C47.3011 291.177 43.5877 291.097 43.5877 290.989C43.5877 290.881 47.3083 290.802 51.887 290.802C56.4657 290.802 60.1936 290.888 60.1936 290.989Z" fill="#455A64"/>
<path d="M57.9873 290.73C57.8863 290.73 57.4393 268.615 56.985 241.337C56.5307 214.06 56.264 191.931 56.3577 191.931C56.4514 191.931 56.9129 214.038 57.36 241.33C57.807 268.622 58.0954 290.73 57.9873 290.73Z" fill="#455A64"/>
<path d="M83.2026 287.788C83.1947 287.689 83.1947 287.59 83.2026 287.492V286.627C83.2026 285.848 83.2602 284.73 83.3035 283.31C83.4044 280.426 83.5487 276.236 83.7289 271.102C84.1183 260.777 84.6663 246.543 85.2648 230.831C85.2648 230.68 85.2648 230.536 85.2648 230.406V230.456C81.4792 215.314 78.0542 201.571 75.5666 191.628L72.6824 179.867C72.3507 178.49 72.0983 177.416 71.9181 176.666C71.8315 176.313 71.7738 176.039 71.7234 175.829C71.6953 175.736 71.6783 175.639 71.6729 175.541C71.7103 175.632 71.7393 175.726 71.7594 175.822C71.8171 176.024 71.8892 176.298 71.9902 176.644C72.1848 177.365 72.4661 178.461 72.8266 179.831C73.5476 182.615 74.5643 186.624 75.8334 191.563C78.3426 201.499 81.8037 215.206 85.6397 230.37V230.42C85.6397 230.55 85.6397 230.702 85.6397 230.846C84.998 246.558 84.4139 260.784 83.9885 271.11C83.765 276.251 83.5775 280.411 83.4477 283.31C83.3756 284.752 83.3179 285.848 83.2819 286.627C83.2819 286.994 83.2386 287.283 83.2314 287.492C83.2325 287.591 83.2228 287.69 83.2026 287.788Z" fill="#455A64"/>
<path d="M77.6865 229.137C76.4719 229.536 75.2208 229.814 73.9514 229.966C72.3939 230.233 71.0672 230.421 70.4687 230.449V230.305C70.6634 230.363 70.7643 230.399 70.7643 230.428C70.7643 230.457 70.6418 230.428 70.4399 230.428H70.0072L70.4399 230.298C71.0023 230.132 72.329 229.858 73.8865 229.577C75.1356 229.306 76.4084 229.159 77.6865 229.137Z" fill="#455A64"/>
<path d="M77.3908 231.206C76.2661 231.258 75.1391 231.207 74.0235 231.055C72.8972 231.032 71.7751 230.909 70.6706 230.687C72.924 230.503 75.1924 230.679 77.3908 231.206Z" fill="#455A64"/>
<path opacity="0.2" d="M42.1745 176.687C42.5533 177.174 43.0303 177.575 43.5745 177.864C44.1187 178.154 44.7178 178.325 45.3328 178.368C46.6207 178.52 47.9235 178.496 49.2048 178.295C57.4609 177.38 66.2073 176.536 74.2903 174.568C63.8278 175.152 52.7741 174.957 42.3115 175.541L42.2034 176.435" fill="black"/>
<g opacity="0.2">
<path d="M52.9543 191.433L58.8525 214.319L58.4415 192.399L52.9543 191.433Z" fill="black"/>
</g>
</svg>
