<svg width="805" height="69" viewBox="0 0 805 69" fill="none" xmlns="http://www.w3.org/2000/svg">
<g clip-path="url(#clip0_211_2045)">
<path fill-rule="evenodd" clip-rule="evenodd" d="M9.74928 20.1944C13.5952 20.1944 16.7129 23.3121 16.7129 27.1581V20.1944H23.6766C27.5225 20.1944 30.6403 23.3121 30.6403 27.1581C30.6403 31.004 27.5225 34.1217 23.6766 34.1217C27.5225 34.1217 30.6403 37.2395 30.6403 41.0854C30.6403 42.9951 29.8716 44.7252 28.6267 45.9832L28.6007 46.0095L28.5776 46.0325C27.3192 47.2791 25.5879 48.0491 23.6766 48.0491C21.7784 48.0491 20.0575 47.2895 18.8013 46.0578C18.7851 46.0418 18.7688 46.0256 18.7525 46.0095C18.7373 45.9942 18.7221 45.9789 18.707 45.9635C17.4737 44.7071 16.7129 42.9851 16.7129 41.0854C16.7129 44.9313 13.5952 48.0491 9.74928 48.0491C5.90335 48.0491 2.78561 44.9313 2.78561 41.0854V34.1217H9.74928C5.90335 34.1217 2.78561 31.004 2.78561 27.1581C2.78561 23.3121 5.90335 20.1944 9.74928 20.1944ZM15.3202 27.1581C15.3202 30.2348 12.826 32.729 9.74928 32.729V21.5871C12.826 21.5871 15.3202 24.0813 15.3202 27.1581ZM29.2475 41.0854C29.2475 38.0087 26.7534 35.5145 23.6766 35.5145C20.5999 35.5145 18.1057 38.0087 18.1057 41.0854H29.2475ZM4.17835 35.5145V41.0854C4.17835 44.1622 6.67254 46.6563 9.74928 46.6563C12.826 46.6563 15.3202 44.1622 15.3202 41.0854V35.5145H4.17835ZM18.1057 32.729V21.5871H23.6766C26.7534 21.5871 29.2475 24.0813 29.2475 27.1581C29.2475 30.2348 26.7534 32.729 23.6766 32.729H18.1057Z" fill="#263238"/>
</g>
<g clip-path="url(#clip1_211_2045)">
<path fill-rule="evenodd" clip-rule="evenodd" d="M137.871 27.1313L130.917 34.0151C132.308 35.392 133.897 36.5525 135.629 37.4603C136.108 38.7177 136.858 39.8968 137.881 40.9088C141.727 44.716 147.962 44.716 151.808 40.9088C152.83 39.8968 153.581 38.7177 154.06 37.4602C155.792 36.5525 157.381 35.392 158.772 34.0151L151.823 27.1369C151.818 27.1317 151.813 27.1266 151.808 27.1214C147.962 23.3142 141.727 23.3142 137.881 27.1214C137.877 27.1247 137.874 27.128 137.871 27.1313ZM151.143 38.7023C149.116 39.3793 146.989 39.726 144.844 39.726C142.7 39.726 140.572 39.3793 138.546 38.7023C138.766 38.9906 139.008 39.2674 139.273 39.53C142.35 42.5759 147.338 42.5759 150.415 39.53C150.681 39.2674 150.923 38.9906 151.143 38.7023ZM139.416 28.3623C139.939 28.704 140.494 28.9964 141.076 29.2348C142.27 29.7247 143.551 29.9769 144.844 29.9769C146.138 29.9769 147.418 29.7247 148.613 29.2348C149.194 28.9964 149.75 28.704 150.272 28.3623C147.234 25.5003 142.454 25.5003 139.416 28.3623Z" fill="#3B4158"/>
</g>
<g clip-path="url(#clip2_211_2045)">
<path d="M292.471 30.9996C292.475 30.9706 292.475 30.9412 292.471 30.9122C292.475 30.8885 292.475 30.8644 292.471 30.8407L292.187 28.7985C292.146 28.5542 292.037 28.3258 291.871 28.1389L291.823 28.0833L291.733 27.9959L286.822 23.8479L286.959 23.983C286.847 23.8508 286.705 23.7451 286.545 23.6735C286.385 23.602 286.211 23.5666 286.035 23.5698H284.544C284.301 23.5651 284.064 23.6407 283.871 23.7844C283.668 23.6416 283.424 23.5664 283.174 23.5698H281.683C281.487 23.5667 281.294 23.6143 281.123 23.7078C280.953 23.8013 280.81 23.9374 280.71 24.1022C280.556 24.3377 280.498 24.6214 280.548 24.8969L280.734 26.1842C280.611 26.1155 280.471 26.0799 280.329 26.0809H273.107C272.848 26.0825 272.595 26.1569 272.378 26.2954C272.168 26.4243 271.999 26.6089 271.891 26.8278L271.332 26.359C271.112 26.1593 270.821 26.0511 270.522 26.057H259.19C258.93 26.0617 258.676 26.1329 258.453 26.2636C258.147 26.4389 257.923 26.7239 257.828 27.0583L254.23 38.8585C254.162 39.0529 254.156 39.2626 254.211 39.4608C254.266 39.6589 254.379 39.8366 254.538 39.971C254.579 40.0053 254.622 40.0371 254.667 40.0663C254.667 40.0663 254.594 40.0186 254.554 39.9789L259.466 44.1348C259.674 44.3224 259.945 44.4272 260.228 44.4288H271.648C271.909 44.4222 272.163 44.3482 272.386 44.2143C272.512 44.1469 272.624 44.0581 272.718 43.952L272.759 43.8964L272.824 43.817L272.872 43.7295L273.407 44.1825C273.612 44.3626 273.878 44.4617 274.153 44.4606H285.598C285.858 44.4521 286.112 44.3783 286.335 44.2461C286.458 44.1746 286.57 44.0863 286.668 43.9838L286.708 43.9282L286.773 43.8488C286.807 43.7985 286.837 43.7453 286.862 43.6898C286.889 43.6416 286.91 43.5911 286.927 43.5389L290.21 32.7637V32.6683C290.214 32.6314 290.214 32.5941 290.21 32.5571V32.4856C290.214 32.4619 290.214 32.4378 290.21 32.414C290.213 32.3638 290.213 32.3133 290.21 32.2631H291.263C291.355 32.2713 291.447 32.2713 291.539 32.2631H291.612C291.671 32.2457 291.728 32.2217 291.782 32.1916H291.863L292.009 32.0803L292.074 32.0326L292.187 31.8896V31.8419L292.268 31.7068C292.264 31.6806 292.264 31.6537 292.268 31.6274C292.264 31.6145 292.264 31.6005 292.268 31.5876C292.286 31.5411 292.299 31.4932 292.309 31.4446C292.305 31.4289 292.305 31.4126 292.309 31.3969C292.305 31.3733 292.305 31.3491 292.309 31.3254C292.309 31.3254 292.471 31.0155 292.471 30.9996Z" fill="black"/>
<path d="M270.854 26.9629C270.897 27.0011 270.927 27.0512 270.94 27.1067C270.953 27.1621 270.948 27.2201 270.927 27.2728L267.336 39.0651C267.291 39.1939 267.198 39.3015 267.077 39.3671C266.978 39.432 266.863 39.4704 266.744 39.4784H255.332C255.235 39.4738 255.142 39.4342 255.073 39.3671C255.031 39.3296 255.002 39.2808 254.989 39.227C254.976 39.1732 254.98 39.1169 255 39.0651L258.599 27.2728C258.64 27.1425 258.73 27.032 258.85 26.9629C258.95 26.9027 259.064 26.8672 259.182 26.8596H270.595C270.691 26.8605 270.784 26.8975 270.854 26.9629ZM264.896 36.6892L267.044 29.6488H261.03L258.89 36.6892H264.896ZM281.748 27.0821C281.787 27.1265 281.835 27.1617 281.89 27.1851C281.945 27.2084 282.004 27.2194 282.064 27.2172H283.547C283.603 27.2178 283.659 27.2042 283.709 27.1778C283.758 27.1513 283.8 27.113 283.831 27.0662C283.857 27.0297 283.876 26.9884 283.885 26.9447C283.895 26.9011 283.896 26.8559 283.887 26.812L283.596 24.7141C283.568 24.617 283.518 24.5274 283.45 24.4519C283.411 24.4075 283.362 24.3724 283.307 24.349C283.253 24.3256 283.193 24.3146 283.134 24.3168H281.65C281.594 24.3163 281.538 24.3299 281.489 24.3563C281.439 24.3827 281.397 24.4211 281.367 24.4678C281.31 24.579 281.286 24.6506 281.31 24.7141L281.61 26.812C281.625 26.9141 281.673 27.0088 281.748 27.0821ZM286.457 24.6982C286.429 24.6011 286.379 24.5115 286.311 24.436C286.274 24.3918 286.226 24.3566 286.173 24.3332C286.12 24.3098 286.061 24.2987 286.003 24.3009H284.512C284.456 24.2994 284.401 24.3126 284.353 24.3392C284.304 24.3657 284.264 24.4047 284.236 24.4519C284.182 24.5224 284.159 24.611 284.171 24.6982L284.471 26.7961C284.49 26.8971 284.538 26.9908 284.609 27.0662C284.648 27.1097 284.697 27.1443 284.752 27.1676C284.806 27.1909 284.865 27.2024 284.925 27.2013H286.416C286.472 27.202 286.526 27.1885 286.575 27.162C286.623 27.1355 286.664 27.097 286.692 27.0503C286.72 27.0148 286.74 26.9735 286.75 26.9295C286.759 26.8855 286.759 26.8399 286.749 26.7961L286.457 24.6982ZM280.443 27.8768L280.297 26.8437H273.107C272.994 26.8498 272.885 26.8855 272.791 26.947C272.731 26.979 272.679 27.0232 272.639 27.0767C272.598 27.1302 272.57 27.1917 272.556 27.2569L271.956 29.2276C271.932 29.2769 271.924 29.3321 271.933 29.386C271.942 29.4399 271.967 29.4899 272.005 29.5296C272.073 29.5926 272.162 29.6293 272.256 29.6329H280.994L278.846 36.6733H270.133C270.02 36.6758 269.911 36.7088 269.816 36.7686C269.702 36.84 269.618 36.9504 269.581 37.0785L268.973 39.0492C268.954 39.0998 268.948 39.1547 268.958 39.208C268.968 39.2613 268.993 39.3109 269.03 39.3512C269.096 39.4184 269.186 39.4582 269.281 39.4624H280.726C280.845 39.4524 280.959 39.4143 281.059 39.3512C281.178 39.2853 281.268 39.1774 281.31 39.0492L284.601 28.2741H280.897C280.838 28.2752 280.779 28.2645 280.725 28.2426C280.671 28.2208 280.621 28.1882 280.58 28.1469C280.513 28.0749 280.466 27.9874 280.443 27.8926V27.8768Z" fill="white"/>
</g>
<g clip-path="url(#clip3_211_2045)">
<path d="M415.729 26.7483C415.729 26.7719 415.729 26.8013 415.723 26.819C415.692 27.0486 415.692 27.2782 415.71 27.5136C415.723 27.5725 415.735 27.6314 415.784 27.6785C415.864 27.7667 415.986 27.7491 416.035 27.6431C416.06 27.5901 416.06 27.5372 416.048 27.4842C415.986 27.2605 415.974 27.025 415.968 26.7954C415.968 26.7837 415.968 26.766 415.968 26.7483C416.035 26.7425 416.097 26.7366 416.152 26.7366C416.195 26.7307 416.232 26.7248 416.262 26.7071C416.354 26.66 416.354 26.56 416.256 26.5129C416.219 26.4952 416.17 26.4893 416.127 26.4893C415.974 26.4952 415.821 26.4952 415.667 26.4952C415.612 26.4952 415.557 26.5011 415.502 26.507C415.471 26.5129 415.434 26.5129 415.41 26.5305C415.367 26.5482 415.342 26.5776 415.342 26.6188C415.348 26.66 415.367 26.6836 415.41 26.7013C415.434 26.7189 415.465 26.7248 415.496 26.7248C415.569 26.7307 415.649 26.7425 415.729 26.7483ZM417.415 27.0191C417.415 27.025 417.421 27.0309 417.421 27.0309C417.446 27.1899 417.471 27.3429 417.489 27.496C417.495 27.5489 417.501 27.596 417.538 27.6372C417.618 27.7373 417.74 27.7255 417.796 27.6196C417.82 27.5666 417.826 27.5136 417.814 27.4548C417.777 27.2782 417.759 27.1015 417.722 26.9308C417.697 26.8249 417.667 26.7248 417.636 26.6306C417.618 26.5717 417.575 26.5305 417.501 26.5247C417.428 26.5129 417.372 26.5482 417.342 26.6012C417.305 26.6483 417.274 26.6954 417.25 26.7483C417.207 26.8425 417.17 26.9367 417.121 27.025C417.115 27.0486 417.109 27.0662 417.096 27.0839C417.09 27.0721 417.084 27.0662 417.084 27.0662C417.004 26.9191 416.931 26.7719 416.851 26.6306C416.839 26.6188 416.833 26.6071 416.827 26.5953C416.79 26.5423 416.747 26.5129 416.679 26.5129C416.618 26.5188 416.569 26.5541 416.538 26.6071C416.526 26.6306 416.526 26.6483 416.52 26.6718C416.495 26.8602 416.465 27.0486 416.44 27.2369C416.428 27.3429 416.422 27.4489 416.422 27.5548C416.416 27.5784 416.422 27.6078 416.434 27.6314C416.446 27.6784 416.483 27.7079 416.532 27.7138C416.593 27.7197 416.636 27.702 416.655 27.6549C416.673 27.6196 416.679 27.5901 416.685 27.5607C416.71 27.4548 416.728 27.3547 416.747 27.2546C416.759 27.1957 416.765 27.1486 416.784 27.0839C416.796 27.1074 416.808 27.1251 416.82 27.1428C416.876 27.2134 416.931 27.284 416.998 27.3429C417.066 27.39 417.121 27.3841 417.176 27.3311C417.188 27.3194 417.195 27.3135 417.207 27.3017C417.262 27.2193 417.329 27.1369 417.385 27.0545C417.397 27.0427 417.403 27.0309 417.415 27.0191Z" fill="#3A3B7B"/>
<path d="M403.283 26.8641C403.24 26.9759 403.232 27.0565 403.252 27.1235C403.274 27.2146 403.33 27.2444 403.407 27.2213C404.127 27.0503 405.707 27.5356 406.292 27.6709C406.43 27.6993 406.542 27.5284 406.448 27.3752C406.31 27.2268 404.731 26.5915 404.129 26.5568C403.893 26.544 403.47 26.4859 403.283 26.8641Z" fill="#3A3B7B"/>
<path d="M409.457 24.8076C409.534 24.8501 409.577 24.8907 409.598 24.936C409.629 24.9955 409.613 25.0366 409.56 25.0576C409.083 25.2807 408.45 26.241 408.194 26.5722C408.132 26.6484 407.989 26.6041 407.967 26.4788C407.972 26.3372 408.533 25.295 408.847 25.0111C408.97 24.9003 409.174 24.6828 409.457 24.8076Z" fill="#3A3B7B"/>
<path d="M405.665 24.3347C405.757 24.268 405.853 24.2446 405.902 24.288C406.62 24.8777 407.001 25.8117 407.237 26.6666C407.246 26.6866 407.247 26.7151 407.24 26.745C407.237 26.7704 407.217 26.7974 407.186 26.8182C407.153 26.8412 407.125 26.8482 407.112 26.8284C406.797 26.4173 404.998 24.8178 405.665 24.3347Z" fill="#3A3B7B"/>
<path d="M390.45 34.5595C390.622 34.4364 390.809 34.334 391.007 34.2545C391.214 34.1976 391.435 34.207 391.636 34.2814C391.838 34.3557 392.008 34.4909 392.122 34.6665C392.224 34.8416 392.264 35.0439 392.236 35.2427C392.208 35.4415 392.113 35.6261 391.966 35.7688C391.852 35.8845 391.723 35.9852 391.581 36.0685C390.951 36.4591 390.316 36.8283 389.68 37.2189C389.55 37.3167 389.412 37.4044 389.268 37.4811C389.048 37.5864 388.796 37.6145 388.557 37.5608C388.318 37.5071 388.106 37.3748 387.957 37.1868C387.846 37.0537 387.753 36.9082 387.679 36.7534C387.077 35.5387 386.452 34.3294 385.872 33.0933C385.605 32.5582 385.387 31.9428 385.175 31.3489C385.084 31.1763 385.066 30.9762 385.125 30.7912C385.185 30.6061 385.318 30.4507 385.495 30.358C385.672 30.2653 385.88 30.2426 386.074 30.2948C386.269 30.3469 386.434 30.4698 386.536 30.6372C386.848 31.0349 387.124 31.4574 387.361 31.9001C387.963 32.9702 388.537 34.0404 389.117 35.0785C389.151 35.1359 389.188 35.1912 389.229 35.2444C389.665 35.0683 390.075 34.838 390.45 34.5595Z" fill="#3A3B7B"/>
<path d="M396.675 34.1861C395.298 35.7325 392.99 35.3419 391.83 33.3513C391.005 31.9387 390.86 29.6056 392.656 28.1341C393.039 27.8261 393.497 27.6162 393.988 27.5241C394.59 27.4413 395.203 27.5432 395.741 27.8152C396.279 28.0871 396.713 28.5153 396.982 29.0384C397.963 30.7508 397.824 32.9339 396.675 34.1861ZM396.118 30.5795C395.971 30.1587 395.678 29.7995 395.287 29.5628C395.066 29.4115 394.797 29.3379 394.526 29.3545C394.255 29.3711 393.998 29.4768 393.798 29.6538C393.001 30.3334 392.834 31.944 393.414 32.9019C393.488 33.058 393.596 33.1968 393.732 33.3086C393.867 33.4203 394.027 33.5022 394.199 33.5485C394.371 33.595 394.552 33.6047 394.728 33.5771C394.904 33.5495 395.072 33.4852 395.22 33.3888C395.652 33.0672 395.969 32.6244 396.127 32.1219C396.285 31.6194 396.276 31.0821 396.101 30.5849L396.118 30.5795Z" fill="#3A3B7B"/>
<path d="M402.295 31.2539C402.154 31.283 402.008 31.2848 401.867 31.259C401.725 31.2333 401.59 31.1806 401.47 31.1041C401.365 31.0464 401.274 30.967 401.205 30.8717C401.135 30.7764 401.089 30.6675 401.069 30.5528C401.048 30.4382 401.055 30.3207 401.088 30.2088C401.12 30.0969 401.179 29.9933 401.258 29.9055C401.396 29.729 401.593 29.6027 401.816 29.547C402.397 29.385 402.995 29.2863 403.6 29.2527C403.732 29.2379 403.867 29.2486 403.995 29.2844C404.124 29.3202 404.243 29.3802 404.347 29.461C404.451 29.5417 404.537 29.6416 404.6 29.7547C404.663 29.8677 404.702 29.9918 404.715 30.1195C404.889 30.7469 404.908 31.4048 404.77 32.0405C404.269 34.0953 402.54 34.8016 400.6 34.1435C400.055 33.9675 399.578 33.6396 399.229 33.2017C398.763 32.6743 398.432 32.0494 398.264 31.377C398.128 30.7783 398.143 30.157 398.308 29.565C398.473 28.973 398.783 28.4274 399.212 27.9738C399.619 27.4808 400.148 27.0928 400.751 26.8447C401.131 26.6433 401.577 26.586 402 26.6842C402.095 26.7097 402.182 26.7593 402.252 26.8279C402.321 26.8965 402.369 26.9816 402.393 27.0745C402.416 27.1673 402.413 27.2644 402.384 27.3557C402.355 27.447 402.301 27.5293 402.228 27.5939C402.089 27.7148 401.938 27.8224 401.776 27.9149C401.281 28.2179 400.849 28.6083 400.505 29.0654C400.28 29.3612 400.124 29.7009 400.05 30.0605C399.976 30.4201 399.985 30.7909 400.076 31.1469C400.202 31.6323 400.483 32.068 400.879 32.3937C402.105 33.4639 403.7 32.4311 403.421 30.9703C403.014 31.0667 402.657 31.1683 402.295 31.2539Z" fill="#3A3B7B"/>
<path d="M409.788 34.2718C407.976 35.3421 405.913 34.2718 405.462 32.0245C405.133 30.4192 405.757 28.1717 407.943 27.3156C408.408 27.1373 408.912 27.0748 409.409 27.1336C410.006 27.2385 410.554 27.5206 410.975 27.9402C411.396 28.3597 411.669 28.8955 411.756 29.472C412.124 31.3823 411.288 33.421 409.788 34.2718ZM410.418 30.6706C410.418 30.2261 410.254 29.796 409.955 29.456C409.796 29.2457 409.565 29.095 409.303 29.0296C409.041 28.9642 408.763 28.9882 408.517 29.0975C407.536 29.5041 406.844 30.981 407.095 32.0673C407.114 32.2377 407.172 32.4021 407.264 32.549C407.357 32.6958 407.481 32.8215 407.629 32.9173C407.778 33.0131 407.946 33.0767 408.122 33.1037C408.299 33.1306 408.479 33.1202 408.651 33.0732C409.169 32.8993 409.619 32.5743 409.935 32.1436C410.252 31.7129 410.421 31.1979 410.418 30.6706Z" fill="#3A3B7B"/>
<path d="M413.589 34.7214C413.561 34.9173 413.454 35.0947 413.29 35.2146C413.127 35.3345 412.92 35.3871 412.716 35.3609C412.512 35.3346 412.327 35.2316 412.202 35.0746C412.077 34.9176 412.023 34.7193 412.05 34.5234C412.077 34.3276 412.185 34.1502 412.348 34.0303C412.512 33.9103 412.718 33.8577 412.922 33.884C413.126 33.9103 413.311 34.0132 413.436 34.1703C413.561 34.3273 413.616 34.5256 413.589 34.7214ZM413.104 27.5029C413.21 27.3475 413.365 27.2292 413.547 27.1655C413.729 27.1019 413.927 27.0963 414.113 27.1498C414.301 27.195 414.468 27.3011 414.584 27.4501C414.701 27.5992 414.761 27.7822 414.754 27.9685C414.729 28.2673 414.683 28.5642 414.615 28.8567C414.431 29.8467 414.252 30.8366 414.057 31.8158C413.968 32.2065 413.851 32.581 413.722 32.977C413.678 33.1008 413.603 33.2126 413.505 33.3034C413.444 33.3717 413.366 33.4241 413.278 33.4557C413.19 33.4874 413.096 33.4972 413.003 33.4844C412.91 33.4716 412.822 33.4366 412.747 33.3825C412.672 33.3284 412.613 33.257 412.574 33.175C412.508 33.0278 412.472 32.8697 412.468 32.7095C412.468 32.0459 412.468 31.3771 412.513 30.7082C412.588 29.7536 412.737 28.8057 412.959 27.8722C412.985 27.7471 413.034 27.6275 413.104 27.519V27.5029Z" fill="#3A3B7B"/>
<path fill-rule="evenodd" clip-rule="evenodd" d="M388.094 39.0212C388.028 39.1623 388.01 39.3195 388.042 39.4708C388.064 39.6703 388.111 39.8665 388.182 40.055C388.271 40.2857 388.371 40.5139 388.495 40.7952C388.523 40.8599 388.553 40.9275 388.584 40.9985C388.75 41.3796 388.958 41.8665 389.236 42.5713C389.315 42.7715 389.385 42.9734 389.455 43.1766C389.484 43.2587 389.512 43.3411 389.542 43.4236C389.646 43.7172 389.826 43.9809 390.065 44.1899C390.167 44.3048 390.301 44.3885 390.452 44.4304C390.606 44.4731 390.769 44.4704 390.922 44.4226C391.074 44.3749 391.207 44.2843 391.305 44.1626C391.401 44.0433 391.458 43.8996 391.469 43.7494C391.531 43.4568 391.51 43.1535 391.408 42.8715C391.245 42.4032 391.06 41.9342 390.846 41.4755L390.845 41.4735C390.493 40.7558 390.136 40.0432 389.762 39.3302L389.759 39.3252C389.65 39.1394 389.507 38.9734 389.338 38.8345C389.229 38.7105 389.078 38.6269 388.911 38.5981C388.74 38.5687 388.564 38.5983 388.415 38.6818C388.273 38.7595 388.161 38.8783 388.094 39.0212Z" fill="#3A3B7B"/>
<path fill-rule="evenodd" clip-rule="evenodd" d="M393.463 37.254C392.912 37.117 392.336 37.097 391.776 37.1955C391.342 37.2365 390.916 37.3325 390.62 37.5227C390.469 37.6195 390.347 37.7438 390.279 37.9018C390.211 38.0606 390.203 38.2423 390.258 38.4447C390.36 38.8155 390.493 39.1759 390.625 39.5353L390.646 39.5935L390.646 39.5947C391.044 40.6386 391.444 41.679 391.849 42.7157C391.896 42.8791 391.963 43.0367 392.048 43.1854L392.049 43.1882C392.162 43.3728 392.306 43.538 392.475 43.6768C392.56 43.7531 392.665 43.8058 392.778 43.8294C392.893 43.8532 393.012 43.8463 393.123 43.8094C393.234 43.7726 393.333 43.7072 393.408 43.6203C393.481 43.5349 393.529 43.432 393.547 43.3225C393.62 43.025 393.597 42.7131 393.48 42.4287C393.444 42.333 393.415 42.2352 393.385 42.1323C393.375 42.098 393.365 42.063 393.354 42.0275C394.28 41.68 395.265 41.2128 395.612 40.126C395.747 39.7504 395.759 39.3437 395.644 38.9617C395.529 38.5792 395.294 38.2402 394.97 37.9914C394.53 37.643 394.015 37.3913 393.463 37.254ZM391.935 38.5871C391.953 38.582 391.972 38.5774 391.99 38.573C392.593 38.482 393.21 38.6032 393.727 38.9142C393.955 39.0664 394.048 39.2354 394.064 39.3981C394.081 39.5656 394.017 39.747 393.89 39.9215C393.649 40.251 393.21 40.5148 392.813 40.564C392.523 39.9242 392.229 39.2586 391.935 38.5871Z" fill="#3A3B7B"/>
<path d="M397.137 36.0831C397.794 35.7922 398.607 35.7419 399.243 35.9465C399.403 35.9913 399.542 36.0882 399.636 36.2206C399.73 36.3522 399.773 36.5108 399.758 36.6693C399.757 36.7722 399.731 36.8734 399.681 36.9648C399.631 37.0578 399.558 37.1377 399.469 37.1979C399.379 37.2581 399.276 37.2968 399.168 37.3106C399.06 37.3245 398.949 37.3131 398.847 37.2774L398.839 37.2747L398.832 37.271C398.779 37.2446 398.723 37.2247 398.665 37.2118L398.662 37.211C398.214 37.0969 397.792 37.286 397.638 37.5182C397.564 37.629 397.555 37.7408 397.616 37.8425C397.682 37.9514 397.843 38.0736 398.169 38.1608C398.258 38.1843 398.35 38.2071 398.443 38.2302C398.7 38.2942 398.968 38.3607 399.227 38.4528L399.228 38.4532C400.421 38.889 400.866 39.7917 400.713 40.6407C400.563 41.4802 399.832 42.2443 398.734 42.4246C398.334 42.5096 397.918 42.4931 397.527 42.3765C397.135 42.2596 396.781 42.0463 396.502 41.7577L396.494 41.7502C396.406 41.6415 396.347 41.5138 396.32 41.3782C396.296 41.2559 396.309 41.1295 396.357 41.0139C396.405 40.899 396.486 40.7995 396.59 40.727C396.701 40.6449 396.834 40.5956 396.973 40.5853C397.112 40.5751 397.251 40.604 397.373 40.6686C397.494 40.725 397.608 40.797 397.709 40.8827L397.711 40.8842C397.891 41.0421 398.109 41.0832 398.317 41.0451C398.529 41.0065 398.728 40.8863 398.856 40.7268C398.983 40.5683 399.034 40.38 398.974 40.1972C398.913 40.0132 398.729 39.8069 398.327 39.6345C398.221 39.5915 398.112 39.5569 397.999 39.5233C397.968 39.5142 397.937 39.5051 397.905 39.4959C397.821 39.4715 397.735 39.4463 397.65 39.4185C397.592 39.3994 397.534 39.3813 397.477 39.3634C397.32 39.3144 397.167 39.2667 397.02 39.2027C396.7 39.0981 396.424 38.8974 396.232 38.6301C396.039 38.3618 395.943 38.0409 395.956 37.7154C395.957 36.9222 396.477 36.3757 397.137 36.0831Z" fill="#3A3B7B"/>
<path d="M405.459 35.9986C405.331 35.9389 405.191 35.9106 405.049 35.9162C404.908 35.9218 404.77 35.961 404.648 36.0306C404.527 36.0996 404.426 36.1963 404.353 36.312C404.287 36.4094 404.241 36.5184 404.218 36.6328C404.195 36.7471 404.195 36.8646 404.219 36.9787C404.243 37.1253 404.269 37.2678 404.295 37.4084C404.338 37.6411 404.38 37.8685 404.408 38.1003L404.409 38.1062C404.471 38.4699 404.504 38.8376 404.507 39.2062L404.508 39.2114C404.529 39.6094 404.388 39.9997 404.114 40.2994L404.11 40.3047C404.021 40.4143 403.901 40.4979 403.766 40.5462C403.63 40.5946 403.483 40.6057 403.341 40.5783C403.199 40.551 403.068 40.4862 402.962 40.3914C402.856 40.2965 402.779 40.1749 402.741 40.0408C402.66 39.7582 402.613 39.4676 402.601 39.1747L402.74 37.0513C402.742 37.0236 402.744 36.9951 402.747 36.9664C402.752 36.9019 402.757 36.8363 402.76 36.775C402.763 36.6848 402.76 36.5921 402.738 36.5044C402.716 36.4147 402.673 36.3294 402.598 36.2567C402.523 36.1848 402.422 36.1317 402.295 36.0956C402.065 36.0318 401.871 36.0338 401.709 36.0997C401.547 36.1657 401.436 36.2882 401.357 36.4296C401.279 36.5699 401.229 36.7359 401.191 36.9023C401.163 37.0257 401.141 37.1552 401.119 37.2786C401.112 37.3211 401.104 37.3628 401.097 37.4033L401.097 37.4045C400.982 38.0808 400.948 38.7675 400.995 39.4513C401.004 39.8208 401.084 40.1856 401.232 40.5269C401.399 40.9673 401.7 41.3489 402.098 41.6213C402.496 41.8943 402.971 42.0447 403.46 42.0526C403.949 42.0606 404.429 41.9257 404.837 41.6658C405.244 41.4064 405.559 41.0345 405.741 40.5995C405.996 40.0453 406.116 39.4426 406.091 38.8373C406.076 38.3954 406.051 37.9501 406.026 37.507C406.014 37.2897 406.001 37.0728 405.99 36.8573C405.985 36.6412 405.911 36.4319 405.778 36.2574C405.695 36.1471 405.586 36.0582 405.459 35.9986Z" fill="#3A3B7B"/>
<path d="M409.963 39.328C409.95 39.3437 409.937 39.36 409.923 39.3769C409.819 38.8038 409.723 38.2308 409.627 37.657C409.593 37.4511 409.558 37.2443 409.523 37.0381L409.519 37.0151L409.506 36.9953C409.482 36.9579 409.48 36.9212 409.48 36.843V36.8339L409.479 36.825C409.453 36.6635 409.376 36.5132 409.26 36.3937C409.144 36.2746 408.994 36.1917 408.828 36.1558C408.663 36.1166 408.489 36.1252 408.328 36.1806C408.169 36.2358 408.029 36.335 407.928 36.4658C407.843 36.5662 407.774 36.6776 407.722 36.7965C407.605 37.0528 407.486 37.3097 407.367 37.5674L407.365 37.5718C407.068 38.215 406.769 38.8624 406.479 39.515L406.478 39.5171C406.3 39.9402 406.153 40.3861 406.006 40.8305C405.977 40.9193 405.948 41.0079 405.918 41.0964C405.865 41.2366 405.842 41.3856 405.85 41.5346C405.84 41.6679 405.874 41.8009 405.945 41.9156C406.019 42.0326 406.128 42.1247 406.259 42.1789C406.397 42.2371 406.552 42.2494 406.698 42.214C406.844 42.1786 406.974 42.0977 407.067 41.9838C407.186 41.8436 407.288 41.6907 407.371 41.5287C407.617 41.0459 407.852 40.5573 408.086 40.0708C408.177 39.8826 408.264 39.7141 408.365 39.5306C408.371 39.5532 408.378 39.5753 408.386 39.5974C408.491 40.0405 408.668 40.465 408.91 40.8552C408.956 40.9378 409.02 41.0101 409.098 41.067C409.176 41.1245 409.267 41.1649 409.363 41.1854C409.46 41.2059 409.56 41.206 409.656 41.1857C409.753 41.1654 409.844 41.125 409.922 41.0677L410.078 40.9559L411.285 39.9798L411.214 40.4166C411.116 41.0168 411.018 41.6121 410.915 42.2075C410.848 42.4714 410.848 42.7471 410.915 43.0109C410.945 43.1594 411.02 43.2961 411.13 43.4036C411.242 43.5119 411.385 43.5855 411.541 43.6149C411.697 43.6443 411.858 43.628 412.004 43.5682C412.148 43.5093 412.27 43.4108 412.356 43.2853C412.555 43.0482 412.679 42.7612 412.713 42.4585C412.764 42.0309 412.822 41.5975 412.88 41.1642C412.947 40.6648 413.013 40.1655 413.07 39.6759L413.07 39.6744C413.124 39.1383 413.15 38.6001 413.149 38.0615C413.16 37.8914 413.116 37.7218 413.022 37.5769C412.928 37.4315 412.788 37.3185 412.623 37.2538C412.451 37.1788 412.258 37.1587 412.074 37.1967C411.89 37.2343 411.724 37.3271 411.6 37.4615C411.377 37.6592 411.168 37.8707 410.974 38.0948L410.973 38.0963C410.762 38.3493 410.551 38.6073 410.343 38.8636C410.216 39.0195 410.089 39.1749 409.963 39.328Z" fill="#3A3B7B"/>
</g>
<g clip-path="url(#clip4_211_2045)">
<path d="M542.078 25.5499C542.078 25.8744 542.344 26.1374 542.673 26.1374H543.267C543.596 26.1374 543.862 25.8744 543.862 25.5499C543.862 25.2254 543.596 24.9623 543.267 24.9623H542.673C542.344 24.9623 542.078 25.2254 542.078 25.5499Z" fill="#212326"/>
<path d="M524.828 43.7642H527.718L526.877 42.9333C526.653 42.7129 526.351 42.5891 526.035 42.5891H524.828C520.229 42.5891 516.501 38.9063 516.501 34.3633C516.501 29.8203 520.229 26.1374 524.828 26.1374H534.345C538.944 26.1374 542.673 29.8203 542.673 34.3633C542.673 38.9063 538.944 42.5891 534.345 42.5891H530.785C530.312 42.5891 529.858 42.4034 529.523 42.0728L528.538 41.0993C527.98 40.5484 527.224 40.2389 526.435 40.2389H524.828C521.543 40.2389 518.88 37.6083 518.88 34.3633C518.88 31.1182 521.543 28.4877 524.828 28.4877H534.345C537.63 28.4877 540.293 31.1182 540.293 34.3633C540.293 37.6083 537.63 40.2389 534.345 40.2389H532.059C531.586 40.2389 531.132 40.0531 530.797 39.7226L529.812 38.7491C529.254 38.1981 528.498 37.8886 527.709 37.8886H524.828C522.857 37.8886 521.259 36.3102 521.259 34.3633C521.259 32.4163 522.857 30.8379 524.828 30.8379H534.345C536.316 30.8379 537.914 32.4163 537.914 34.3633C537.914 36.2865 536.355 37.8501 534.417 37.8879L534.417 37.8886H533.546C533.073 37.8886 532.619 37.7029 532.285 37.3724L531.299 36.3988C530.841 35.9468 530.25 35.6573 529.617 35.5679L529.587 35.5384H524.828C524.171 35.5384 523.639 35.0123 523.639 34.3633C523.639 33.7143 524.171 33.1881 524.828 33.1881H534.345C535.002 33.1881 535.535 33.7143 535.535 34.3633C535.535 35.0123 535.002 35.5384 534.345 35.5384H531.966L532.807 36.3693C533.03 36.5897 533.333 36.7135 533.648 36.7135H534.345C535.659 36.7135 536.724 35.6612 536.724 34.3633C536.724 33.0653 535.659 32.013 534.345 32.013H524.828C523.514 32.013 522.449 33.0653 522.449 34.3633C522.449 35.6612 523.514 36.7135 524.828 36.7135H529.196C529.669 36.7135 530.123 36.8992 530.458 37.2298L531.443 38.2033C532.001 38.7542 532.758 39.0637 533.546 39.0637H534.643V39.0547C537.132 38.9031 539.104 36.8606 539.104 34.3633C539.104 31.7673 536.973 29.6628 534.345 29.6628H524.828C522.2 29.6628 520.07 31.7673 520.07 34.3633C520.07 36.9593 522.2 39.0637 524.828 39.0637H527.709C528.182 39.0637 528.636 39.2495 528.971 39.58L529.956 40.5535C530.514 41.1044 531.271 41.414 532.059 41.414H534.345C538.287 41.414 541.483 38.2573 541.483 34.3633C541.483 30.4692 538.287 27.3125 534.345 27.3125H524.828C520.886 27.3125 517.69 30.4692 517.69 34.3633C517.69 38.2573 520.886 41.414 524.828 41.414H526.435C526.908 41.414 527.362 41.5997 527.697 41.9302L528.682 42.9037C529.24 43.4547 529.996 43.7642 530.785 43.7642H534.345C539.601 43.7642 543.862 39.5553 543.862 34.3633C543.862 29.1713 539.601 24.9623 534.345 24.9623L524.828 24.9623C519.572 24.9623 515.311 29.1713 515.311 34.3633C515.311 39.5553 519.572 43.7642 524.828 43.7642Z" fill="#212326"/>
</g>
<g clip-path="url(#clip5_211_2045)">
<path d="M647.86 27.0516C646.446 27.0516 645.089 27.6133 644.09 28.6133L640.826 31.8767C639.826 32.8766 639.264 34.2328 639.264 35.6469C639.264 38.5917 641.652 40.9789 644.596 40.9789C646.011 40.9789 647.367 40.4171 648.367 39.4172L650.624 37.1599C650.624 37.1599 650.624 37.1599 650.624 37.1599L657.201 30.5829C657.679 30.1053 658.326 29.837 659.002 29.837C660.132 29.837 661.091 30.574 661.423 31.5938L663.499 29.5181C662.552 28.035 660.892 27.0516 659.002 27.0516C657.588 27.0516 656.231 27.6133 655.231 28.6133L646.397 37.4476C645.92 37.9252 645.272 38.1934 644.596 38.1934C643.19 38.1934 642.05 37.0534 642.05 35.6469C642.05 34.9715 642.318 34.3238 642.796 33.8463L646.059 30.5829C646.537 30.1053 647.184 29.837 647.86 29.837C648.991 29.837 649.949 30.574 650.282 31.5938L652.357 29.5181C651.41 28.035 649.75 27.0516 647.86 27.0516Z" fill="#394149"/>
<path d="M657.539 37.4476C657.062 37.9252 656.414 38.1934 655.738 38.1934C654.608 38.1934 653.649 37.4567 653.317 36.4371L651.241 38.5127C652.188 39.9956 653.849 40.9789 655.738 40.9789C657.153 40.9789 658.509 40.4171 659.509 39.4172L668.343 30.5829C668.821 30.1053 669.468 29.837 670.144 29.837C671.55 29.837 672.69 30.9772 672.69 32.3836C672.69 33.059 672.422 33.7067 671.944 34.1842L668.681 37.4476C668.203 37.9252 667.556 38.1934 666.88 38.1934C665.75 38.1934 664.791 37.4566 664.459 36.4368L662.383 38.5125C663.33 39.9956 664.99 40.9789 666.88 40.9789C668.294 40.9789 669.651 40.4171 670.651 39.4172L673.914 36.1538C674.914 35.1539 675.476 33.7977 675.476 32.3836C675.476 29.4388 673.088 27.0516 670.144 27.0516C668.73 27.0516 667.373 27.6133 666.373 28.6133L657.539 37.4476Z" fill="#394149"/>
</g>
<g clip-path="url(#clip6_211_2045)">
<path d="M804.997 30.9996C805.001 30.9706 805.001 30.9412 804.997 30.9122C805.001 30.8885 805.001 30.8644 804.997 30.8407L804.713 28.7985C804.672 28.5542 804.563 28.3258 804.397 28.1389L804.348 28.0833L804.259 27.9959L799.347 23.8479L799.485 23.983C799.372 23.8508 799.231 23.7451 799.071 23.6735C798.911 23.602 798.737 23.5666 798.561 23.5698H797.07C796.827 23.5651 796.59 23.6407 796.397 23.7844C796.194 23.6416 795.95 23.5664 795.7 23.5698H794.209C794.013 23.5667 793.82 23.6143 793.649 23.7078C793.478 23.8013 793.336 23.9374 793.236 24.1022C793.082 24.3377 793.024 24.6214 793.074 24.8969L793.26 26.1842C793.137 26.1155 792.997 26.0799 792.855 26.0809H785.633C785.374 26.0825 785.121 26.1569 784.904 26.2954C784.693 26.4243 784.525 26.6089 784.417 26.8278L783.858 26.359C783.638 26.1593 783.347 26.0511 783.047 26.057H771.716C771.456 26.0617 771.202 26.1329 770.978 26.2636C770.673 26.4389 770.449 26.7239 770.354 27.0583L766.756 38.8585C766.688 39.0529 766.682 39.2626 766.737 39.4608C766.791 39.6589 766.905 39.8366 767.064 39.971C767.105 40.0053 767.148 40.0371 767.193 40.0663C767.193 40.0663 767.12 40.0186 767.08 39.9789L771.992 44.1348C772.199 44.3224 772.471 44.4272 772.753 44.4288H784.174C784.435 44.4222 784.689 44.3482 784.912 44.2143C785.037 44.1469 785.15 44.0581 785.244 43.952L785.285 43.8964L785.349 43.817L785.398 43.7295L785.933 44.1825C786.138 44.3626 786.404 44.4617 786.679 44.4606H798.123C798.384 44.4521 798.638 44.3783 798.861 44.2461C798.984 44.1746 799.096 44.0863 799.193 43.9838L799.234 43.9282L799.299 43.8488C799.333 43.7985 799.363 43.7453 799.388 43.6898C799.414 43.6416 799.436 43.5911 799.453 43.5389L802.735 32.7637V32.6683C802.739 32.6314 802.739 32.5941 802.735 32.5571V32.4856C802.739 32.4619 802.739 32.4378 802.735 32.414C802.739 32.3638 802.739 32.3133 802.735 32.2631H803.789C803.881 32.2713 803.973 32.2713 804.065 32.2631H804.138C804.197 32.2457 804.254 32.2217 804.308 32.1916H804.389L804.535 32.0803L804.6 32.0326L804.713 31.8896V31.8419L804.794 31.7068C804.79 31.6806 804.79 31.6537 804.794 31.6274C804.79 31.6145 804.79 31.6005 804.794 31.5876C804.811 31.5411 804.825 31.4932 804.835 31.4446C804.831 31.4289 804.831 31.4126 804.835 31.3969C804.831 31.3733 804.831 31.3491 804.835 31.3254C804.835 31.3254 804.997 31.0155 804.997 30.9996Z" fill="black"/>
<path d="M783.38 26.9629C783.423 27.0011 783.453 27.0512 783.466 27.1067C783.479 27.1621 783.474 27.2201 783.453 27.2728L779.862 39.0651C779.817 39.1939 779.724 39.3015 779.603 39.3671C779.504 39.432 779.389 39.4704 779.27 39.4784H767.858C767.76 39.4738 767.668 39.4342 767.599 39.3671C767.557 39.3296 767.528 39.2808 767.515 39.227C767.502 39.1732 767.506 39.1169 767.526 39.0651L771.124 27.2728C771.166 27.1425 771.255 27.032 771.376 26.9629C771.476 26.9027 771.59 26.8672 771.708 26.8596H783.12C783.217 26.8605 783.31 26.8975 783.38 26.9629ZM777.422 36.6892L779.57 29.6488H773.556L771.416 36.6892H777.422ZM794.273 27.0821C794.312 27.1265 794.361 27.1617 794.416 27.1851C794.471 27.2084 794.53 27.2194 794.59 27.2172H796.073C796.129 27.2178 796.185 27.2042 796.235 27.1778C796.284 27.1513 796.326 27.113 796.357 27.0662C796.383 27.0297 796.401 26.9884 796.411 26.9447C796.421 26.9011 796.422 26.8559 796.413 26.812L796.121 24.7141C796.094 24.617 796.044 24.5274 795.976 24.4519C795.937 24.4075 795.888 24.3724 795.833 24.349C795.779 24.3256 795.719 24.3146 795.659 24.3168H794.176C794.12 24.3163 794.064 24.3299 794.014 24.3563C793.965 24.3827 793.923 24.4211 793.892 24.4678C793.836 24.579 793.811 24.6506 793.836 24.7141L794.136 26.812C794.151 26.9141 794.199 27.0088 794.273 27.0821ZM798.983 24.6982C798.955 24.6011 798.905 24.5115 798.837 24.436C798.799 24.3918 798.752 24.3566 798.699 24.3332C798.645 24.3098 798.587 24.2987 798.529 24.3009H797.037C796.982 24.2994 796.927 24.3126 796.878 24.3392C796.83 24.3657 796.79 24.4047 796.762 24.4519C796.708 24.5224 796.685 24.611 796.697 24.6982L796.997 26.7961C797.016 26.8971 797.063 26.9908 797.135 27.0662C797.174 27.1097 797.223 27.1443 797.278 27.1676C797.332 27.1909 797.391 27.2024 797.451 27.2013H798.942C798.998 27.202 799.052 27.1885 799.101 27.162C799.149 27.1355 799.189 27.097 799.218 27.0503C799.246 27.0148 799.266 26.9735 799.275 26.9295C799.285 26.8855 799.285 26.8399 799.274 26.7961L798.983 24.6982ZM792.968 27.8768L792.823 26.8437H785.633C785.52 26.8498 785.411 26.8855 785.317 26.947C785.257 26.979 785.205 27.0232 785.165 27.0767C785.124 27.1302 785.096 27.1917 785.082 27.2569L784.482 29.2276C784.458 29.2769 784.45 29.3321 784.459 29.386C784.467 29.4399 784.492 29.4899 784.531 29.5296C784.599 29.5926 784.688 29.6293 784.782 29.6329H793.52L791.372 36.6733H782.658C782.546 36.6758 782.437 36.7088 782.342 36.7686C782.228 36.84 782.144 36.9504 782.107 37.0785L781.499 39.0492C781.479 39.0998 781.474 39.1547 781.484 39.208C781.494 39.2613 781.519 39.3109 781.556 39.3512C781.622 39.4184 781.712 39.4582 781.807 39.4624H793.252C793.37 39.4524 793.485 39.4143 793.584 39.3512C793.704 39.2853 793.794 39.1774 793.836 39.0492L797.127 28.2741H793.422C793.364 28.2752 793.305 28.2645 793.251 28.2426C793.196 28.2208 793.147 28.1882 793.106 28.1469C793.039 28.0749 792.992 27.9874 792.968 27.8926V27.8768Z" fill="white"/>
</g>
<defs>
<clipPath id="clip0_211_2045">
<rect width="27.8428" height="27.8428" fill="white" transform="translate(2.78561 20.1944) scale(1.00043)"/>
</clipPath>
<clipPath id="clip1_211_2045">
<rect width="27.8428" height="19.4899" fill="white" transform="translate(130.917 24.266) scale(1.00043)"/>
</clipPath>
<clipPath id="clip2_211_2045">
<rect width="38.2838" height="20.8821" fill="white" transform="translate(254.174 23.5696) scale(1.00043)"/>
</clipPath>
<clipPath id="clip3_211_2045">
<rect width="32.7153" height="20.186" fill="white" transform="translate(385.091 24.266) scale(1.00043)"/>
</clipPath>
<clipPath id="clip4_211_2045">
<rect width="28.5388" height="18.7939" fill="white" transform="translate(515.311 24.9623) scale(1.00043)"/>
</clipPath>
<clipPath id="clip5_211_2045">
<rect width="36.1956" height="13.9214" fill="white" transform="translate(639.264 27.0516) scale(1.00043)"/>
</clipPath>
<clipPath id="clip6_211_2045">
<rect width="38.2838" height="20.8821" fill="white" transform="translate(766.7 23.5696) scale(1.00043)"/>
</clipPath>
</defs>
</svg>
