<svg width="46" height="39" viewBox="0 0 46 39" fill="none" xmlns="http://www.w3.org/2000/svg">
<path d="M45.2679 26.4643C45.2679 33.3876 39.6554 39 32.7322 39L13.9287 39C12.0055 39 10.4465 37.441 10.4465 35.5179L10.4465 11.8393C10.4465 7.99308 13.5645 4.87508 17.4108 4.87508L41.7857 4.87508C43.7089 4.87508 45.2679 6.43409 45.2679 8.35721L45.2679 26.4643Z" fill="#E8F5E9"/>
<path d="M18.7454 13.2396C18.5281 13.2396 18.3515 13.0632 18.3515 12.8456V12.1761C18.3515 11.9588 18.5278 11.7822 18.7454 11.7822C18.9627 11.7822 19.1394 11.9585 19.1394 12.1761V12.8456C19.1394 13.0632 18.9627 13.2396 18.7454 13.2396Z" fill="#103E13"/>
<path d="M17.089 13.2396C16.8717 13.2396 16.6951 13.0632 16.6951 12.8456V12.1761C16.6951 11.9588 16.8715 11.7822 17.089 11.7822C17.3063 11.7822 17.483 11.9585 17.483 12.1761V12.8456C17.4827 13.0632 17.3066 13.2396 17.089 13.2396Z" fill="#103E13"/>
<path d="M15.4329 13.2396C15.2156 13.2396 15.039 13.0632 15.039 12.8456V12.1761C15.039 11.9588 15.2153 11.7822 15.4329 11.7822C15.6502 11.7822 15.8269 11.9585 15.8269 12.1761V12.8456C15.8269 13.0632 15.6505 13.2396 15.4329 13.2396Z" fill="#103E13"/>
<path d="M18.7454 15.9775C18.5281 15.9775 18.3515 15.8011 18.3515 15.5836V14.9143C18.3515 14.697 18.5278 14.5204 18.7454 14.5204C18.9627 14.5204 19.1394 14.6968 19.1394 14.9143V15.5836C19.1394 15.8011 18.9627 15.9775 18.7454 15.9775Z" fill="#103E13"/>
<path d="M17.089 15.9775C16.8717 15.9775 16.6951 15.8011 16.6951 15.5836V14.9143C16.6951 14.697 16.8715 14.5204 17.089 14.5204C17.3063 14.5204 17.483 14.6968 17.483 14.9143V15.5836C17.4827 15.8011 17.3066 15.9775 17.089 15.9775Z" fill="#103E13"/>
<path d="M15.4329 15.9775C15.2156 15.9775 15.039 15.8011 15.039 15.5836V14.9143C15.039 14.697 15.2153 14.5204 15.4329 14.5204C15.6502 14.5204 15.8269 14.6968 15.8269 14.9143V15.5836C15.8269 15.8011 15.6505 15.9775 15.4329 15.9775Z" fill="#103E13"/>
<path d="M18.7454 18.7153C18.5281 18.7153 18.3515 18.5389 18.3515 18.3213V17.6518C18.3515 17.4345 18.5278 17.2579 18.7454 17.2579C18.9627 17.2579 19.1394 17.4343 19.1394 17.6518V18.3213C19.1394 18.5389 18.9627 18.7153 18.7454 18.7153Z" fill="#103E13"/>
<path d="M17.089 18.7153C16.8717 18.7153 16.6951 18.5389 16.6951 18.3213V17.6518C16.6951 17.4345 16.8715 17.2579 17.089 17.2579C17.3063 17.2579 17.483 17.4343 17.483 17.6518V18.3213C17.4827 18.5389 17.3066 18.7153 17.089 18.7153Z" fill="#103E13"/>
<path d="M15.4329 18.7153C15.2156 18.7153 15.039 18.5389 15.039 18.3213V17.6518C15.039 17.4345 15.2153 17.2579 15.4329 17.2579C15.6502 17.2579 15.8269 17.4343 15.8269 17.6518V18.3213C15.8269 18.5389 15.6505 18.7153 15.4329 18.7153Z" fill="#103E13"/>
<path d="M18.7454 21.4525C18.5281 21.4525 18.3515 21.2761 18.3515 21.0586V20.3891C18.3515 20.1718 18.5278 19.9951 18.7454 19.9951C18.9627 19.9951 19.1394 20.1715 19.1394 20.3891V21.0586C19.1394 21.2761 18.9627 21.4525 18.7454 21.4525Z" fill="#103E13"/>
<path d="M17.089 21.4525C16.8717 21.4525 16.6951 21.2761 16.6951 21.0586V20.3891C16.6951 20.1718 16.8715 19.9951 17.089 19.9951C17.3063 19.9951 17.483 20.1715 17.483 20.3891V21.0586C17.4827 21.2761 17.3066 21.4525 17.089 21.4525Z" fill="#103E13"/>
<path d="M15.4329 21.4525C15.2156 21.4525 15.039 21.2761 15.039 21.0586V20.3891C15.039 20.1718 15.2153 19.9951 15.4329 19.9951C15.6502 19.9951 15.8269 20.1715 15.8269 20.3891V21.0586C15.8269 21.2761 15.6505 21.4525 15.4329 21.4525Z" fill="#103E13"/>
<path d="M18.7454 24.1905C18.5281 24.1905 18.3515 24.0141 18.3515 23.7965V23.1273C18.3515 22.91 18.5278 22.7333 18.7454 22.7333C18.9627 22.7333 19.1394 22.9097 19.1394 23.1273V23.7965C19.1394 24.0138 18.9627 24.1905 18.7454 24.1905Z" fill="#103E13"/>
<path d="M17.089 24.1905C16.8717 24.1905 16.6951 24.0141 16.6951 23.7965V23.1273C16.6951 22.91 16.8715 22.7333 17.089 22.7333C17.3063 22.7333 17.483 22.9097 17.483 23.1273V23.7965C17.4827 24.0138 17.3066 24.1905 17.089 24.1905Z" fill="#103E13"/>
<path d="M15.4329 24.1905C15.2156 24.1905 15.039 24.0141 15.039 23.7965L15.0392 23.1273C15.0392 22.91 15.2156 22.7333 15.4332 22.7333C15.6505 22.7333 15.8271 22.9097 15.8271 23.1273V23.7965C15.8269 24.0138 15.6505 24.1905 15.4329 24.1905Z" fill="#103E13"/>
<path d="M4.17899 26.9149C4.17899 27.1322 4.35536 27.3089 4.57294 27.3089H28.5633C28.7806 27.3089 28.9572 27.1325 28.9572 26.9149C28.9572 26.6976 28.7809 26.521 28.5633 26.521H27.835V15.2101C27.835 14.9928 27.6587 14.8162 27.4411 14.8162L21.0091 14.8164V6.66188C21.0091 6.52397 20.9371 6.3965 20.8195 6.32507C20.7022 6.25337 20.5555 6.24897 20.4335 6.31243L13.1208 10.1198C12.9903 10.1876 12.909 10.3223 12.909 10.4692V17.5921H5.83189C5.61459 17.5921 5.43794 17.7684 5.43794 17.986V26.521H4.57206C4.35476 26.5208 4.17866 26.6971 4.17866 26.9147L4.17899 26.9149ZM21.0092 20.783H27.0475V26.5213L21.0092 26.521V20.783ZM21.0092 18.0454H27.0475V19.9953L21.0092 19.9951V18.0454ZM21.0092 15.6039H27.0475V17.258H21.0092V15.6039ZM13.6965 10.7084L20.2211 7.31124V26.5207H13.6965V10.7084ZM8.17328 23.3745C8.17328 22.557 8.82106 21.8916 9.61747 21.8916C10.4139 21.8916 11.0619 22.5567 11.0619 23.3745V26.5212H8.17328V23.3745ZM6.22582 18.3798H12.9089V26.521H11.8498V23.3744C11.8498 22.1225 10.8488 21.1039 9.61747 21.1039C8.38672 21.1039 7.38567 22.1222 7.38567 23.3744V26.521H6.22582V18.3798Z" fill="#103E13"/>
</svg>
