<svg width="46" height="39" viewBox="0 0 46 39" fill="none" xmlns="http://www.w3.org/2000/svg">
<path d="M45.2679 26.4643C45.2679 33.3876 39.6554 39 32.7322 39L13.9287 39C12.0055 39 10.4465 37.441 10.4465 35.5179L10.4465 11.8393C10.4465 7.99308 13.5645 4.87508 17.4108 4.87508L41.7857 4.87508C43.7089 4.87508 45.2679 6.43409 45.2679 8.35721L45.2679 26.4643Z" fill="#E8F5E9"/>
<path d="M16.7073 6.96427C14.2202 6.96427 12.1954 9.0075 12.1954 11.5052C12.1954 13.0853 13.0068 14.4804 14.232 15.2936C12.7522 15.7884 11.4718 16.7132 10.5326 17.923C10.0134 17.5236 9.43319 17.2024 8.80774 16.9723C9.75618 16.2682 10.376 15.1371 10.376 13.8658C10.376 11.7475 8.6627 10.0134 6.55719 10.0134C4.45167 10.0134 2.7384 11.7475 2.7384 13.8658C2.7384 15.1378 3.35871 16.2694 4.30795 16.9735C1.79484 17.9009 0 20.3289 0 23.1863V25.1935C0.000257223 25.3466 0.0614644 25.4932 0.16999 25.6009C0.278515 25.7089 0.425363 25.7691 0.57838 25.7686H9.38467C9.40602 25.7709 9.42737 25.7722 9.44871 25.7719H23.9663C23.9877 25.7722 24.0093 25.7709 24.0304 25.7686H32.8373C33.1539 25.7673 33.4103 25.5104 33.4111 25.1935V23.1863C33.4111 20.3289 31.6193 17.9009 29.1075 16.9733C30.0568 16.2694 30.6771 15.1375 30.6771 13.8656C30.6771 11.7472 28.9638 10.0131 26.8583 10.0131C24.7528 10.0131 23.0395 11.7472 23.0395 13.8656C23.0395 15.1368 23.6596 16.2681 24.608 16.972C23.9813 17.2027 23.4008 17.5249 22.8808 17.9253C21.9421 16.7148 20.6635 15.7887 19.1837 15.2936C20.4086 14.4804 21.2203 13.0853 21.2203 11.5052C21.2203 9.0075 19.1945 6.96427 16.7074 6.96427H16.7073ZM16.7073 8.11641C18.5674 8.11641 20.067 9.62604 20.067 11.5052C20.067 13.3697 18.5908 14.8646 16.7512 14.8886C16.7366 14.8886 16.7222 14.8866 16.7073 14.8866C16.6924 14.8866 16.6782 14.8886 16.6633 14.8886C14.8238 14.865 13.3486 13.3698 13.3486 11.5052C13.3486 9.62577 14.8469 8.11641 16.707 8.11641H16.7073ZM6.55725 11.1654C8.03318 11.1654 9.22389 12.3633 9.22389 13.8658C9.22389 15.3582 8.04858 16.5509 6.58655 16.5671C6.57678 16.5671 6.56726 16.5661 6.55723 16.5661C6.54746 16.5661 6.53794 16.5671 6.52791 16.5671C5.06588 16.5509 3.89057 15.3579 3.89057 13.8658C3.89057 12.3634 5.08129 11.1654 6.55721 11.1654H6.55725ZM26.8579 11.1654C28.3339 11.1654 29.5246 12.3633 29.5246 13.8658C29.5246 15.3582 28.3493 16.5509 26.8872 16.5671C26.8775 16.5671 26.868 16.5661 26.8579 16.5661C26.8481 16.5661 26.8386 16.5671 26.8286 16.5671C25.3666 16.5509 24.1913 15.3579 24.1913 13.8658C24.1913 12.3634 25.382 11.1654 26.8579 11.1654H26.8579ZM16.6632 16.0407C16.6778 16.0409 16.6922 16.0427 16.7071 16.0427C16.7218 16.0427 16.7362 16.0407 16.7511 16.0407C20.4403 16.0643 23.3927 19.0422 23.3927 22.7698L23.3924 24.6194H10.0224V22.7698C10.0224 19.0418 12.9739 16.0644 16.6626 16.0407H16.6632ZM6.51314 17.7206C6.5278 17.7208 6.5422 17.7226 6.55712 17.7226C6.57203 17.7226 6.58618 17.7206 6.6011 17.7206C7.84889 17.7306 8.98767 18.1609 9.89444 18.8807C9.24558 20.0287 8.87035 21.3539 8.87035 22.7702V24.6154H1.15167V23.1863C1.15167 20.1567 3.53364 17.7442 6.51301 17.7203L6.51314 17.7206ZM26.8138 17.7206C26.8287 17.7208 26.8429 17.7226 26.8578 17.7226C26.8727 17.7226 26.8869 17.7206 26.9018 17.7206C29.8812 17.7442 32.2631 20.1571 32.2631 23.1865V24.6154H24.5405L24.5402 22.7702C24.5402 21.3547 24.166 20.0305 23.5185 18.8827C24.4255 18.1619 25.565 17.7306 26.8139 17.7206H26.8138Z" fill="#103E13"/>
</svg>
