<svg width="123" height="23" viewBox="0 0 123 23" fill="none" xmlns="http://www.w3.org/2000/svg">
<g clip-path="url(#clip0_0_35)">
<path opacity="0.1" fill-rule="evenodd" clip-rule="evenodd" d="M0 11.1818C0 5.00627 5.00627 0 11.1818 0C17.3574 0 22.3636 5.00627 22.3636 11.1818C22.3636 17.3574 17.3574 22.3636 11.1818 22.3636C5.00627 22.3636 0 17.3574 0 11.1818Z" fill="white"/>
<path fill-rule="evenodd" clip-rule="evenodd" d="M11.1823 5.21813C9.56268 5.21813 9.35941 5.22521 8.72329 5.25416C8.0884 5.28323 7.65504 5.38374 7.27585 5.53122C6.88361 5.68354 6.55089 5.8873 6.2194 6.21891C5.88767 6.55039 5.68391 6.88311 5.5311 7.27523C5.38325 7.65454 5.28261 8.08803 5.25403 8.72267C5.22558 9.35879 5.21813 9.56218 5.21813 11.1818C5.21813 12.8015 5.22533 13.0041 5.25416 13.6402C5.28335 14.2751 5.38387 14.7085 5.53122 15.0877C5.68367 15.4799 5.88743 15.8126 6.21903 16.1441C6.55039 16.4758 6.88311 16.6801 7.2751 16.8324C7.65454 16.9799 8.08803 17.0804 8.72279 17.1095C9.35892 17.1384 9.56206 17.1455 11.1816 17.1455C12.8013 17.1455 13.004 17.1384 13.6401 17.1095C14.275 17.0804 14.7088 16.9799 15.0883 16.8324C15.4804 16.6801 15.8126 16.4758 16.144 16.1441C16.4757 15.8126 16.6795 15.4799 16.8323 15.0878C16.9789 14.7085 17.0795 14.275 17.1094 13.6404C17.1379 13.0042 17.1454 12.8015 17.1454 11.1818C17.1454 9.56218 17.1379 9.35892 17.1094 8.72279C17.0795 8.0879 16.9789 7.65454 16.8323 7.27535C16.6795 6.88311 16.4757 6.55039 16.144 6.21891C15.8123 5.88718 15.4805 5.68342 15.0879 5.53122C14.7077 5.38374 14.2741 5.28323 13.6392 5.25416C13.0031 5.22521 12.8006 5.21813 11.1805 5.21813H11.1823ZM10.6473 6.29282C10.8061 6.29257 10.9833 6.29282 11.1823 6.29282C12.7746 6.29282 12.9633 6.29853 13.5921 6.32711C14.1736 6.3537 14.4892 6.45085 14.6994 6.53248C14.9777 6.64057 15.1761 6.76979 15.3847 6.97852C15.5934 7.18725 15.7227 7.38604 15.831 7.66434C15.9126 7.87431 16.0099 8.18989 16.0364 8.77135C16.0649 9.40003 16.0712 9.58888 16.0712 11.1804C16.0712 12.772 16.0649 12.9608 16.0364 13.5895C16.0098 14.171 15.9126 14.4866 15.831 14.6965C15.7229 14.9748 15.5934 15.173 15.3847 15.3816C15.176 15.5903 14.9778 15.7196 14.6994 15.8276C14.4894 15.9096 14.1736 16.0066 13.5921 16.0331C12.9634 16.0617 12.7746 16.0679 11.1823 16.0679C9.58986 16.0679 9.40114 16.0617 8.77246 16.0331C8.191 16.0063 7.87542 15.9092 7.66508 15.8275C7.38677 15.7194 7.18798 15.5902 6.97925 15.3815C6.77052 15.1728 6.64131 14.9745 6.53297 14.696C6.45134 14.4861 6.35406 14.1705 6.3276 13.589C6.29902 12.9604 6.2933 12.7715 6.2933 11.1789C6.2933 9.58639 6.29902 9.39853 6.3276 8.76986C6.35418 8.1884 6.45134 7.87282 6.53297 7.6626C6.64106 7.3843 6.77052 7.18551 6.97925 6.97678C7.18798 6.76805 7.38677 6.63883 7.66508 6.53049C7.8753 6.44849 8.191 6.35158 8.77246 6.32487C9.32261 6.30002 9.53581 6.29257 10.6473 6.29133V6.29282ZM14.3657 7.28304C13.9706 7.28304 13.65 7.60322 13.65 7.99844C13.65 8.39353 13.9706 8.71408 14.3657 8.71408C14.7608 8.71408 15.0813 8.39353 15.0813 7.99844C15.0813 7.60334 14.7608 7.28304 14.3657 7.28304ZM11.1823 8.1192C9.491 8.1192 8.11972 9.49048 8.11972 11.1818C8.11972 12.8731 9.491 14.2438 11.1823 14.2438C12.8737 14.2438 14.2444 12.8731 14.2444 11.1818C14.2444 9.49048 12.8737 8.1192 11.1823 8.1192ZM11.1823 9.19391C12.2801 9.19391 13.1702 10.0839 13.1702 11.1818C13.1702 12.2796 12.2801 13.1697 11.1823 13.1697C10.0844 13.1697 9.19441 12.2796 9.19441 11.1818C9.19441 10.0839 10.0844 9.19391 11.1823 9.19391Z" fill="white"/>
<path opacity="0.1" fill-rule="evenodd" clip-rule="evenodd" d="M33.5455 11.1818C33.5455 5.00627 38.5517 0 44.7273 0C50.9028 0 55.9091 5.00627 55.9091 11.1818C55.9091 17.3574 50.9028 22.3636 44.7273 22.3636C38.5517 22.3636 33.5455 17.3574 33.5455 11.1818Z" fill="white"/>
<path fill-rule="evenodd" clip-rule="evenodd" d="M50.6909 11.1735C50.6909 11.5768 50.6498 11.9795 50.5692 12.3721C50.4905 12.7554 50.374 13.1317 50.2215 13.4914C50.0724 13.8447 49.8875 14.1852 49.6714 14.5027C49.4585 14.8183 49.2133 15.1143 48.9439 15.3841C48.674 15.6528 48.3769 15.8973 48.0616 16.1111C47.743 16.3257 47.402 16.5103 47.0485 16.6601C46.6883 16.8119 46.3111 16.9282 45.9282 17.0067C45.5351 17.0876 45.1309 17.1288 44.727 17.1288C44.3228 17.1288 43.9186 17.0876 43.526 17.0067C43.1425 16.9282 42.7654 16.8119 42.4055 16.6601C42.0519 16.5103 41.7106 16.3257 41.3921 16.1111C41.0767 15.8973 40.7797 15.6528 40.5103 15.3841C40.2406 15.1143 39.9954 14.8183 39.7823 14.5027C39.5673 14.1852 39.3821 13.8447 39.2325 13.4914C39.0798 13.1317 38.9631 12.7554 38.8842 12.3721C38.8044 11.9795 38.7636 11.5768 38.7636 11.1735C38.7636 10.7699 38.8044 10.3663 38.8842 9.97454C38.9631 9.59128 39.0799 9.21443 39.2325 8.85531C39.3821 8.50172 39.5674 8.16093 39.7823 7.84337C39.9954 7.52759 40.2407 7.23213 40.5103 6.96198C40.7797 6.69328 41.0767 6.44933 41.3921 6.23589C41.7107 6.02041 42.052 5.83578 42.4055 5.68572C42.7654 5.53361 43.1425 5.41702 43.5261 5.3391C43.9186 5.25885 44.3228 5.21813 44.727 5.21813C45.1309 5.21813 45.5351 5.25885 45.9282 5.3391C46.3111 5.41704 46.6883 5.53363 47.0485 5.68572C47.402 5.83576 47.743 6.02041 48.0616 6.23589C48.377 6.44933 48.674 6.69328 48.944 6.96198C49.2133 7.23213 49.4585 7.52759 49.6714 7.84337C49.8875 8.16093 50.0724 8.50174 50.2215 8.85531C50.374 9.21443 50.4905 9.59128 50.5692 9.97454C50.6498 10.3663 50.6909 10.7699 50.6909 11.1735ZM42.5539 6.57349C41.1337 7.24319 40.0737 8.54998 39.7432 10.1249C39.8775 10.1261 41.9998 10.1528 44.445 9.50405C43.5636 7.94019 42.6218 6.66395 42.5539 6.57349ZM44.867 10.2872C42.2447 11.0711 39.7283 11.0147 39.6381 11.0112C39.6366 11.0659 39.634 11.1188 39.634 11.1735C39.634 12.48 40.1276 13.671 40.9389 14.5716C40.9371 14.569 42.3309 12.0999 45.0793 11.2125C45.1457 11.1904 45.2133 11.1706 45.2802 11.1514C45.1524 10.8624 45.0129 10.5727 44.867 10.2872ZM48.0904 7.35659C47.1938 6.56708 46.0164 6.08818 44.7269 6.08818C44.3131 6.08818 43.9116 6.1382 43.5269 6.23067C43.6032 6.33304 44.5598 7.60028 45.4308 9.19727C47.3525 8.47787 48.0779 7.37519 48.0904 7.35659ZM45.6274 11.9941C45.616 11.9978 45.6047 12.0011 45.5936 12.0051C42.5887 13.0512 41.6074 15.1593 41.5968 15.1823C42.4614 15.8537 43.5458 16.2588 44.727 16.2588C45.4323 16.2588 46.1041 16.1154 46.7153 15.8558C46.6399 15.4114 46.344 13.854 45.6274 11.9941ZM47.5729 15.3911C48.7165 14.6205 49.5287 13.3969 49.7552 11.9795C49.6504 11.9458 48.2255 11.4954 46.5816 11.7585C47.2497 13.5917 47.5211 15.0846 47.5729 15.3911ZM45.8228 9.95507C45.941 10.1976 46.0555 10.4444 46.1612 10.6925C46.1987 10.7815 46.2354 10.8687 46.2712 10.956C48.0208 10.7361 49.7445 11.106 49.8182 11.1211C49.8065 9.91552 49.3746 8.80906 48.66 7.94282C48.6504 7.95646 47.8336 9.13503 45.8228 9.95507Z" fill="white"/>
<path opacity="0.1" fill-rule="evenodd" clip-rule="evenodd" d="M67.091 11.1818C67.091 5.00627 72.0972 0 78.2728 0C84.4483 0 89.4546 5.00627 89.4546 11.1818C89.4546 17.3574 84.4483 22.3636 78.2728 22.3636C72.0972 22.3636 67.091 17.3574 67.091 11.1818Z" fill="white"/>
<path fill-rule="evenodd" clip-rule="evenodd" d="M77.9379 9.0887L77.9614 9.47562L77.5703 9.42824C76.1468 9.24663 74.9032 8.63072 73.8473 7.59631L73.3311 7.08305L73.1981 7.46207C72.9166 8.30697 73.0964 9.19925 73.6831 9.79936C73.9959 10.131 73.9255 10.1784 73.3858 9.98098C73.1981 9.91781 73.0339 9.87043 73.0182 9.89412C72.9635 9.94939 73.1512 10.6679 73.2998 10.9522C73.5032 11.347 73.9177 11.7339 74.3713 11.9629L74.7546 12.1445L74.3009 12.1524C73.8629 12.1524 73.8473 12.1603 73.8942 12.3262C74.0507 12.8394 74.6686 13.3843 75.3568 13.6211L75.8418 13.787L75.4194 14.0396C74.7937 14.4029 74.0585 14.6082 73.3233 14.624C72.9713 14.6319 72.6819 14.6634 72.6819 14.6871C72.6819 14.7661 73.6361 15.2083 74.1914 15.382C75.8574 15.8953 77.8362 15.6742 79.3223 14.7977C80.3782 14.1739 81.4341 12.9342 81.9269 11.7339C82.1928 11.0943 82.4587 9.9257 82.4587 9.36507C82.4587 9.00184 82.4822 8.95446 82.9202 8.52017C83.1783 8.26749 83.4208 7.99112 83.4677 7.91216C83.5459 7.76213 83.5381 7.76213 83.1392 7.89637C82.4744 8.13325 82.3805 8.10167 82.709 7.74634C82.9515 7.49366 83.2409 7.03568 83.2409 6.90144C83.2409 6.87775 83.1235 6.91723 82.9906 6.9883C82.8498 7.06726 82.5369 7.18571 82.3023 7.25677L81.8799 7.39101L81.4967 7.13043C81.2855 6.9883 80.9883 6.83037 80.8319 6.783C80.433 6.67245 79.8229 6.68824 79.4631 6.81458C78.4854 7.16991 77.8675 8.08588 77.9379 9.0887Z" fill="white"/>
<path opacity="0.1" fill-rule="evenodd" clip-rule="evenodd" d="M100.636 11.1818C100.636 5.00627 105.642 0 111.818 0C117.994 0 123 5.00627 123 11.1818C123 17.3574 117.994 22.3636 111.818 22.3636C105.642 22.3636 100.636 17.3574 100.636 11.1818Z" fill="white"/>
<path fill-rule="evenodd" clip-rule="evenodd" d="M116.478 7.33771C116.991 7.47854 117.395 7.89349 117.532 8.42043C117.782 9.37546 117.782 11.3681 117.782 11.3681C117.782 11.3681 117.782 13.3607 117.532 14.3158C117.395 14.8428 116.991 15.2577 116.478 15.3986C115.548 15.6545 111.818 15.6545 111.818 15.6545C111.818 15.6545 108.088 15.6545 107.158 15.3986C106.645 15.2577 106.241 14.8428 106.103 14.3158C105.854 13.3607 105.854 11.3681 105.854 11.3681C105.854 11.3681 105.854 9.37546 106.103 8.42043C106.241 7.89349 106.645 7.47854 107.158 7.33771C108.088 7.08178 111.818 7.08178 111.818 7.08178C111.818 7.08178 115.548 7.08178 116.478 7.33771ZM110.7 9.69083V13.4181L113.682 11.5545L110.7 9.69083Z" fill="white"/>
</g>
<defs>
<clipPath id="clip0_0_35">
<rect width="122.508" height="22.2742" fill="white" transform="scale(1.00401)"/>
</clipPath>
</defs>
</svg>
