<svg width="133" height="21" viewBox="0 0 133 21" fill="none" xmlns="http://www.w3.org/2000/svg">
<path d="M16.1731 11.307L11.5321 19.2555L6.89111 11.307H16.1731ZM17.4165 10.5966H5.64278L11.5321 20.6615L17.4165 10.5966Z" fill="white"/>
<path d="M24.2421 1.4208L28.8831 9.36935H19.601L24.2421 1.4208ZM24.2421 0L18.3527 10.0649H30.1314L24.2421 0Z" fill="white"/>
<path d="M0 0L4.93801 8.90239L10.3341 0.223541L0 0Z" fill="#4CAF4F"/>
<path d="M11.5322 0.779839L16.7118 9.63256H6.34251L11.5322 0.779839Z" fill="#4CAF4F"/>
<path d="M18.0457 11.5653L23.2304 20.6615H12.6144L17.8846 11.5653H18.0457Z" fill="#4CAF4F"/>
<path d="M19.1682 11.0138L24.2421 19.9709L29.3865 11.0138H19.1682Z" fill="#4CAF4F"/>
<path d="M51.6819 1.43683V18.9678H48.4804L40.8534 7.9339H40.725V18.9678H37.0185V1.43683H40.2713L47.8384 12.4622H47.9925V1.43683H51.6819Z" fill="white"/>
<path d="M60.6678 19.2246C59.3153 19.2246 58.1511 18.9507 57.1753 18.4028C56.2051 17.8493 55.4576 17.0675 54.9325 16.0574C54.4075 15.0416 54.145 13.8403 54.145 12.4536C54.145 11.1011 54.4075 9.91412 54.9325 8.89262C55.4576 7.87112 56.1966 7.07504 57.1496 6.50437C58.1083 5.9337 59.2325 5.64837 60.5223 5.64837C61.3897 5.64837 62.1972 5.78818 62.9447 6.06781C63.698 6.34173 64.3543 6.75546 64.9136 7.30901C65.4785 7.86256 65.9179 8.55878 66.2318 9.39766C66.5457 10.2308 66.7026 11.2067 66.7026 12.3252V13.3267H55.6002V11.0669H63.27C63.27 10.5419 63.1559 10.0768 62.9276 9.67158C62.6994 9.26641 62.3826 8.94969 61.9775 8.72142C61.578 8.48745 61.1129 8.37046 60.5822 8.37046C60.0286 8.37046 59.5378 8.49886 59.1098 8.75566C58.6876 9.00675 58.3566 9.3463 58.1169 9.7743C57.8772 10.1966 57.7545 10.6674 57.7488 11.1867V13.3353C57.7488 13.9858 57.8686 14.548 58.1083 15.0216C58.3537 15.4953 58.699 15.8605 59.1441 16.1173C59.5892 16.3741 60.1171 16.5025 60.7277 16.5025C61.1329 16.5025 61.5038 16.4454 61.8405 16.3313C62.1772 16.2172 62.4654 16.046 62.7051 15.8177C62.9447 15.5894 63.1274 15.3098 63.2529 14.9788L66.6256 15.2014C66.4544 16.0117 66.1034 16.7194 65.5727 17.3243C65.0477 17.9235 64.3686 18.3914 63.5354 18.7281C62.7079 19.0591 61.752 19.2246 60.6678 19.2246Z" fill="white"/>
<path d="M71.8943 5.81957L74.3082 10.4163L76.782 5.81957H80.5228L76.7136 12.3937L80.6255 18.9678H76.9019L74.3082 14.4224L71.7573 18.9678H67.9909L71.8943 12.3937L68.1278 5.81957H71.8943Z" fill="white"/>
<path d="M88.1583 19.2246C86.8116 19.2246 85.6531 18.9393 84.683 18.3686C83.7185 17.7922 82.9767 16.9933 82.4573 15.9718C81.9437 14.9503 81.6869 13.7747 81.6869 12.445C81.6869 11.0983 81.9466 9.91697 82.4659 8.90118C82.9909 7.87968 83.7356 7.0836 84.7001 6.51293C85.6645 5.93655 86.8116 5.64837 88.1412 5.64837C89.2883 5.64837 90.2926 5.85666 91.1543 6.27325C92.0161 6.68984 92.698 7.27477 93.2002 8.02806C93.7024 8.78134 93.9792 9.66588 94.0305 10.6817H90.5894C90.4924 10.0254 90.2356 9.49753 89.819 9.09806C89.4081 8.69289 88.8688 8.4903 88.2011 8.4903C87.6362 8.4903 87.1425 8.64438 86.7202 8.95254C86.3037 9.255 85.9784 9.69727 85.7444 10.2793C85.5104 10.8614 85.3934 11.5662 85.3934 12.3937C85.3934 13.2326 85.5076 13.9459 85.7358 14.5337C85.9698 15.1215 86.298 15.5694 86.7202 15.8776C87.1425 16.1858 87.6362 16.3399 88.2011 16.3399C88.6177 16.3399 88.9915 16.2543 89.3225 16.0831C89.6592 15.9119 89.936 15.6636 90.1528 15.3383C90.3754 15.0073 90.5209 14.6107 90.5894 14.1485H94.0305C93.9734 15.1529 93.6995 16.0374 93.2088 16.8021C92.7237 17.5611 92.0531 18.1546 91.1971 18.5826C90.3411 19.0106 89.3282 19.2246 88.1583 19.2246Z" fill="white"/>
<path d="M102.357 19.2246C101.005 19.2246 99.8406 18.9507 98.8648 18.4028C97.8947 17.8493 97.1471 17.0675 96.6221 16.0574C96.0971 15.0416 95.8345 13.8403 95.8345 12.4536C95.8345 11.1011 96.0971 9.91412 96.6221 8.89262C97.1471 7.87112 97.8861 7.07504 98.8391 6.50437C99.7978 5.9337 100.922 5.64837 102.212 5.64837C103.079 5.64837 103.887 5.78818 104.634 6.06781C105.388 6.34173 106.044 6.75546 106.603 7.30901C107.168 7.86256 107.607 8.55878 107.921 9.39766C108.235 10.2308 108.392 11.2067 108.392 12.3252V13.3267H97.2898V11.0669H104.96C104.96 10.5419 104.845 10.0768 104.617 9.67158C104.389 9.26641 104.072 8.94969 103.667 8.72142C103.268 8.48745 102.802 8.37046 102.272 8.37046C101.718 8.37046 101.227 8.49886 100.799 8.75566C100.377 9.00675 100.046 9.3463 99.8064 9.7743C99.5667 10.1966 99.444 10.6674 99.4383 11.1867V13.3353C99.4383 13.9858 99.5582 14.548 99.7978 15.0216C100.043 15.4953 100.388 15.8605 100.834 16.1173C101.279 16.3741 101.807 16.5025 102.417 16.5025C102.822 16.5025 103.193 16.4454 103.53 16.3313C103.867 16.2172 104.155 16.046 104.395 15.8177C104.634 15.5894 104.817 15.3098 104.942 14.9788L108.315 15.2014C108.144 16.0117 107.793 16.7194 107.262 17.3243C106.737 17.9235 106.058 18.3914 105.225 18.7281C104.397 19.0591 103.442 19.2246 102.357 19.2246Z" fill="white"/>
<path d="M114.418 11.3665V18.9678H110.772V5.81957H114.247V8.13934H114.401C114.692 7.37464 115.18 6.76973 115.865 6.32461C116.55 5.87378 117.38 5.64837 118.356 5.64837C119.269 5.64837 120.065 5.8481 120.744 6.24757C121.423 6.64704 121.951 7.21771 122.328 7.95958C122.705 8.69574 122.893 9.57457 122.893 10.5961V18.9678H119.246V11.2466C119.252 10.442 119.047 9.81425 118.63 9.36342C118.213 8.90689 117.64 8.67862 116.909 8.67862C116.419 8.67862 115.985 8.78419 115.608 8.99534C115.237 9.20649 114.946 9.51465 114.735 9.91983C114.53 10.3193 114.424 10.8015 114.418 11.3665Z" fill="white"/>
<path d="M132.76 5.81957V8.55878H124.842V5.81957H132.76ZM126.64 2.66947H130.287V14.9274C130.287 15.2641 130.338 15.5266 130.441 15.715C130.543 15.8976 130.686 16.026 130.869 16.1002C131.057 16.1744 131.274 16.2115 131.519 16.2115C131.69 16.2115 131.862 16.1972 132.033 16.1687C132.204 16.1344 132.335 16.1087 132.427 16.0916L133 18.8051C132.817 18.8622 132.561 18.9278 132.23 19.002C131.899 19.0819 131.496 19.1304 131.023 19.1475C130.144 19.1818 129.373 19.0648 128.712 18.7966C128.055 18.5284 127.544 18.1118 127.179 17.5468C126.814 16.9819 126.634 16.2685 126.64 15.4068V2.66947Z" fill="white"/>
</svg>
