<svg width="108" height="17" viewBox="0 0 108 17" fill="none" xmlns="http://www.w3.org/2000/svg">
<path d="M13.1329 9.18171L9.36424 15.6362L5.59562 9.18171H13.1329ZM14.1425 8.60483H4.58194L9.36424 16.7778L14.1425 8.60483Z" fill="#263238"/>
<path d="M19.6852 1.15373L23.4538 7.60819H15.9166L19.6852 1.15373ZM19.6852 0L14.9029 8.17296H24.4675L19.6852 0Z" fill="#263238"/>
<path d="M0 0L4.00981 7.229L8.39155 0.181522L0 0Z" fill="#4CAF4F"/>
<path d="M9.36447 0.63309L13.5705 7.82176H5.15029L9.36447 0.63309Z" fill="#4CAF4F"/>
<path d="M14.6536 9.39141L18.8637 16.7778H10.2432L14.5228 9.39141H14.6536Z" fill="#4CAF4F"/>
<path d="M15.5651 8.94369L19.6853 16.2171L23.8627 8.94369H15.5651Z" fill="#4CAF4F"/>
<path d="M41.9671 1.16663V15.4023H39.3674L33.1741 6.44244H33.0698V15.4023H30.06V1.16663H32.7014L38.8461 10.1195H38.9712V1.16663H41.9671Z" fill="#263238"/>
<path d="M49.2639 15.6108C48.1656 15.6108 47.2203 15.3884 46.4279 14.9435C45.6401 14.494 45.0331 13.8592 44.6067 13.0389C44.1804 12.2141 43.9672 11.2386 43.9672 10.1126C43.9672 9.01431 44.1804 8.05044 44.6067 7.22095C45.0331 6.39147 45.6332 5.74502 46.407 5.28162C47.1855 4.81822 48.0984 4.58652 49.1457 4.58652C49.8501 4.58652 50.5058 4.70006 51.1129 4.92712C51.7246 5.14956 52.2575 5.48552 52.7116 5.93502C53.1704 6.38452 53.5272 6.94986 53.782 7.63106C54.0369 8.30763 54.1643 9.10004 54.1643 10.0083V10.8216H45.1489V8.98651H51.377C51.377 8.56018 51.2843 8.18251 51.099 7.85349C50.9136 7.52448 50.6564 7.26729 50.3274 7.08193C50.003 6.89194 49.6253 6.79694 49.1944 6.79694C48.7449 6.79694 48.3464 6.90121 47.9988 7.10974C47.6559 7.31363 47.3871 7.58936 47.1925 7.93691C46.9979 8.27982 46.8982 8.66213 46.8936 9.08382V10.8285C46.8936 11.3568 46.9909 11.8132 47.1855 12.1979C47.3848 12.5825 47.6652 12.8791 48.0266 13.0876C48.3881 13.2961 48.8167 13.4004 49.3126 13.4004C49.6416 13.4004 49.9428 13.3541 50.2162 13.2614C50.4896 13.1687 50.7236 13.0297 50.9182 12.8443C51.1129 12.659 51.2611 12.4319 51.3631 12.1631L54.1018 12.3438C53.9628 13.0019 53.6778 13.5765 53.2468 14.0677C52.8205 14.5543 52.269 14.9342 51.5925 15.2077C50.9205 15.4764 50.1444 15.6108 49.2639 15.6108Z" fill="#263238"/>
<path d="M58.3801 4.72554L60.3403 8.45823L62.3492 4.72554H65.3867L62.2935 10.0639L65.4702 15.4023H62.4465L60.3403 11.7113L58.2689 15.4023H55.2105L58.3801 10.0639L55.3217 4.72554H58.3801Z" fill="#263238"/>
<path d="M71.587 15.6108C70.4934 15.6108 69.5527 15.3791 68.7649 14.9157C67.9818 14.4477 67.3794 13.7989 66.9577 12.9694C66.5406 12.1399 66.3321 11.1853 66.3321 10.1056C66.3321 9.012 66.5429 8.05276 66.9646 7.2279C67.3909 6.39842 67.9957 5.75197 68.7788 5.28857C69.562 4.82054 70.4934 4.58652 71.5731 4.58652C72.5046 4.58652 73.3201 4.75567 74.0199 5.09395C74.7196 5.43223 75.2734 5.90721 75.6812 6.5189C76.089 7.13059 76.3137 7.84886 76.3554 8.67371H73.5611C73.4823 8.1408 73.2738 7.71216 72.9355 7.38778C72.6019 7.05876 72.164 6.89426 71.6218 6.89426C71.163 6.89426 70.7622 7.01937 70.4193 7.26961C70.081 7.51521 69.8168 7.87435 69.6268 8.34702C69.4369 8.81968 69.3419 9.39198 69.3419 10.0639C69.3419 10.7451 69.4345 11.3244 69.6199 11.8017C69.8099 12.279 70.0764 12.6427 70.4193 12.893C70.7622 13.1432 71.163 13.2683 71.6218 13.2683C71.9601 13.2683 72.2636 13.1988 72.5324 13.0598C72.8058 12.9208 73.0305 12.7192 73.2066 12.4551C73.3873 12.1863 73.5055 11.8642 73.5611 11.4889H76.3554C76.3091 12.3045 76.0866 13.0227 75.6881 13.6437C75.2942 14.26 74.7497 14.7419 74.0546 15.0895C73.3595 15.437 72.537 15.6108 71.587 15.6108Z" fill="#263238"/>
<path d="M83.117 15.6108C82.0187 15.6108 81.0734 15.3884 80.281 14.9435C79.4932 14.494 78.8862 13.8592 78.4598 13.0389C78.0335 12.2141 77.8203 11.2386 77.8203 10.1126C77.8203 9.01431 78.0335 8.05044 78.4598 7.22095C78.8862 6.39147 79.4863 5.74502 80.2601 5.28162C81.0387 4.81822 81.9516 4.58652 82.9988 4.58652C83.7032 4.58652 84.3589 4.70006 84.966 4.92712C85.5777 5.14956 86.1106 5.48552 86.5647 5.93502C87.0235 6.38452 87.3803 6.94986 87.6352 7.63106C87.89 8.30763 88.0175 9.10004 88.0175 10.0083V10.8216H79.002V8.98651H85.2301C85.2301 8.56018 85.1374 8.18251 84.9521 7.85349C84.7667 7.52448 84.5095 7.26729 84.1805 7.08193C83.8561 6.89194 83.4785 6.79694 83.0475 6.79694C82.598 6.79694 82.1995 6.90121 81.8519 7.10974C81.509 7.31363 81.2402 7.58936 81.0456 7.93691C80.851 8.27982 80.7513 8.66213 80.7467 9.08382V10.8285C80.7467 11.3568 80.844 11.8132 81.0387 12.1979C81.2379 12.5825 81.5183 12.8791 81.8797 13.0876C82.2412 13.2961 82.6698 13.4004 83.1657 13.4004C83.4947 13.4004 83.7959 13.3541 84.0693 13.2614C84.3427 13.1687 84.5767 13.0297 84.7713 12.8443C84.966 12.659 85.1143 12.4319 85.2162 12.1631L87.9549 12.3438C87.8159 13.0019 87.5309 13.5765 87.0999 14.0677C86.6736 14.5543 86.1222 14.9342 85.4456 15.2077C84.7737 15.4764 83.9975 15.6108 83.117 15.6108Z" fill="#263238"/>
<path d="M92.911 9.22979V15.4023H89.9498V4.72554H92.7719V6.60927H92.8971C93.1334 5.98831 93.5296 5.4971 94.0857 5.13565C94.6418 4.76957 95.316 4.58652 96.1084 4.58652C96.8499 4.58652 97.4963 4.74871 98.0477 5.07309C98.5992 5.39747 99.0278 5.86087 99.3337 6.46329C99.6395 7.06108 99.7925 7.77472 99.7925 8.6042V15.4023H96.8313V9.13248C96.836 8.47908 96.6691 7.96934 96.3309 7.60326C95.9926 7.23254 95.5269 7.04718 94.9337 7.04718C94.5352 7.04718 94.183 7.13291 93.8771 7.30437C93.5759 7.47582 93.3396 7.72606 93.1681 8.05507C93.0013 8.37945 92.9156 8.77103 92.911 9.22979Z" fill="#263238"/>
<path d="M107.805 4.72554V6.94986H101.376V4.72554H107.805ZM102.835 2.16758H105.796V12.1214C105.796 12.3948 105.838 12.608 105.921 12.7609C106.005 12.9092 106.121 13.0135 106.269 13.0737C106.422 13.1339 106.598 13.1641 106.797 13.1641C106.936 13.1641 107.075 13.1525 107.214 13.1293C107.353 13.1015 107.46 13.0806 107.534 13.0667L108 15.2702C107.852 15.3166 107.643 15.3698 107.374 15.4301C107.105 15.495 106.779 15.5344 106.394 15.5483C105.681 15.5761 105.055 15.4811 104.517 15.2633C103.984 15.0455 103.57 14.7072 103.273 14.2484C102.977 13.7896 102.831 13.2104 102.835 12.5107V2.16758Z" fill="#263238"/>
</svg>
