<svg width="308" height="302" viewBox="0 0 308 302" fill="none" xmlns="http://www.w3.org/2000/svg">
<path d="M153.837 265.49C219.73 265.49 273.147 262.371 273.147 258.524C273.147 254.677 219.73 251.558 153.837 251.558C87.9442 251.558 34.5273 254.677 34.5273 258.524C34.5273 262.371 87.9442 265.49 153.837 265.49Z" fill="#F5F5F5"/>
<path d="M214.91 102.958L208.806 100.496C208.806 100.496 200.751 115.185 198.444 115.929C195.305 116.938 188.807 119.744 184.955 120.237C184.432 120.852 183.577 122.766 183.657 123.461C188.832 125.19 200.203 122.895 202.64 121.086C208.185 116.981 214.91 102.958 214.91 102.958Z" fill="#E58A7B"/>
<path d="M216.787 99.6163C217.926 103.819 211.76 112.274 211.76 112.274L203.68 107.745C203.68 107.745 205.194 104.268 207.04 100.73C210 95.0135 215.489 94.8227 216.787 99.6163Z" fill="#4CAF4F"/>
<path opacity="0.2" d="M216.787 99.6163C217.926 103.819 211.76 112.274 211.76 112.274L203.68 107.745C203.68 107.745 205.194 104.268 207.04 100.73C210 95.0135 215.489 94.8227 216.787 99.6163Z" fill="black"/>
<path opacity="0.2" d="M206.886 109.554L210.068 111.339L210.627 101.573C208.775 102.995 207.471 107.277 206.886 109.554Z" fill="black"/>
<path d="M211.471 96.4534C211.471 96.4534 205.182 110.446 208.849 136.5H233.629C234.023 132.697 232.719 114.138 237.438 96.2195C234.72 95.6883 231.97 95.3368 229.205 95.1673C225.698 94.9641 222.183 94.9641 218.676 95.1673C216.246 95.4141 213.837 95.844 211.471 96.4534Z" fill="#4CAF4F"/>
<path opacity="0.2" d="M211.471 96.4534C211.471 96.4534 205.182 110.446 208.849 136.5H233.629C234.023 132.697 232.719 114.138 237.438 96.2195C234.72 95.6883 231.97 95.3368 229.205 95.1673C225.698 94.9641 222.183 94.9641 218.676 95.1673C216.246 95.4141 213.837 95.844 211.471 96.4534Z" fill="black"/>
<path d="M205.723 259.078C205.686 259.742 215.083 260.278 226.707 260.278C238.33 260.278 247.794 259.742 247.831 259.078C247.868 258.413 238.478 257.884 226.848 257.884C215.218 257.884 205.766 258.419 205.723 259.078Z" fill="#E8ECF1"/>
<path d="M222.264 241.616L217.869 243.317L221.655 253.097L226.05 251.396L222.264 241.616Z" fill="#E58A7B"/>
<path d="M241.863 254.346H237.229L235.531 243.62H240.164L241.863 254.346Z" fill="#E58A7B"/>
<path d="M236.909 253.81H242.115C242.205 253.811 242.292 253.843 242.361 253.902C242.43 253.96 242.476 254.041 242.49 254.13L243.161 258.247C243.175 258.35 243.167 258.455 243.137 258.555C243.107 258.655 243.055 258.747 242.986 258.825C242.918 258.904 242.833 258.966 242.737 259.009C242.642 259.051 242.539 259.073 242.435 259.072C240.62 259.041 239.746 258.93 237.457 258.93C236.047 258.93 233.149 259.078 231.192 259.078C229.236 259.078 229.106 257.158 229.912 256.979C233.531 256.198 234.934 255.133 236.14 254.1C236.352 253.913 236.626 253.81 236.909 253.81Z" fill="#263238"/>
<path d="M221.525 252.223L226.448 250.783C226.536 250.758 226.63 250.764 226.714 250.8C226.798 250.836 226.867 250.899 226.91 250.98L228.756 254.672C228.799 254.765 228.821 254.867 228.82 254.97C228.819 255.073 228.796 255.175 228.752 255.268C228.708 255.361 228.645 255.444 228.565 255.51C228.486 255.576 228.394 255.624 228.294 255.65C226.504 256.142 225.304 256.444 223.064 257.096C221.519 257.545 219.944 258.278 218.418 258.764C217.359 259.102 214.873 259.114 213.587 259.114C211.686 259.114 211.261 257.108 212.08 257.016C214.141 256.788 214.418 256.893 215.557 256.321C217.419 255.507 219.107 254.341 220.529 252.887C220.797 252.582 221.14 252.352 221.525 252.223Z" fill="#263238"/>
<path d="M185.73 120.212L180.635 118.077L178.537 123.726C180.625 124.044 182.75 124.044 184.838 123.726L185.73 120.212Z" fill="#E58A7B"/>
<path d="M176.845 117.929L176.71 121.683L178.537 123.713L180.635 118.064L176.845 117.929Z" fill="#E58A7B"/>
<path d="M222.867 242.446L218.458 244.148L220.411 249.206L224.82 247.504L222.867 242.446Z" fill="#CF6F64"/>
<path d="M240.164 243.62H235.531L236.411 249.152H241.044L240.164 243.62Z" fill="#CF6F64"/>
<path opacity="0.2" d="M208.061 129.455C208.154 130.568 208.258 131.707 208.394 132.876L226.817 126.895C229.694 126.042 232.195 124.234 233.906 121.769C233.98 120.126 234.072 118.397 234.214 116.594C234.275 115.72 234.349 114.822 234.429 113.911C234.509 113 234.62 111.991 234.737 111.019L208.061 129.455Z" fill="black"/>
<path d="M214.08 109.271L213.464 109.197C213.827 106.12 216.123 103.696 218.541 103.758V104.373C216.424 104.33 214.406 106.514 214.08 109.271Z" fill="white"/>
<path d="M217.36 114.951H217.255V114.335C219.372 114.415 221.359 112.206 221.685 109.456L222.301 109.53C221.975 112.539 219.753 114.951 217.36 114.951Z" fill="white"/>
<path d="M228.86 83.3095C227.993 86.7 226.971 92.9089 229.205 95.1672C229.205 95.1672 227.642 98.607 221.347 98.607C215.593 98.607 218.676 95.1672 218.676 95.1672C222.504 94.2688 222.571 91.4751 222.067 88.8291L228.86 83.3095Z" fill="#E58A7B"/>
<path d="M226.091 85.5617L222.073 88.8292C222.197 89.4372 222.27 90.0548 222.288 90.6752C223.464 91.8444 225.82 88.8846 226.06 87.3708C226.182 86.7748 226.193 86.1614 226.091 85.5617Z" fill="#CF6F64"/>
<path d="M215.163 83.2665C215.442 83.7511 215.819 84.1728 216.269 84.5053C216.719 84.8378 217.233 85.0738 217.778 85.1987C219.255 85.5248 219.993 84.1649 219.587 82.7988C219.224 81.5681 218.012 79.9129 216.51 80.1959C216.189 80.2622 215.888 80.4045 215.632 80.611C215.377 80.8176 215.175 81.0823 215.043 81.383C214.911 81.6836 214.853 82.0116 214.874 82.3393C214.895 82.667 214.994 82.9849 215.163 83.2665Z" fill="#CF6F64"/>
<path d="M217.606 72.4179C215.304 73.4701 214.492 82.6142 217.384 83.968C220.276 85.3217 221.962 70.418 217.606 72.4179Z" fill="#263238"/>
<path d="M229.562 78.2082C229.008 82.7987 228.946 85.5001 226.485 87.8507C225.722 88.6308 224.759 89.1849 223.701 89.4519C222.643 89.7188 221.532 89.6883 220.491 89.3636C219.449 89.0389 218.518 88.4327 217.799 87.6119C217.08 86.7912 216.602 85.7877 216.418 84.7125C215.673 80.5896 216.701 73.7777 221.304 71.9501C222.271 71.5236 223.335 71.3634 224.384 71.4863C225.434 71.6092 226.432 72.0107 227.274 72.6491C228.117 73.2875 228.773 74.1396 229.175 75.1171C229.578 76.0946 229.711 77.1618 229.562 78.2082Z" fill="#E58A7B"/>
<path d="M221.999 74.793C225.408 73.9254 227.913 73.3347 227.014 76.1714C225.827 79.962 224.399 83.6294 226.313 83.7956C227.482 83.9002 232.651 81.7096 231.993 79.4882C231.42 77.556 233.839 77.0268 234.269 76.0484C235.863 72.5039 231.303 72.9716 232.116 70.8179C232.928 68.6642 228.424 65.1936 225.962 66.9227C221.956 69.7164 215.083 69.6733 218.695 65.0767C221.286 61.7969 216.664 62.4676 216.664 62.4676C216.664 62.4676 219.458 64.1229 214.757 66.6828C209.785 69.4149 214.344 76.756 221.999 74.793Z" fill="#263238"/>
<path d="M231.371 83.2665C230.698 84.2403 229.687 84.929 228.534 85.1987C227.014 85.5248 226.43 84.1649 227.002 82.7988C227.513 81.5681 228.916 79.9129 230.368 80.1959C231.82 80.479 232.152 82.0604 231.371 83.2665Z" fill="#E58A7B"/>
<path d="M208.849 136.5C208.849 136.5 204.69 173.729 204.363 187.857C204.031 202.552 218.461 248.401 218.461 248.401L225.845 245.325C225.845 245.325 217.23 203.432 218.461 189.002C219.766 173.267 225.156 136.525 225.156 136.525L208.849 136.5Z" fill="#4CAF4F"/>
<path opacity="0.2" d="M219.187 146.721C215.87 153.601 218.104 167.206 219.901 175.267C220.584 169.575 221.396 163.397 222.165 157.681C222.091 148.893 221.408 142.106 219.187 146.721Z" fill="black"/>
<path d="M225.519 242.888C225.556 242.888 226.393 245.239 226.393 245.239L217.876 248.82L216.535 246.322L225.519 242.888Z" fill="#4CAF4F"/>
<path d="M217.643 136.5C217.643 136.5 220.824 171.907 222.928 185.168C225.242 199.697 234.312 248.081 234.312 248.081H242.798C242.798 248.081 237.715 200.872 236.755 186.485C235.709 170.88 233.629 136.5 233.629 136.5H217.643Z" fill="#4CAF4F"/>
<path d="M242.927 245.872C242.964 245.872 243.21 248.241 243.21 248.241H233.882L233.217 245.521L242.927 245.872Z" fill="#4CAF4F"/>
<path opacity="0.2" d="M239.678 243.066C239.659 243.067 239.64 243.06 239.626 243.047C239.611 243.035 239.601 243.018 239.598 242.999C239.549 242.568 234.965 199.924 234.103 187.002C233.168 172.984 231.285 141.891 231.266 141.577C231.266 141.567 231.267 141.556 231.27 141.547C231.273 141.537 231.279 141.528 231.286 141.521C231.293 141.513 231.301 141.507 231.31 141.503C231.32 141.499 231.33 141.497 231.34 141.497C231.36 141.497 231.38 141.504 231.395 141.518C231.41 141.532 231.419 141.551 231.42 141.571C231.42 141.885 233.322 172.954 234.257 186.996C235.118 199.918 239.703 242.531 239.746 242.993C239.748 243.003 239.747 243.013 239.745 243.023C239.742 243.033 239.738 243.043 239.731 243.051C239.725 243.059 239.717 243.065 239.708 243.07C239.699 243.075 239.688 243.078 239.678 243.079V243.066Z" fill="black"/>
<path d="M222.522 79.4883C222.522 79.8636 222.288 80.1651 222.042 80.1651C221.796 80.1651 221.618 79.8636 221.642 79.4883C221.667 79.1129 221.876 78.8114 222.122 78.8114C222.368 78.8114 222.547 79.119 222.522 79.4883Z" fill="#263238"/>
<path d="M218.301 79.4883C218.301 79.8636 218.061 80.1651 217.821 80.1651C217.581 80.1651 217.396 79.8636 217.415 79.4883C217.433 79.1129 217.655 78.8114 217.901 78.8114C218.147 78.8114 218.326 79.119 218.301 79.4883Z" fill="#263238"/>
<path d="M219.63 79.679C219.116 80.8252 218.454 81.899 217.661 82.8727C218.276 83.488 219.427 83.205 219.427 83.205L219.63 79.679Z" fill="#DF5753"/>
<path d="M219.741 84.7739C219.726 84.7739 219.712 84.771 219.699 84.7654C219.686 84.7598 219.674 84.7515 219.664 84.7411C219.655 84.7307 219.647 84.7185 219.642 84.7051C219.637 84.6916 219.635 84.6774 219.636 84.6631C219.638 84.6332 219.651 84.605 219.672 84.5844C219.694 84.5638 219.723 84.5523 219.753 84.5524C220.224 84.5556 220.689 84.4534 221.115 84.2532C221.541 84.053 221.917 83.7599 222.214 83.3955C222.236 83.3769 222.263 83.3666 222.291 83.3666C222.32 83.3666 222.347 83.3769 222.368 83.3955C222.388 83.4162 222.399 83.4437 222.399 83.4724C222.399 83.5011 222.388 83.5287 222.368 83.5493C222.049 83.9367 221.648 84.2477 221.193 84.4596C220.739 84.6715 220.242 84.7789 219.741 84.7739Z" fill="#263238"/>
<path d="M223.273 78.3558C223.243 78.3709 223.211 78.3788 223.177 78.3788C223.144 78.3788 223.112 78.3709 223.082 78.3558C222.852 78.207 222.59 78.1144 222.317 78.0856C222.045 78.0567 221.769 78.0924 221.513 78.1897C221.488 78.2022 221.461 78.2095 221.433 78.2113C221.405 78.2131 221.377 78.2093 221.351 78.2002C221.324 78.191 221.3 78.1766 221.279 78.1579C221.259 78.1392 221.242 78.1165 221.23 78.0912C221.207 78.0365 221.207 77.975 221.228 77.9198C221.25 77.8646 221.293 77.8202 221.347 77.7959C221.669 77.6645 222.017 77.6126 222.363 77.6448C222.709 77.6769 223.042 77.7921 223.334 77.9805C223.358 77.9965 223.378 78.0171 223.394 78.041C223.409 78.0649 223.42 78.0916 223.425 78.1196C223.43 78.1477 223.43 78.1765 223.424 78.2044C223.418 78.2322 223.406 78.2586 223.39 78.282C223.359 78.3173 223.318 78.3429 223.273 78.3558Z" fill="#263238"/>
<path d="M216.67 77.1253C216.637 77.1173 216.608 77.1003 216.584 77.076C216.564 77.056 216.547 77.032 216.536 77.0056C216.525 76.9792 216.519 76.9509 216.519 76.9222C216.519 76.8935 216.525 76.8652 216.536 76.8388C216.547 76.8124 216.564 76.7884 216.584 76.7684C216.82 76.5038 217.114 76.2974 217.442 76.165C217.771 76.0326 218.126 75.978 218.479 76.0053C218.508 76.0097 218.535 76.0198 218.559 76.0351C218.583 76.0504 218.604 76.0705 218.62 76.0941C218.636 76.1178 218.648 76.1445 218.653 76.1726C218.658 76.2007 218.658 76.2297 218.652 76.2576C218.639 76.3146 218.605 76.3648 218.557 76.3988C218.51 76.4328 218.451 76.4482 218.393 76.4422C218.114 76.4246 217.834 76.4709 217.575 76.5775C217.316 76.6841 217.084 76.8483 216.898 77.0576C216.87 77.0887 216.834 77.1115 216.794 77.1235C216.753 77.1354 216.711 77.136 216.67 77.1253Z" fill="#263238"/>
<path d="M239.82 102.275L233.42 100.57C233.42 100.57 227.144 116.021 224.922 117.024C221.907 118.403 214.27 123.178 211.021 125.436C210.843 126.205 210.984 128.242 211.391 128.802C216.929 127.793 227.531 123.713 229.746 121.64C234.798 116.908 239.82 102.275 239.82 102.275Z" fill="#E58A7B"/>
<path d="M235.352 254.623C235.04 254.647 234.729 254.563 234.472 254.383C234.393 254.311 234.334 254.22 234.3 254.119C234.267 254.017 234.26 253.909 234.282 253.804C234.285 253.739 234.307 253.676 234.344 253.622C234.381 253.567 234.431 253.524 234.491 253.497C235.008 253.232 236.454 254.149 236.62 254.253C236.638 254.265 236.652 254.282 236.66 254.302C236.668 254.322 236.669 254.344 236.663 254.364C236.658 254.386 236.647 254.405 236.632 254.422C236.617 254.438 236.598 254.45 236.577 254.457C236.176 254.555 235.765 254.611 235.352 254.623ZM234.737 253.663C234.69 253.652 234.642 253.652 234.595 253.663C234.572 253.675 234.552 253.693 234.539 253.716C234.526 253.739 234.52 253.766 234.522 253.792C234.505 253.864 234.508 253.938 234.529 254.008C234.551 254.079 234.591 254.142 234.645 254.192C234.885 254.407 235.488 254.432 236.281 254.278C235.809 253.967 235.276 253.757 234.718 253.663H234.737Z" fill="#4CAF4F"/>
<path d="M236.546 254.456C236.53 254.462 236.513 254.462 236.497 254.456C236.035 254.198 235.168 253.183 235.297 252.666C235.316 252.584 235.363 252.511 235.428 252.458C235.494 252.406 235.576 252.377 235.66 252.377C235.743 252.366 235.827 252.372 235.906 252.397C235.986 252.421 236.059 252.463 236.121 252.518C236.632 252.955 236.663 254.296 236.663 254.364C236.666 254.384 236.662 254.405 236.652 254.423C236.642 254.441 236.626 254.455 236.608 254.463C236.587 254.467 236.565 254.465 236.546 254.456ZM235.721 252.58H235.678C235.537 252.58 235.518 252.66 235.512 252.69C235.438 252.992 235.986 253.761 236.441 254.124C236.439 253.604 236.278 253.098 235.98 252.672C235.909 252.61 235.816 252.577 235.721 252.58Z" fill="#4CAF4F"/>
<path d="M219.015 253.853C218.638 253.985 218.228 253.985 217.852 253.853C217.766 253.807 217.694 253.74 217.641 253.658C217.588 253.576 217.557 253.483 217.55 253.386C217.542 253.325 217.55 253.263 217.573 253.206C217.595 253.149 217.632 253.099 217.679 253.06C218.172 252.616 220.184 253.06 220.412 253.146C220.433 253.151 220.452 253.164 220.466 253.182C220.479 253.2 220.486 253.222 220.485 253.244C220.486 253.267 220.48 253.29 220.468 253.31C220.456 253.329 220.439 253.345 220.418 253.355C219.965 253.559 219.495 253.726 219.015 253.853ZM218.012 253.121C217.941 253.135 217.876 253.167 217.821 253.213C217.801 253.228 217.786 253.248 217.778 253.271C217.769 253.294 217.767 253.319 217.772 253.343C217.776 253.407 217.796 253.47 217.83 253.525C217.865 253.579 217.912 253.625 217.969 253.656C218.295 253.829 219.052 253.693 220.03 253.281C219.371 253.115 218.689 253.061 218.012 253.121Z" fill="#4CAF4F"/>
<path d="M220.399 253.355H220.35C219.735 253.244 218.504 252.537 218.467 252.007C218.467 251.884 218.523 251.712 218.818 251.614C218.918 251.578 219.024 251.563 219.129 251.569C219.235 251.576 219.338 251.603 219.433 251.65C220.098 251.977 220.449 253.158 220.467 253.213C220.471 253.232 220.471 253.251 220.465 253.27C220.46 253.288 220.45 253.305 220.436 253.318C220.427 253.333 220.414 253.346 220.399 253.355ZM218.941 251.798H218.879C218.689 251.866 218.689 251.946 218.689 251.97C218.689 252.29 219.581 252.875 220.202 253.072C220.059 252.578 219.756 252.145 219.341 251.841C219.217 251.778 219.075 251.763 218.941 251.798Z" fill="#4CAF4F"/>
<path d="M211.544 125.073L205.126 128.027L204.382 129.873L206.751 131.467C206.751 131.467 211.181 130.987 212.443 128.138L211.544 125.073Z" fill="#E58A7B"/>
<path d="M211.815 128.907C211.672 127.674 211.265 126.486 210.621 125.424L211.637 124.661C212.401 125.884 212.888 127.26 213.064 128.691L211.815 128.907Z" fill="#263238"/>
<path d="M212.91 125.947C213.046 126.16 213.113 126.41 213.101 126.663C213.09 126.916 213.001 127.159 212.846 127.359C212.692 127.559 212.48 127.707 212.238 127.782C211.997 127.858 211.738 127.857 211.497 127.78C211.256 127.703 211.045 127.553 210.892 127.352C210.739 127.151 210.652 126.907 210.642 126.654C210.632 126.402 210.701 126.152 210.838 125.94C210.975 125.727 211.175 125.562 211.409 125.467C211.672 125.333 211.977 125.308 212.258 125.398C212.54 125.488 212.774 125.685 212.91 125.947Z" fill="#263238"/>
<path d="M200.788 130.414L201.643 131.276L207.403 128.815L205.126 128.027L200.788 130.414Z" fill="#E58A7B"/>
<path opacity="0.2" d="M225.519 242.888C225.556 242.888 226.393 245.239 226.393 245.239L217.876 248.82L216.535 246.322L225.519 242.888Z" fill="black"/>
<path opacity="0.2" d="M242.927 245.872C242.964 245.872 243.21 248.241 243.21 248.241H233.882L233.217 245.521L242.927 245.872Z" fill="black"/>
<path d="M241.487 100.502C243.18 105.96 236.565 113.425 236.565 113.425L227.427 109.696C228.51 106.541 229.759 103.445 231.168 100.422C233.974 94.3735 239.777 94.995 241.487 100.502Z" fill="#4CAF4F"/>
<path opacity="0.2" d="M241.487 100.502C243.18 105.96 236.565 113.425 236.565 113.425L227.427 109.696C228.51 106.541 229.759 103.445 231.168 100.422C233.974 94.3735 239.777 94.995 241.487 100.502Z" fill="black"/>
<path d="M150.686 45.8163H146.754V46.4501H150.686V45.8163Z" fill="#4CAF4F"/>
<path d="M201.587 70.902L201.111 81.463L201.744 81.4915L202.22 70.9305L201.587 70.902Z" fill="#4CAF4F"/>
<path d="M200.364 48.6592H127.753L120.996 199.863H193.607L200.364 48.6592Z" fill="#4CAF4F"/>
<path opacity="0.56" d="M198.198 50.7391H125.587L118.83 201.943H191.441L198.198 50.7391Z" fill="#FAFAFA"/>
<path opacity="0.07" d="M196.032 52.8127H123.42L116.658 204.016H189.269L196.032 52.8127Z" fill="#4CAF4F"/>
<path d="M187.767 118.76H125.79L125.273 130.328H187.251L187.767 118.76Z" fill="white"/>
<path d="M159.874 110.317H126.165L125.937 115.492H159.646L159.874 110.317Z" fill="#4CAF4F"/>
<path d="M186.371 149.983H124.393L123.876 161.551H185.854L186.371 149.983Z" fill="white"/>
<path opacity="0.47" d="M175.005 177.175H133.328L132.706 191.038H174.384L175.005 177.175Z" fill="#4CAF4F"/>
<path d="M172.218 193.192H130.54C130.522 193.197 130.503 193.197 130.485 193.192C130.478 193.174 130.478 193.155 130.485 193.137L131.1 179.267C131.1 179.258 131.102 179.248 131.106 179.24C131.109 179.231 131.115 179.223 131.122 179.217C131.129 179.21 131.137 179.206 131.146 179.203C131.155 179.2 131.164 179.198 131.174 179.199H172.851C172.859 179.195 172.867 179.193 172.876 179.193C172.884 179.193 172.893 179.195 172.901 179.199C172.905 179.207 172.907 179.215 172.907 179.224C172.907 179.232 172.905 179.241 172.901 179.248L172.298 193.149C172.29 193.164 172.279 193.175 172.264 193.183C172.25 193.191 172.234 193.194 172.218 193.192ZM130.614 193.045H172.144L172.759 179.322H131.229L130.614 193.045Z" fill="white"/>
<path d="M152.594 141.54H124.768L124.54 146.721H152.36L152.594 141.54Z" fill="#4CAF4F"/>
<path d="M174.211 81.3895C174.052 84.7563 172.855 87.9913 170.784 90.6505C169.251 92.6591 167.278 94.2897 165.016 95.4172C162.755 96.5446 160.265 97.139 157.738 97.1547C155.696 97.1703 153.673 96.7676 151.793 95.9716C149.912 95.1755 148.215 94.0029 146.805 92.5259C145.394 91.049 144.302 89.299 143.594 87.3837C142.885 85.4685 142.577 83.4285 142.687 81.3895C142.903 77.1583 144.728 73.1697 147.788 70.2393C150.847 67.3088 154.911 65.6579 159.148 65.6242C161.191 65.6052 163.217 66.0054 165.099 66.8001C166.982 67.5948 168.682 68.7671 170.094 70.2446C171.505 71.7221 172.599 73.4734 173.307 75.3903C174.016 77.3072 174.323 79.349 174.211 81.3895Z" fill="white"/>
<path d="M175.694 68.9226C175.654 69.8179 175.336 70.6783 174.784 71.384C174.375 71.9175 173.85 72.3506 173.248 72.6503C172.647 72.95 171.985 73.1083 171.313 73.1132C170.662 73.1171 170.02 72.9616 169.443 72.6602C168.866 72.3588 168.371 71.9206 168.002 71.384C167.514 70.6589 167.273 69.7958 167.313 68.9226C167.373 67.7993 167.859 66.7409 168.672 65.9633C169.485 65.1858 170.564 64.7477 171.688 64.7383C172.231 64.7333 172.769 64.8395 173.269 65.0504C173.769 65.2612 174.221 65.5723 174.596 65.9643C174.971 66.3563 175.262 66.821 175.451 67.3298C175.64 67.8386 175.723 68.3807 175.694 68.9226Z" fill="#4CAF4F"/>
<path d="M132.466 124.544C132.436 125.04 132.22 125.506 131.86 125.849C131.501 126.191 131.024 126.385 130.528 126.39C130.288 126.393 130.05 126.346 129.829 126.254C129.608 126.161 129.408 126.024 129.242 125.851C129.076 125.678 128.947 125.473 128.863 125.248C128.779 125.023 128.743 124.783 128.755 124.544C128.782 124.047 128.998 123.579 129.358 123.236C129.718 122.893 130.196 122.7 130.694 122.698C130.933 122.696 131.171 122.743 131.392 122.836C131.612 122.929 131.812 123.066 131.978 123.239C132.144 123.412 132.273 123.617 132.357 123.841C132.44 124.065 132.478 124.305 132.466 124.544Z" fill="#263238"/>
<path d="M140.761 124.544C140.733 125.04 140.517 125.507 140.157 125.85C139.797 126.193 139.32 126.386 138.823 126.39C138.583 126.392 138.346 126.345 138.126 126.252C137.905 126.159 137.706 126.022 137.541 125.849C137.375 125.676 137.247 125.471 137.164 125.246C137.08 125.022 137.044 124.783 137.057 124.544C137.083 124.048 137.298 123.581 137.657 123.238C138.016 122.895 138.492 122.702 138.989 122.698C139.229 122.695 139.466 122.741 139.688 122.834C139.909 122.927 140.109 123.064 140.275 123.237C140.441 123.41 140.57 123.615 140.653 123.84C140.737 124.065 140.774 124.304 140.761 124.544Z" fill="#263238"/>
<path d="M149.062 124.544C149.034 125.04 148.818 125.507 148.458 125.85C148.098 126.193 147.621 126.386 147.124 126.39C146.884 126.392 146.647 126.345 146.426 126.252C146.205 126.159 146.006 126.022 145.84 125.849C145.674 125.676 145.545 125.471 145.461 125.247C145.377 125.022 145.34 124.783 145.351 124.544C145.38 124.048 145.596 123.581 145.956 123.238C146.316 122.895 146.793 122.702 147.29 122.698C147.53 122.695 147.767 122.741 147.989 122.834C148.21 122.927 148.41 123.064 148.576 123.237C148.742 123.41 148.871 123.615 148.954 123.84C149.038 124.065 149.075 124.304 149.062 124.544Z" fill="#263238"/>
<path d="M131.069 155.767C131.04 156.263 130.823 156.729 130.463 157.071C130.104 157.414 129.627 157.607 129.131 157.613C128.891 157.615 128.654 157.568 128.433 157.475C128.212 157.382 128.013 157.245 127.847 157.072C127.681 156.899 127.552 156.694 127.468 156.47C127.384 156.245 127.347 156.006 127.359 155.767C127.387 155.27 127.603 154.803 127.963 154.46C128.323 154.118 128.8 153.925 129.297 153.921C129.536 153.919 129.774 153.966 129.995 154.059C130.216 154.152 130.415 154.289 130.581 154.462C130.747 154.635 130.876 154.84 130.96 155.064C131.044 155.288 131.081 155.527 131.069 155.767Z" fill="#263238"/>
<path d="M139.364 155.767C139.336 156.262 139.121 156.728 138.762 157.071C138.404 157.414 137.928 157.607 137.432 157.613C137.192 157.616 136.954 157.569 136.733 157.477C136.512 157.384 136.312 157.247 136.146 157.074C135.98 156.901 135.851 156.695 135.767 156.471C135.684 156.246 135.647 156.006 135.66 155.767C135.688 155.27 135.904 154.803 136.264 154.46C136.624 154.118 137.101 153.925 137.598 153.921C137.837 153.919 138.075 153.966 138.295 154.059C138.516 154.152 138.715 154.289 138.88 154.462C139.045 154.635 139.174 154.84 139.257 155.064C139.34 155.289 139.377 155.528 139.364 155.767Z" fill="#263238"/>
<path d="M147.684 155.767C147.656 156.263 147.44 156.73 147.08 157.073C146.72 157.416 146.242 157.609 145.745 157.613C145.506 157.614 145.269 157.566 145.049 157.473C144.828 157.38 144.629 157.243 144.463 157.07C144.298 156.897 144.169 156.693 144.084 156.469C144 156.245 143.962 156.006 143.973 155.767C144.003 155.271 144.219 154.805 144.579 154.462C144.939 154.12 145.415 153.926 145.911 153.921C146.151 153.918 146.389 153.964 146.61 154.057C146.832 154.15 147.031 154.287 147.198 154.46C147.364 154.633 147.492 154.838 147.576 155.063C147.66 155.288 147.696 155.527 147.684 155.767Z" fill="#263238"/>
<path d="M155.966 155.767C155.937 156.263 155.72 156.729 155.36 157.071C155.001 157.414 154.525 157.607 154.028 157.613C153.789 157.614 153.551 157.566 153.331 157.473C153.111 157.38 152.912 157.243 152.746 157.07C152.58 156.897 152.451 156.693 152.367 156.469C152.283 156.245 152.245 156.006 152.256 155.767C152.285 155.271 152.502 154.805 152.861 154.462C153.221 154.12 153.697 153.926 154.194 153.921C154.434 153.919 154.671 153.966 154.892 154.059C155.113 154.152 155.312 154.289 155.478 154.462C155.644 154.635 155.773 154.84 155.857 155.064C155.941 155.288 155.978 155.527 155.966 155.767Z" fill="#263238"/>
<path d="M164.298 155.767C164.268 156.263 164.052 156.729 163.692 157.071C163.333 157.414 162.856 157.607 162.36 157.613C162.12 157.616 161.882 157.569 161.661 157.477C161.44 157.384 161.24 157.247 161.074 157.074C160.907 156.901 160.779 156.695 160.695 156.471C160.611 156.246 160.575 156.006 160.587 155.767C160.616 155.27 160.832 154.803 161.192 154.46C161.552 154.118 162.029 153.925 162.526 153.921C162.765 153.919 163.003 153.966 163.224 154.059C163.444 154.152 163.644 154.289 163.81 154.462C163.976 154.635 164.105 154.84 164.188 155.064C164.272 155.288 164.31 155.527 164.298 155.767Z" fill="#263238"/>
<path d="M163.039 80.5685C165.614 78.0498 165.751 74.0127 163.344 71.5513C160.937 69.09 156.898 69.1364 154.322 71.6551C151.747 74.1737 151.61 78.2108 154.017 80.6722C156.424 83.1336 160.463 83.0871 163.039 80.5685Z" fill="#4CAF4F"/>
<path d="M170.784 90.6507C169.251 92.6593 167.278 94.2899 165.016 95.4174C162.755 96.5448 160.265 97.1392 157.738 97.1549C155.288 97.1757 152.87 96.5933 150.698 95.459C148.526 94.3247 146.667 92.6734 145.284 90.6507C148.274 87.6724 153.006 85.7279 158.249 85.7279C163.492 85.7279 168.058 87.6724 170.784 90.6507Z" fill="#4CAF4F"/>
<path opacity="0.1" d="M163.039 80.5685C165.614 78.0498 165.751 74.0127 163.344 71.5513C160.937 69.09 156.898 69.1364 154.322 71.6551C151.747 74.1737 151.61 78.2108 154.017 80.6722C156.424 83.1336 160.463 83.0871 163.039 80.5685Z" fill="white"/>
<path opacity="0.1" d="M170.784 90.6507C169.251 92.6593 167.278 94.2899 165.016 95.4174C162.755 96.5448 160.265 97.1392 157.738 97.1549C155.288 97.1757 152.87 96.5933 150.698 95.459C148.526 94.3247 146.667 92.6734 145.284 90.6507C148.274 87.6724 153.006 85.7279 158.249 85.7279C163.492 85.7279 168.058 87.6724 170.784 90.6507Z" fill="white"/>
<path d="M80.2476 133.116C79.663 134.396 79.0477 135.805 78.5123 137.171C77.977 138.537 77.4293 139.946 76.9555 141.349C75.988 144.114 75.2512 146.954 74.7525 149.841L74.6171 150.746C74.6042 150.901 74.6188 151.057 74.6602 151.207C74.8054 151.717 75.0342 152.199 75.3371 152.635C76.1273 153.761 77.044 154.794 78.0693 155.711C79.1502 156.717 80.284 157.664 81.466 158.548C82.6474 159.459 83.8905 160.345 85.115 161.182L83.9643 163.342C81.0403 162.068 78.2649 160.477 75.6879 158.597C74.313 157.595 73.0722 156.42 71.9958 155.102C71.3577 154.318 70.8601 153.429 70.5251 152.475C70.3303 151.879 70.2306 151.256 70.2297 150.629C70.2297 150.481 70.2297 150.266 70.2297 150.161V149.859L70.2912 149.244C70.644 146.038 71.3181 142.876 72.3034 139.805C72.7834 138.291 73.2941 136.783 73.8787 135.313C74.4633 133.842 75.0664 132.402 75.8109 130.907L80.2476 133.116Z" fill="#E58A7B"/>
<path d="M84.2475 160.8L88.598 158.597L87.4719 163.373C87.4719 163.373 84.4875 164.209 83.1029 162.757L84.2475 160.8Z" fill="#E58A7B"/>
<path d="M92.5791 159.379L91.4223 163.329L87.4717 163.373L88.5978 158.597L92.5791 159.379Z" fill="#E58A7B"/>
<path d="M98.7205 110.077C98.9532 110.93 99.2771 111.755 99.6866 112.538C99.5669 112.674 99.4128 112.775 99.2406 112.83C99.0684 112.885 98.8844 112.893 98.7082 112.852L98.7205 110.077Z" fill="#DF5753"/>
<path d="M98.5911 110.114C98.846 110.114 99.0527 109.797 99.0527 109.406C99.0527 109.016 98.846 108.699 98.5911 108.699C98.3363 108.699 98.1296 109.016 98.1296 109.406C98.1296 109.797 98.3363 110.114 98.5911 110.114Z" fill="#263238"/>
<path d="M98.4557 108.723L99.391 108.459C99.391 108.459 98.9356 109.185 98.4557 108.723Z" fill="#263238"/>
<path d="M86.7027 114.594C87.2627 117.455 87.8226 122.704 85.8166 124.618C85.8166 124.618 86.6042 127.522 91.927 127.522C97.779 127.522 94.7207 124.618 94.7207 124.618C91.527 123.855 91.607 121.486 92.167 119.258L86.7027 114.594Z" fill="#E58A7B"/>
<path d="M85.1458 108.071C85.4411 112.852 85.4658 114.883 87.8779 117.338C91.5146 121.03 97.3235 119.627 98.4619 114.877C99.4896 110.569 98.8373 103.481 94.1545 101.579C93.1266 101.156 92.0077 101.001 90.9035 101.131C89.7994 101.261 88.7466 101.67 87.8447 102.32C86.9428 102.97 86.2216 103.839 85.7493 104.845C85.277 105.852 85.0693 106.962 85.1458 108.071Z" fill="#E58A7B"/>
<path d="M85.6195 102.693C83.2196 103.567 80.0198 102.915 81.2751 110.317C82.6043 118.157 80.5613 120.735 80.5613 120.735C80.5613 120.735 89.6623 122.673 98.9541 120.618C98.9541 120.618 96.1174 115.658 96.9112 112.003C97.9265 107.388 97.1265 105.684 97.1265 105.684C97.1265 105.684 88.9916 101.462 85.6195 102.693Z" fill="#263238"/>
<path d="M95.7728 110.563C95.7753 111.472 96.0356 112.362 96.5235 113.129C97.1758 114.126 97.945 113.745 98.1357 112.686C98.308 111.757 98.1788 110.114 97.3481 109.474C96.5174 108.834 95.7851 109.462 95.7728 110.563Z" fill="#E58A7B"/>
<path d="M83.5335 103.499C82.8443 101.561 86.1302 98.5763 93.0837 99.807C100.037 101.038 100.339 106.828 100.339 106.828L98.9356 105.154L98.9972 106.914L91.853 108.286L83.5335 103.499Z" fill="#263238"/>
<path d="M84.1243 124.944C84.0832 124.663 84.1535 124.377 84.3202 124.147C84.4869 123.917 84.7367 123.762 85.0165 123.713C87.1826 123.356 92.1053 122.63 94.579 122.975C96.4251 123.233 96.9051 124.304 96.9851 125.184C96.9976 125.338 96.977 125.493 96.9246 125.639C96.8723 125.784 96.7894 125.917 96.6816 126.027C96.5737 126.138 96.4434 126.224 96.2994 126.281C96.1554 126.337 96.001 126.362 95.8467 126.353L85.1519 125.873C84.8998 125.861 84.6598 125.761 84.4725 125.592C84.2853 125.422 84.1622 125.194 84.1243 124.944Z" fill="#4CAF4F"/>
<path opacity="0.6" d="M84.1243 124.944C84.0832 124.663 84.1535 124.377 84.3202 124.147C84.4869 123.917 84.7367 123.762 85.0165 123.713C87.1826 123.356 92.1053 122.63 94.579 122.975C96.4251 123.233 96.9051 124.304 96.9851 125.184C96.9976 125.338 96.977 125.493 96.9246 125.639C96.8723 125.784 96.7894 125.917 96.6816 126.027C96.5737 126.138 96.4434 126.224 96.2994 126.281C96.1554 126.337 96.001 126.362 95.8467 126.353L85.1519 125.873C84.8998 125.861 84.6598 125.761 84.4725 125.592C84.2853 125.422 84.1622 125.194 84.1243 124.944Z" fill="black"/>
<path d="M90.3086 232.445L94.2776 235.202L100.917 226.2L96.9482 223.449L90.3086 232.445Z" fill="#E58A7B"/>
<path d="M81.0538 232.267L85.2443 234.654L91.1209 225.135L86.9304 222.747L81.0538 232.267Z" fill="#E58A7B"/>
<path d="M100.911 226.2L97.4896 230.839L93.5206 228.089L96.9419 223.449L100.911 226.2Z" fill="#CF6F64"/>
<path d="M86.924 222.747L91.1207 225.141L88.0932 230.046L83.8965 227.652L86.924 222.747Z" fill="#CF6F64"/>
<path d="M93.6561 154.998C93.6561 154.998 109.151 174.523 106.24 193.198C103.896 208.281 90.2963 228.704 90.2963 228.704L83.9028 225.529C88.4093 216.499 92.2551 207.154 95.4099 197.567C96.3827 194.591 96.6667 191.433 96.2403 188.331C95.8139 185.229 94.6883 182.264 92.9485 179.661C85.0966 168.197 72.5189 175.021 80.9799 154.998H93.6561Z" fill="#4CAF4F"/>
<path opacity="0.6" d="M93.6561 154.998C93.6561 154.998 109.151 174.523 106.24 193.198C103.896 208.281 90.2963 228.704 90.2963 228.704L83.9028 225.529C88.4093 216.499 92.2551 207.154 95.4099 197.567C96.3827 194.591 96.6667 191.433 96.2403 188.331C95.8139 185.229 94.6883 182.264 92.9485 179.661C85.0966 168.197 72.5189 175.021 80.9799 154.998H93.6561Z" fill="black"/>
<path opacity="0.4" d="M101.256 167.539L99.0034 165.299C99.0034 165.477 103.366 192.411 104.591 199.98C105.313 197.769 105.867 195.506 106.246 193.211C107.686 184.048 104.677 174.689 101.256 167.539Z" fill="black"/>
<path d="M100.573 154.998C100.573 154.998 119.23 179.538 119.759 194.251C120.196 206.558 99.4526 230.402 99.4526 230.402L93.4222 226.501C93.4222 226.501 105.563 209.567 108.621 195.734C107.44 182.024 82.4567 154.998 82.4567 154.998H100.573Z" fill="#4CAF4F"/>
<path opacity="0.6" d="M100.573 154.998C100.573 154.998 119.23 179.538 119.759 194.251C120.196 206.558 99.4526 230.402 99.4526 230.402L93.4222 226.501C93.4222 226.501 105.563 209.567 108.621 195.734C107.44 182.024 82.4567 154.998 82.4567 154.998H100.573Z" fill="black"/>
<path d="M77.4909 125.713C75.4972 126.187 73.5835 133.436 73.5835 133.436L81.3799 138.642C81.3799 138.642 83.9767 132.907 83.066 130.396C82.1245 127.781 79.9954 125.116 77.4909 125.713Z" fill="#4CAF4F"/>
<path opacity="0.2" d="M79.0168 130.384L78.4753 136.703L81.3736 138.648C82.1739 136.846 82.7664 134.959 83.1397 133.024L79.0168 130.384Z" fill="black"/>
<path d="M102.88 125.855C102.88 125.855 105.182 126.661 100.573 154.992H80.9676C81.2998 146.992 81.306 142.069 77.4908 125.713C80.236 125.148 83.0185 124.781 85.8165 124.618C88.7807 124.405 91.7564 124.405 94.7206 124.618C98.5481 124.969 102.88 125.855 102.88 125.855Z" fill="#4CAF4F"/>
<path d="M104.874 130.384C105.317 131.614 105.785 132.937 106.277 134.211C106.769 135.485 107.237 136.796 107.735 138.088L109.243 141.952L109.624 142.918L109.821 143.398L109.914 143.638C109.914 143.681 109.914 143.681 109.914 143.675C109.801 143.517 109.654 143.386 109.483 143.294C109.239 143.151 108.965 143.068 108.683 143.054C108.449 143.046 108.215 143.091 108 143.183C107.717 143.312 107.717 143.368 107.723 143.361C107.774 143.32 107.82 143.273 107.858 143.22C108.199 142.773 108.494 142.292 108.738 141.786C109.027 141.22 109.304 140.617 109.581 140.008C110.123 138.777 110.621 137.503 111.12 136.217C111.618 134.931 112.092 133.633 112.553 132.322L113.956 128.396L116.326 129.012C115.858 131.818 115.255 134.55 114.529 137.331C114.178 138.716 113.766 140.088 113.298 141.472C113.064 142.168 112.806 142.857 112.51 143.565C112.203 144.333 111.823 145.07 111.378 145.767C111.214 146.002 111.033 146.224 110.837 146.432C110.522 146.771 110.141 147.042 109.717 147.226C109.34 147.387 108.932 147.463 108.523 147.447C108.064 147.43 107.617 147.297 107.225 147.06C106.761 146.77 106.376 146.371 106.105 145.897C106.012 145.737 105.932 145.577 105.877 145.46L105.76 145.226L105.526 144.746L105.058 143.792C104.443 142.512 103.828 141.22 103.292 139.922C102.757 138.623 102.191 137.306 101.662 135.983C101.133 134.66 100.659 133.337 100.21 131.91L104.874 130.384Z" fill="#E58A7B"/>
<path d="M102.88 125.855C105.237 126.415 107.889 133.38 107.889 133.38L100.88 139.343C100.88 139.343 96.3451 131.75 97.2619 129.245C98.2157 126.636 99.8033 125.122 102.88 125.855Z" fill="#4CAF4F"/>
<path d="M115.07 126.193L117.532 124.138L119.242 126.802L117.981 129.024C117.981 129.024 115.975 130.87 114.203 129.928C113.921 129.296 113.854 128.589 114.01 127.915C114.167 127.241 114.539 126.637 115.07 126.193Z" fill="#E58A7B"/>
<path d="M121.974 124.144L121.79 124.815L117.895 125.467L117.513 124.138L121.974 124.144Z" fill="#E58A7B"/>
<path d="M99.9327 230.716L92.9054 226.175L94.1669 223.984L102.062 228.84L99.9327 230.716Z" fill="#4CAF4F"/>
<path d="M87.9948 234.335C87.3782 234.259 86.7858 234.049 86.2595 233.719C86.2378 233.712 86.219 233.698 86.2057 233.679C86.1923 233.66 86.1852 233.638 86.1852 233.615C86.1852 233.592 86.1923 233.569 86.2057 233.55C86.219 233.532 86.2378 233.518 86.2595 233.51C86.4503 233.448 88.1056 232.938 88.5855 233.332C88.6395 233.376 88.6805 233.435 88.7043 233.501C88.7281 233.567 88.7338 233.638 88.7209 233.707C88.7124 233.818 88.6757 233.924 88.6143 234.017C88.5529 234.11 88.4689 234.185 88.3702 234.236C88.2549 234.299 88.1261 234.333 87.9948 234.335ZM86.6103 233.658C87.3795 234.052 87.9948 234.193 88.2902 234.045C88.3545 234.01 88.4086 233.958 88.4474 233.896C88.4862 233.833 88.5083 233.762 88.5117 233.688C88.5117 233.59 88.5117 233.547 88.4563 233.522C88.1979 233.313 87.2748 233.473 86.598 233.658H86.6103Z" fill="#263238"/>
<path d="M86.3026 233.762C86.2702 233.762 86.2392 233.749 86.2165 233.725C86.2073 233.708 86.2025 233.689 86.2025 233.67C86.2025 233.651 86.2073 233.632 86.2165 233.615C86.2165 233.559 86.6164 232.224 87.2441 231.922C87.3243 231.886 87.4114 231.867 87.4995 231.867C87.5876 231.867 87.6747 231.886 87.7548 231.922C87.8413 231.95 87.9161 232.005 87.9674 232.08C88.0186 232.154 88.0435 232.244 88.0379 232.335C87.9948 232.888 86.8687 233.651 86.3518 233.781L86.3026 233.762ZM87.4964 232.082C87.4365 232.084 87.3778 232.099 87.3241 232.125C86.9426 232.31 86.6288 233.03 86.4749 233.467C87.0164 233.239 87.761 232.636 87.7856 232.298C87.7856 232.242 87.7856 232.175 87.6441 232.113C87.598 232.088 87.5481 232.072 87.4964 232.064V232.082Z" fill="#263238"/>
<path d="M96.7759 236.993C96.0805 236.993 95.1145 236.1 94.5853 235.553C94.5717 235.534 94.5645 235.511 94.5645 235.488C94.5645 235.465 94.5717 235.442 94.5853 235.424C94.5974 235.404 94.6147 235.388 94.6353 235.377C94.6558 235.366 94.6789 235.361 94.7022 235.362C94.9483 235.362 97.0836 235.682 97.3851 236.285C97.417 236.339 97.4339 236.401 97.4339 236.464C97.4339 236.526 97.417 236.588 97.3851 236.642C97.3399 236.736 97.2715 236.817 97.1865 236.877C97.1015 236.937 97.0025 236.975 96.899 236.987L96.7759 236.993ZM94.9914 235.639C95.7667 236.39 96.4498 236.808 96.8374 236.759C96.9053 236.75 96.97 236.725 97.0258 236.685C97.0816 236.645 97.1268 236.592 97.1574 236.531C97.1712 236.51 97.1785 236.486 97.1785 236.46C97.1785 236.435 97.1712 236.411 97.1574 236.39C96.9974 236.057 95.859 235.774 94.9914 235.639Z" fill="#263238"/>
<path d="M95.059 235.608C94.9209 235.612 94.7827 235.602 94.6467 235.577C94.6277 235.575 94.6098 235.567 94.5947 235.555C94.5796 235.543 94.5679 235.528 94.5606 235.51C94.5514 235.492 94.5466 235.472 94.5466 235.451C94.5466 235.431 94.5514 235.411 94.5606 235.393C94.5975 235.35 95.4282 234.347 96.2159 234.279C96.4389 234.262 96.6597 234.332 96.8312 234.476C97.0712 234.685 97.0589 234.87 96.9974 234.987C96.8435 235.405 95.779 235.608 95.059 235.608ZM94.899 235.381C95.5882 235.417 96.6897 235.19 96.8312 234.888C96.8312 234.888 96.8805 234.79 96.7205 234.654C96.6568 234.599 96.5824 234.557 96.502 234.532C96.4215 234.507 96.3367 234.498 96.2528 234.507C95.7222 234.655 95.2498 234.962 94.899 235.387V235.381Z" fill="#263238"/>
<path d="M86.4687 233.098L81.2505 231.621C81.1606 231.593 81.0637 231.6 80.9786 231.64C80.8934 231.68 80.8259 231.75 80.789 231.836L79.0291 235.793C78.9878 235.894 78.9684 236.003 78.9722 236.112C78.976 236.222 79.0029 236.329 79.0511 236.427C79.0993 236.526 79.1678 236.613 79.2521 236.682C79.3363 236.752 79.4344 236.804 79.5398 236.833C81.3859 237.313 82.272 237.448 84.5672 238.107C85.9825 238.5 88.0009 239.233 89.9515 239.786C91.9022 240.34 92.5545 238.439 91.7976 238.033C88.3763 236.224 88.1055 234.956 87.1702 233.602C87.0027 233.357 86.7544 233.178 86.4687 233.098Z" fill="#4CAF4F"/>
<path d="M94.7267 234.833L90.2716 231.756C90.196 231.701 90.1029 231.676 90.0099 231.685C89.9169 231.694 89.8305 231.737 89.767 231.805L86.8133 234.981C86.7413 235.063 86.6876 235.159 86.6558 235.264C86.624 235.368 86.6148 235.478 86.6287 235.586C86.6427 235.695 86.6796 235.799 86.7368 235.891C86.7941 235.984 86.8705 236.064 86.961 236.125C88.5301 237.177 89.3424 237.602 91.3054 238.962C92.5361 239.799 94.9175 241.657 96.5789 242.814C98.2403 243.971 99.4772 242.383 98.8865 241.756C96.2405 238.931 95.662 237.159 95.2251 235.553C95.1493 235.262 94.9727 235.006 94.7267 234.833Z" fill="#4CAF4F"/>
<path d="M91.1147 229.11L83.0844 225.116L83.9151 222.938L92.493 227.147L91.1147 229.11Z" fill="#4CAF4F"/>
<path d="M80.6722 153.841L79.9953 155.613C79.9276 155.748 80.0876 155.89 80.3153 155.89H100.671C100.849 155.89 100.997 155.804 101.009 155.693L101.182 153.933C101.182 153.816 101.04 153.711 100.849 153.711H80.9922C80.9324 153.706 80.8721 153.715 80.8165 153.737C80.7608 153.76 80.7113 153.795 80.6722 153.841Z" fill="#4CAF4F"/>
<path opacity="0.4" d="M80.6722 153.841L79.9953 155.613C79.9276 155.748 80.0876 155.89 80.3153 155.89H100.671C100.849 155.89 100.997 155.804 101.009 155.693L101.182 153.933C101.182 153.816 101.04 153.711 100.849 153.711H80.9922C80.9324 153.706 80.8721 153.715 80.8165 153.737C80.7608 153.76 80.7113 153.795 80.6722 153.841Z" fill="white"/>
<path d="M83.8782 156.062H83.3428C83.2382 156.062 83.1582 156.007 83.1644 155.939L83.4167 153.656C83.4167 153.595 83.5151 153.539 83.6197 153.539H84.1551C84.2597 153.539 84.3397 153.595 84.3335 153.656L84.0812 155.939C84.0751 156.007 83.9828 156.062 83.8782 156.062Z" fill="#4CAF4F"/>
<path d="M96.4312 156.062H95.902C95.7974 156.062 95.7174 156.007 95.7235 155.939L95.9697 153.656C95.9697 153.595 96.0743 153.539 96.1789 153.539H96.7081C96.8127 153.539 96.8988 153.595 96.8865 153.656L96.6404 155.939C96.6096 156.007 96.5419 156.062 96.4312 156.062Z" fill="#4CAF4F"/>
<path d="M83.4105 260.271C92.515 260.271 99.8957 259.737 99.8957 259.078C99.8957 258.418 92.515 257.884 83.4105 257.884C74.306 257.884 66.9253 258.418 66.9253 259.078C66.9253 259.737 74.306 260.271 83.4105 260.271Z" fill="#F5F5F5"/>
<path d="M93.453 257.392C90.5363 256.543 87.2995 255.453 85.3427 254.315C85.2873 254.278 85.2258 254.26 85.1704 254.229V241.023H91.0716C91.5196 240.997 91.9405 240.8 92.2483 240.474C92.5561 240.147 92.7275 239.715 92.7275 239.267C92.7275 238.818 92.5561 238.386 92.2483 238.06C91.9405 237.733 91.5196 237.536 91.0716 237.51H85.2012V177.316H81.6568V237.51H75.7925C75.553 237.496 75.3132 237.531 75.0878 237.612C74.8623 237.694 74.6559 237.821 74.4814 237.986C74.3068 238.151 74.1677 238.349 74.0727 238.569C73.9776 238.789 73.9286 239.027 73.9286 239.267C73.9286 239.507 73.9776 239.744 74.0727 239.964C74.1677 240.184 74.3068 240.383 74.4814 240.547C74.6559 240.712 74.8623 240.839 75.0878 240.921C75.3132 241.003 75.553 241.038 75.7925 241.023H81.6568V254.21C81.6014 254.21 81.546 254.26 81.4906 254.297C79.503 255.453 76.2909 256.543 73.3742 257.373C73.1771 257.433 73.008 257.561 72.8972 257.735C72.7865 257.908 72.7416 258.116 72.7706 258.319C72.7996 258.523 72.9006 258.71 73.0554 258.845C73.2101 258.981 73.4083 259.057 73.6142 259.059H93.213C93.4097 259.046 93.5959 258.965 93.7404 258.831C93.8849 258.697 93.9791 258.518 94.0072 258.323C94.0352 258.127 93.9955 257.929 93.8947 257.759C93.7938 257.59 93.6379 257.46 93.453 257.392Z" fill="#E0E0E0"/>
<path d="M94.3576 171.187H72.4758C70.7153 171.187 69.2883 172.614 69.2883 174.375V180.879C69.2883 182.64 70.7153 184.067 72.4758 184.067H94.3576C96.118 184.067 97.5451 182.64 97.5451 180.879V174.375C97.5451 172.614 96.118 171.187 94.3576 171.187Z" fill="#4CAF4F"/>
<path d="M72.2727 184.073V185.193C72.2727 186.116 73.2757 186.867 74.5064 186.867H92.3516C93.5822 186.867 94.5853 186.116 94.5853 185.193V184.073H72.2727Z" fill="#4CAF4F"/>
<path opacity="0.3" d="M72.2727 184.073V185.193C72.2727 186.116 73.2757 186.867 74.5064 186.867H92.3516C93.5822 186.867 94.5853 186.116 94.5853 185.193V184.073H72.2727Z" fill="white"/>
</svg>
