<svg width="346" height="34" viewBox="0 0 346 34" fill="none" xmlns="http://www.w3.org/2000/svg">
<rect width="33.4165" height="33.4165" rx="5.56856" fill="#E8F5E9"/>
<g clip-path="url(#clip0_211_2510)">
<path fill-rule="evenodd" clip-rule="evenodd" d="M7.20766 0.135275C11.0525 0.135275 14.1694 3.25216 14.1694 7.09705V0.135275H21.1312C24.976 0.135275 28.093 3.25216 28.093 7.09705C28.093 10.9419 24.976 14.0588 21.1312 14.0588C24.976 14.0588 28.093 17.1757 28.093 21.0206C28.093 22.9297 27.3245 24.6594 26.08 25.9171L26.0539 25.9433L26.0308 25.9663C24.7728 27.2126 23.0419 27.9824 21.1312 27.9824C19.2335 27.9824 17.5131 27.223 16.2573 25.9916C16.241 25.9756 16.2247 25.9595 16.2085 25.9433C16.1932 25.9281 16.178 25.9128 16.1629 25.8974C14.9299 24.6413 14.1694 22.9198 14.1694 21.0206C14.1694 24.8654 11.0525 27.9824 7.20766 27.9824C3.36278 27.9824 0.245888 24.8654 0.245888 21.0206V14.0588H7.20766C3.36278 14.0588 0.245888 10.9419 0.245888 7.09705C0.245888 3.25216 3.36278 0.135275 7.20766 0.135275ZM12.7771 7.09705C12.7771 10.173 10.2836 12.6665 7.20766 12.6665V1.52763C10.2836 1.52763 12.7771 4.02114 12.7771 7.09705ZM26.7006 21.0206C26.7006 17.9447 24.2071 15.4512 21.1312 15.4512C18.0553 15.4512 15.5618 17.9447 15.5618 21.0206H26.7006ZM1.63824 15.4512V21.0206C1.63824 24.0965 4.13175 26.59 7.20766 26.59C10.2836 26.59 12.7771 24.0965 12.7771 21.0206V15.4512H1.63824ZM15.5618 12.6665V1.52763H21.1312C24.2071 1.52763 26.7006 4.02114 26.7006 7.09705C26.7006 10.173 24.2071 12.6665 21.1312 12.6665H15.5618Z" fill="#5417D7"/>
</g>
<rect x="61.9598" width="33.4165" height="33.4165" rx="5.56856" fill="#F5F7FA"/>
<g clip-path="url(#clip1_211_2510)">
<path fill-rule="evenodd" clip-rule="evenodd" d="M68.9898 9.71957L62.0379 16.6015C63.4284 17.9781 65.0168 19.1382 66.7487 20.0458C67.2274 21.3028 67.9777 22.4817 68.9997 23.4933C72.8446 27.2996 79.0784 27.2996 82.9232 23.4933C83.9452 22.4817 84.6955 21.3028 85.1742 20.0457C86.906 19.1382 88.4945 17.9781 89.885 16.6015L82.9387 9.72516C82.9336 9.72002 82.9284 9.71487 82.9232 9.70974C79.0784 5.90351 72.8446 5.90351 68.9997 9.70974C68.9964 9.71301 68.9931 9.71629 68.9898 9.71957ZM82.258 21.2874C80.2321 21.9643 78.1055 22.3109 75.9614 22.3109C73.8174 22.3109 71.6908 21.9643 69.6649 21.2874C69.8844 21.5757 70.1268 21.8524 70.392 22.115C73.468 25.16 78.4549 25.16 81.5309 22.115C81.7961 21.8524 82.0385 21.5757 82.258 21.2874ZM70.5348 10.9503C71.0572 11.2919 71.6126 11.5842 72.1937 11.8225C73.3882 12.3123 74.6685 12.5644 75.9614 12.5644C77.2544 12.5644 78.5347 12.3123 79.7292 11.8225C80.3103 11.5842 80.8657 11.2919 81.3881 10.9502C78.3506 8.08906 73.5723 8.08906 70.5348 10.9503Z" fill="#3B4158"/>
</g>
<rect x="123.92" width="33.4165" height="33.4165" rx="5.56856" fill="#F5F7FA"/>
<g clip-path="url(#clip2_211_2510)">
<path d="M162.206 13.5869C162.21 13.5578 162.21 13.5285 162.206 13.4995C162.21 13.4758 162.21 13.4517 162.206 13.428L161.923 11.3863C161.882 11.1421 161.772 10.9138 161.607 10.727L161.558 10.6714L161.469 10.584L156.558 6.43716L156.696 6.57222C156.583 6.44002 156.442 6.33429 156.282 6.2628C156.122 6.1913 155.948 6.15587 155.772 6.15912H154.281C154.039 6.15441 153.802 6.22998 153.609 6.37361C153.406 6.23085 153.162 6.15566 152.912 6.15912H151.421C151.225 6.15601 151.032 6.20359 150.862 6.29705C150.691 6.39052 150.548 6.52655 150.449 6.69137C150.295 6.92679 150.237 7.21042 150.286 7.48579L150.473 8.77273C150.349 8.70411 150.21 8.66851 150.068 8.66947H142.848C142.589 8.67106 142.336 8.74549 142.118 8.88395C141.908 9.01282 141.74 9.19735 141.632 9.4162L141.073 8.9475C140.853 8.74789 140.563 8.63969 140.263 8.64563H128.934C128.675 8.65027 128.42 8.72147 128.197 8.85218C127.892 9.02741 127.668 9.31235 127.573 9.64659L123.975 21.4436C123.908 21.638 123.901 21.8476 123.956 22.0457C124.011 22.2438 124.125 22.4214 124.283 22.5558C124.324 22.5901 124.368 22.6219 124.413 22.6511C124.413 22.6511 124.34 22.6034 124.299 22.5637L129.21 26.7185C129.418 26.906 129.689 27.0108 129.972 27.0124H141.389C141.65 27.0058 141.904 26.9318 142.127 26.7979C142.252 26.7306 142.365 26.6418 142.459 26.5358L142.499 26.4802L142.564 26.4007L142.613 26.3133L143.148 26.7662C143.352 26.9462 143.618 27.0453 143.893 27.0442H155.335C155.595 27.0357 155.849 26.9619 156.072 26.8297C156.195 26.7582 156.307 26.67 156.404 26.5676L156.445 26.512L156.51 26.4325C156.544 26.3823 156.574 26.3291 156.599 26.2736C156.625 26.2255 156.647 26.1749 156.664 26.1227L159.945 15.3505V15.2551C159.949 15.2182 159.949 15.1809 159.945 15.1439V15.0724C159.949 15.0487 159.949 15.0246 159.945 15.0009C159.949 14.9507 159.949 14.9002 159.945 14.85H160.999C161.091 14.8582 161.183 14.8582 161.274 14.85H161.347C161.407 14.8326 161.464 14.8086 161.518 14.7785H161.599L161.744 14.6673L161.809 14.6196L161.923 14.4766V14.429L162.004 14.2939C161.999 14.2676 161.999 14.2407 162.004 14.2145C161.999 14.2016 161.999 14.1876 162.004 14.1747C162.021 14.1282 162.034 14.0803 162.044 14.0317C162.04 14.0161 162.04 13.9997 162.044 13.9841C162.04 13.9604 162.04 13.9362 162.044 13.9126C162.044 13.9126 162.206 13.6027 162.206 13.5869Z" fill="black"/>
<path d="M140.595 9.55129C140.638 9.58943 140.668 9.63958 140.681 9.69497C140.694 9.75037 140.69 9.80835 140.668 9.86111L137.078 21.6502C137.033 21.7789 136.941 21.8865 136.819 21.9521C136.72 22.017 136.605 22.0553 136.487 22.0633H125.077C124.98 22.0587 124.888 22.0191 124.818 21.9521C124.777 21.9145 124.748 21.8658 124.735 21.8121C124.722 21.7583 124.725 21.7019 124.745 21.6502L128.343 9.86111C128.384 9.73078 128.474 9.62029 128.594 9.55129C128.695 9.49105 128.809 9.45561 128.926 9.44802H140.336C140.432 9.44893 140.525 9.48585 140.595 9.55129ZM134.639 19.2749L136.787 12.2364H130.774L128.635 19.2749H134.639ZM151.486 9.67045C151.525 9.7148 151.573 9.74997 151.628 9.77335C151.683 9.79673 151.742 9.80772 151.802 9.8055H153.285C153.341 9.80604 153.397 9.79247 153.446 9.76606C153.496 9.73965 153.538 9.70127 153.568 9.65456C153.595 9.61807 153.613 9.57677 153.623 9.5331C153.633 9.48943 153.633 9.44429 153.625 9.40035L153.333 7.3031C153.306 7.20604 153.256 7.11641 153.187 7.04095C153.148 6.9966 153.1 6.96143 153.045 6.93804C152.99 6.91466 152.931 6.90368 152.871 6.9059H151.389C151.332 6.90536 151.276 6.91893 151.227 6.94534C151.177 6.97175 151.135 7.01012 151.105 7.05684C151.048 7.16805 151.024 7.23955 151.048 7.3031L151.348 9.40035C151.363 9.50247 151.412 9.5971 151.486 9.67045ZM156.194 7.28722C156.166 7.19015 156.116 7.10052 156.048 7.02506C156.011 6.98087 155.963 6.94571 155.91 6.92229C155.857 6.89887 155.798 6.88782 155.74 6.89001H154.249C154.193 6.88846 154.138 6.90167 154.09 6.92824C154.041 6.95481 154.001 6.99376 153.973 7.04095C153.92 7.11142 153.896 7.19995 153.909 7.28722L154.208 9.38446C154.227 9.4855 154.275 9.5792 154.346 9.65456C154.386 9.69804 154.435 9.73262 154.489 9.75593C154.544 9.77924 154.603 9.79073 154.662 9.7896H156.153C156.209 9.79033 156.263 9.77677 156.312 9.75027C156.36 9.72378 156.4 9.6853 156.429 9.63868C156.457 9.60314 156.477 9.56185 156.486 9.51786C156.496 9.47388 156.496 9.4283 156.485 9.38446L156.194 7.28722ZM150.181 10.4649L150.035 9.43213H142.848C142.735 9.43823 142.626 9.47389 142.532 9.5354C142.472 9.56731 142.42 9.61153 142.379 9.66502C142.339 9.71851 142.311 9.77999 142.297 9.84522L141.697 11.8153C141.673 11.8646 141.665 11.9198 141.674 11.9737C141.682 12.0276 141.707 12.0776 141.746 12.1172C141.814 12.1802 141.903 12.2169 141.997 12.2205H150.732L148.585 19.259H139.874C139.762 19.2615 139.652 19.2945 139.558 19.3543C139.443 19.4257 139.36 19.536 139.323 19.6642L138.715 21.6343C138.695 21.6849 138.69 21.7398 138.7 21.793C138.71 21.8464 138.735 21.8959 138.772 21.9362C138.838 22.0034 138.928 22.0431 139.023 22.0474H150.465C150.583 22.0374 150.697 21.9992 150.797 21.9362C150.917 21.8703 151.006 21.7624 151.048 21.6343L154.338 10.8621H150.635C150.576 10.8632 150.518 10.8525 150.463 10.8306C150.409 10.8088 150.36 10.7762 150.319 10.735C150.252 10.6629 150.205 10.5755 150.181 10.4808V10.4649Z" fill="white"/>
</g>
<rect x="185.879" width="33.4165" height="33.4165" rx="5.56856" fill="#F5F7FA"/>
<g clip-path="url(#clip3_211_2510)">
<path d="M216.509 9.33677C216.509 9.36031 216.509 9.38973 216.502 9.40739C216.472 9.63691 216.472 9.86642 216.49 10.1018C216.502 10.1607 216.515 10.2195 216.564 10.2666C216.643 10.3549 216.766 10.3372 216.815 10.2313C216.84 10.1783 216.84 10.1254 216.827 10.0724C216.766 9.84877 216.754 9.61337 216.748 9.38384C216.748 9.37208 216.748 9.35442 216.748 9.33677C216.815 9.33088 216.876 9.32499 216.932 9.32499C216.975 9.31911 217.011 9.31322 217.042 9.29557C217.134 9.24849 217.134 9.14844 217.036 9.10136C216.999 9.08371 216.95 9.07782 216.907 9.07782C216.754 9.08371 216.601 9.08371 216.447 9.08371C216.392 9.08371 216.337 9.08959 216.282 9.09548C216.251 9.10136 216.214 9.10136 216.19 9.11902C216.147 9.13667 216.122 9.1661 216.122 9.20729C216.128 9.24849 216.147 9.27203 216.19 9.28969C216.214 9.30734 216.245 9.31322 216.276 9.31322C216.349 9.31911 216.429 9.33088 216.509 9.33677ZM218.195 9.60748C218.195 9.61337 218.201 9.61925 218.201 9.61925C218.225 9.77815 218.25 9.93116 218.268 10.0842C218.275 10.1371 218.281 10.1842 218.317 10.2254C218.397 10.3255 218.52 10.3137 218.575 10.2078C218.599 10.1548 218.606 10.1018 218.593 10.043C218.557 9.86642 218.538 9.68987 218.501 9.5192C218.477 9.41327 218.446 9.31322 218.416 9.21906C218.397 9.16021 218.354 9.11901 218.281 9.11313C218.207 9.10136 218.152 9.13667 218.121 9.18964C218.084 9.23672 218.054 9.2838 218.029 9.33677C217.986 9.43093 217.95 9.52509 217.9 9.61337C217.894 9.63691 217.888 9.65456 217.876 9.67221C217.87 9.66044 217.864 9.65456 217.864 9.65456C217.784 9.50743 217.71 9.36031 217.631 9.21906C217.618 9.20729 217.612 9.19552 217.606 9.18375C217.569 9.13079 217.526 9.10136 217.459 9.10136C217.398 9.10724 217.349 9.14256 217.318 9.19552C217.306 9.21906 217.306 9.23672 217.3 9.26026C217.275 9.44858 217.244 9.63691 217.22 9.82523C217.208 9.93116 217.201 10.0371 217.201 10.143C217.195 10.1666 217.201 10.196 217.214 10.2195C217.226 10.2666 217.263 10.296 217.312 10.3019C217.373 10.3078 217.416 10.2902 217.434 10.2431C217.453 10.2078 217.459 10.1783 217.465 10.1489C217.49 10.043 217.508 9.94293 217.526 9.84289C217.539 9.78403 217.545 9.73695 217.563 9.67221C217.575 9.69576 217.588 9.71341 217.6 9.73107C217.655 9.80169 217.71 9.87231 217.778 9.93116C217.845 9.97824 217.9 9.97236 217.956 9.91939C217.968 9.90762 217.974 9.90174 217.986 9.88996C218.041 9.80757 218.109 9.72518 218.164 9.64279C218.176 9.63102 218.183 9.61925 218.195 9.60748Z" fill="#3A3B7B"/>
<path d="M204.066 9.45245C204.024 9.56429 204.016 9.64487 204.035 9.71184C204.057 9.80291 204.113 9.83273 204.19 9.80957C204.91 9.63863 206.49 10.1238 207.074 10.259C207.212 10.2874 207.324 10.1166 207.23 9.9634C207.093 9.81506 205.514 9.17994 204.912 9.14531C204.676 9.13251 204.254 9.0744 204.066 9.45245Z" fill="#3A3B7B"/>
<path d="M210.239 7.39626C210.315 7.43878 210.358 7.47934 210.38 7.52466C210.411 7.58411 210.394 7.62524 210.341 7.64622C209.865 7.86923 209.232 8.82932 208.976 9.16045C208.914 9.23662 208.771 9.19235 208.75 9.06709C208.754 8.92545 209.316 7.88354 209.629 7.59976C209.752 7.48897 209.956 7.27157 210.239 7.39626Z" fill="#3A3B7B"/>
<path d="M206.448 6.9238C206.54 6.85709 206.636 6.83372 206.685 6.87707C207.403 7.46666 207.784 8.40033 208.02 9.25508C208.028 9.27499 208.029 9.30357 208.022 9.33338C208.019 9.35886 208 9.38578 207.969 9.4066C207.936 9.4296 207.908 9.4366 207.894 9.41678C207.579 9.00581 205.781 7.40679 206.448 6.9238Z" fill="#3A3B7B"/>
<path d="M191.237 17.1458C191.409 17.0227 191.596 16.9203 191.794 16.8409C192.001 16.784 192.222 16.7934 192.423 16.8677C192.624 16.9421 192.795 17.0772 192.909 17.2528C193.011 17.4279 193.05 17.63 193.022 17.8288C192.994 18.0275 192.9 18.2121 192.753 18.3548C192.639 18.4704 192.509 18.5711 192.368 18.6543C191.738 19.0449 191.103 19.414 190.467 19.8045C190.337 19.9022 190.199 19.9899 190.055 20.0666C189.835 20.1718 189.584 20.2 189.345 20.1463C189.106 20.0926 188.893 19.9603 188.745 19.7724C188.634 19.6393 188.541 19.4938 188.466 19.3391C187.864 18.1247 187.24 16.9157 186.661 15.68C186.393 15.1451 186.176 14.5298 185.964 13.936C185.872 13.7635 185.854 13.5635 185.914 13.3785C185.974 13.1935 186.106 13.0381 186.283 12.9454C186.46 12.8528 186.668 12.8301 186.863 12.8822C187.057 12.9343 187.222 13.0572 187.324 13.2246C187.636 13.6222 187.912 14.0446 188.149 14.4871C188.751 15.557 189.325 16.6268 189.904 17.6647C189.938 17.722 189.975 17.7774 190.016 17.8305C190.452 17.6544 190.863 17.4242 191.237 17.1458Z" fill="#3A3B7B"/>
<path d="M197.461 16.7725C196.084 18.3185 193.776 17.928 192.617 15.938C191.792 14.5257 191.647 12.1933 193.442 10.7222C193.825 10.4142 194.283 10.2044 194.774 10.1123C195.376 10.0296 195.989 10.1314 196.526 10.4033C197.064 10.6752 197.498 11.1032 197.767 11.6262C198.748 13.3381 198.609 15.5207 197.461 16.7725ZM196.903 13.1669C196.757 12.7462 196.463 12.3871 196.073 12.1505C195.852 11.9992 195.583 11.9256 195.312 11.9422C195.041 11.9588 194.784 12.0644 194.585 12.2414C193.787 12.9208 193.62 14.531 194.2 15.4886C194.274 15.6447 194.382 15.7835 194.518 15.8952C194.654 16.0069 194.813 16.0888 194.985 16.1351C195.157 16.1815 195.337 16.1912 195.514 16.1637C195.69 16.136 195.858 16.0718 196.006 15.9754C196.438 15.6539 196.755 15.2112 196.913 14.7088C197.071 14.2065 197.061 13.6694 196.886 13.1723L196.903 13.1669Z" fill="#3A3B7B"/>
<path d="M203.079 13.8411C202.938 13.8702 202.792 13.8719 202.651 13.8462C202.509 13.8205 202.374 13.7678 202.254 13.6913C202.149 13.6336 202.058 13.5543 201.989 13.459C201.92 13.3637 201.873 13.2548 201.853 13.1402C201.833 13.0257 201.839 12.9082 201.872 12.7963C201.904 12.6844 201.963 12.5808 202.042 12.493C202.18 12.3166 202.377 12.1904 202.599 12.1346C203.181 11.9727 203.779 11.874 204.383 11.8404C204.516 11.8256 204.65 11.8364 204.779 11.8721C204.907 11.9079 205.026 11.9679 205.13 12.0486C205.234 12.1293 205.32 12.2292 205.383 12.3423C205.446 12.4553 205.485 12.5793 205.498 12.707C205.672 13.3343 205.691 13.9919 205.553 14.6275C205.052 16.6817 203.324 17.3878 201.384 16.7299C200.84 16.5539 200.362 16.2261 200.013 15.7884C199.547 15.2611 199.217 14.6363 199.049 13.9642C198.913 13.3656 198.928 12.7445 199.093 12.1527C199.257 11.5608 199.567 11.0153 199.996 10.5619C200.404 10.069 200.932 9.6811 201.535 9.43312C201.915 9.23175 202.361 9.1745 202.783 9.27263C202.879 9.29809 202.966 9.34769 203.035 9.41629C203.104 9.4849 203.153 9.57 203.177 9.66278C203.2 9.75556 203.197 9.85264 203.168 9.94395C203.139 10.0353 203.085 10.1175 203.012 10.1821C202.873 10.303 202.721 10.4105 202.56 10.503C202.065 10.8059 201.634 11.1962 201.29 11.6532C201.064 11.9489 200.909 12.2885 200.835 12.648C200.76 13.0075 200.769 13.3782 200.86 13.7342C200.987 14.2194 201.267 14.655 201.663 14.9806C202.889 16.0505 204.483 15.018 204.205 13.5576C203.798 13.6539 203.441 13.7555 203.079 13.8411Z" fill="#3A3B7B"/>
<path d="M210.57 16.8582C208.758 17.9281 206.696 16.8582 206.245 14.6114C205.916 13.0066 206.54 10.7598 208.725 9.90385C209.19 9.72566 209.694 9.66309 210.191 9.72196C210.788 9.82683 211.335 10.1088 211.756 10.5283C212.177 10.9477 212.451 11.4833 212.537 12.0597C212.905 13.9695 212.069 16.0077 210.57 16.8582ZM211.2 13.258C211.199 12.8136 211.035 12.3836 210.737 12.0437C210.578 11.8334 210.347 11.6828 210.085 11.6174C209.823 11.552 209.545 11.576 209.299 11.6852C208.318 12.0918 207.627 13.5683 207.878 14.6542C207.897 14.8247 207.955 14.989 208.047 15.1358C208.139 15.2826 208.264 15.4083 208.412 15.5041C208.56 15.5998 208.728 15.6634 208.904 15.6904C209.081 15.7172 209.261 15.7069 209.433 15.6599C209.951 15.4861 210.4 15.1612 210.717 14.7306C211.034 14.2999 211.203 13.7851 211.2 13.258Z" fill="#3A3B7B"/>
<path d="M214.369 17.3074C214.342 17.5032 214.235 17.6806 214.071 17.8005C213.908 17.9203 213.701 17.9729 213.497 17.9467C213.293 17.9205 213.108 17.8175 212.983 17.6605C212.858 17.5035 212.804 17.3053 212.831 17.1095C212.858 16.9137 212.966 16.7364 213.129 16.6165C213.293 16.4966 213.499 16.444 213.703 16.4702C213.907 16.4965 214.092 16.5994 214.217 16.7564C214.342 16.9134 214.397 17.1117 214.369 17.3074ZM213.884 10.0909C213.99 9.93552 214.146 9.81719 214.328 9.75357C214.51 9.68994 214.708 9.68442 214.893 9.73785C215.082 9.78309 215.248 9.88909 215.365 10.0381C215.482 10.1871 215.541 10.3701 215.534 10.5563C215.51 10.8551 215.463 11.1519 215.395 11.4443C215.211 12.434 215.033 13.4236 214.838 14.4026C214.748 14.7932 214.631 15.1676 214.503 15.5635C214.459 15.6872 214.384 15.799 214.286 15.8898C214.225 15.9581 214.147 16.0104 214.059 16.042C213.971 16.0737 213.876 16.0836 213.784 16.0708C213.691 16.058 213.603 16.0229 213.528 15.9689C213.453 15.9148 213.394 15.8434 213.355 15.7614C213.289 15.6143 213.253 15.4562 213.249 15.296C213.249 14.6327 213.249 13.964 213.294 13.2953C213.369 12.341 213.518 11.3933 213.74 10.46C213.766 10.335 213.815 10.2154 213.884 10.107V10.0909Z" fill="#3A3B7B"/>
<path fill-rule="evenodd" clip-rule="evenodd" d="M188.882 21.6063C188.816 21.7473 188.798 21.9045 188.83 22.0558C188.851 22.2552 188.898 22.4513 188.97 22.6397C189.059 22.8705 189.159 23.0986 189.282 23.3798C189.31 23.4445 189.34 23.512 189.371 23.5831C189.537 23.964 189.746 24.4509 190.024 25.1554C190.102 25.3556 190.172 25.5574 190.243 25.7605C190.271 25.8426 190.3 25.925 190.329 26.0075C190.434 26.301 190.614 26.5647 190.852 26.7736C190.954 26.8885 191.088 26.9722 191.239 27.014C191.393 27.0567 191.556 27.054 191.708 27.0062C191.861 26.9585 191.994 26.8679 192.092 26.7463C192.188 26.627 192.245 26.4833 192.256 26.3332C192.318 26.0407 192.297 25.7374 192.194 25.4555C192.032 24.9873 191.846 24.5185 191.633 24.0599L191.632 24.0579C191.28 23.3404 190.923 22.628 190.549 21.9152L190.546 21.9102C190.437 21.7245 190.294 21.5585 190.126 21.4196C190.016 21.2957 189.865 21.2121 189.698 21.1833C189.528 21.1539 189.352 21.1835 189.202 21.267C189.061 21.3446 188.948 21.4634 188.882 21.6063Z" fill="#3A3B7B"/>
<path fill-rule="evenodd" clip-rule="evenodd" d="M194.249 19.8397C193.698 19.7027 193.122 19.6828 192.563 19.7812C192.129 19.8222 191.703 19.9182 191.406 20.1083C191.256 20.2051 191.134 20.3294 191.066 20.4873C190.998 20.6461 190.99 20.8277 191.045 21.0301C191.147 21.4007 191.28 21.7611 191.411 22.1203L191.433 22.1785L191.433 22.1798C191.83 23.2234 192.231 24.2634 192.636 25.2999C192.683 25.4633 192.75 25.6208 192.834 25.7695L192.836 25.7722C192.948 25.9569 193.092 26.122 193.261 26.2607C193.346 26.337 193.451 26.3897 193.565 26.4133C193.679 26.4371 193.799 26.4302 193.91 26.3933C194.021 26.3565 194.119 26.2911 194.194 26.2043C194.267 26.1189 194.316 26.016 194.333 25.9065C194.406 25.6091 194.383 25.2973 194.266 25.013C194.23 24.9173 194.201 24.8196 194.171 24.7166C194.161 24.6823 194.151 24.6474 194.14 24.6118C195.066 24.2645 196.051 23.7974 196.397 22.7109C196.533 22.3354 196.544 21.9288 196.43 21.5469C196.315 21.1646 196.08 20.8256 195.756 20.5769C195.316 20.2286 194.801 19.977 194.249 19.8397ZM192.722 21.1724C192.74 21.1674 192.758 21.1627 192.777 21.1583C193.379 21.0674 193.996 21.1885 194.513 21.4995C194.741 21.6516 194.834 21.8206 194.85 21.9832C194.867 22.1506 194.803 22.332 194.676 22.5064C194.435 22.8359 193.996 23.0996 193.599 23.1487C193.31 22.5092 193.016 21.8438 192.722 21.1724Z" fill="#3A3B7B"/>
<path d="M197.922 18.669C198.579 18.3782 199.391 18.3279 200.027 18.5324C200.188 18.5772 200.327 18.6741 200.421 18.8064C200.514 18.938 200.557 19.0965 200.543 19.255C200.542 19.3579 200.515 19.4591 200.466 19.5504C200.416 19.6434 200.343 19.7233 200.253 19.7835C200.164 19.8437 200.061 19.8823 199.952 19.8962C199.844 19.91 199.734 19.8986 199.631 19.863L199.624 19.8603L199.616 19.8566C199.564 19.8302 199.508 19.8103 199.45 19.7974L199.447 19.7966C198.999 19.6825 198.577 19.8715 198.423 20.1037C198.349 20.2145 198.34 20.3262 198.402 20.4279C198.467 20.5368 198.628 20.659 198.953 20.7461C199.043 20.7697 199.135 20.7924 199.228 20.8155C199.485 20.8795 199.753 20.9459 200.011 21.038L200.012 21.0384C201.205 21.4741 201.65 22.3765 201.498 23.2253C201.347 24.0647 200.617 24.8285 199.518 25.0087C199.119 25.0938 198.703 25.0772 198.312 24.9607C197.92 24.8438 197.567 24.6306 197.287 24.3421L197.28 24.3345C197.191 24.2258 197.132 24.0982 197.106 23.9627C197.082 23.8404 197.094 23.714 197.142 23.5984C197.19 23.4835 197.271 23.3841 197.376 23.3116C197.486 23.2295 197.619 23.1802 197.758 23.17C197.897 23.1597 198.036 23.1887 198.158 23.2532C198.28 23.3096 198.393 23.3816 198.494 23.4672L198.496 23.4688C198.676 23.6266 198.894 23.6677 199.102 23.6296C199.314 23.591 199.513 23.4708 199.641 23.3114C199.768 23.1529 199.819 22.9647 199.758 22.782C199.697 22.598 199.514 22.3918 199.111 22.2194C199.006 22.1765 198.897 22.1419 198.783 22.1082C198.753 22.0991 198.722 22.0901 198.69 22.0809C198.606 22.0564 198.52 22.0312 198.435 22.0035C198.377 21.9844 198.319 21.9663 198.262 21.9484C198.105 21.8994 197.952 21.8517 197.805 21.7877C197.486 21.6832 197.209 21.4825 197.017 21.2153C196.825 20.947 196.728 20.6263 196.741 20.3009C196.742 19.5078 197.263 18.9615 197.922 18.669Z" fill="#3A3B7B"/>
<path d="M206.242 18.5846C206.114 18.525 205.974 18.4966 205.832 18.5022C205.691 18.5078 205.553 18.5471 205.431 18.6166C205.31 18.6856 205.209 18.7822 205.137 18.8979C205.07 18.9953 205.024 19.1042 205.001 19.2186C204.978 19.3329 204.979 19.4504 205.003 19.5644C205.026 19.711 205.053 19.8535 205.079 19.994C205.122 20.2266 205.163 20.454 205.191 20.6858L205.192 20.6917C205.255 21.0552 205.288 21.4229 205.29 21.7913L205.291 21.7966C205.312 22.1945 205.171 22.5846 204.897 22.8843L204.893 22.8896C204.804 22.9991 204.685 23.0827 204.549 23.131C204.413 23.1793 204.266 23.1904 204.124 23.1631C203.982 23.1357 203.851 23.071 203.745 22.9762C203.639 22.8814 203.563 22.7598 203.525 22.6257C203.444 22.3432 203.397 22.0526 203.385 21.7598L203.524 19.6371C203.526 19.6093 203.528 19.5809 203.53 19.5522C203.536 19.4877 203.541 19.422 203.543 19.3608C203.547 19.2707 203.544 19.178 203.522 19.0903C203.5 19.0006 203.457 18.9153 203.381 18.8427C203.307 18.7708 203.206 18.7177 203.079 18.6816C202.849 18.6178 202.655 18.6198 202.493 18.6857C202.331 18.7517 202.22 18.8741 202.141 19.0155C202.063 19.1557 202.013 19.3217 201.975 19.488C201.947 19.6114 201.925 19.7409 201.903 19.8642C201.896 19.9067 201.889 19.9484 201.881 19.9889L201.881 19.9901C201.766 20.6663 201.732 21.3528 201.779 22.0364C201.788 22.4058 201.868 22.7705 202.016 23.1117C202.183 23.552 202.484 23.9335 202.882 24.2058C203.28 24.4787 203.755 24.6291 204.244 24.637C204.733 24.6449 205.213 24.5101 205.62 24.2503C206.027 23.9909 206.342 23.6192 206.524 23.1842C206.779 22.6302 206.898 22.0276 206.874 21.4225C206.859 20.9807 206.834 20.5356 206.809 20.0926C206.796 19.8754 206.784 19.6586 206.773 19.4431C206.768 19.227 206.694 19.0178 206.56 18.8434C206.478 18.7331 206.369 18.6442 206.242 18.5846Z" fill="#3A3B7B"/>
<path d="M210.745 21.9131C210.732 21.9288 210.718 21.9451 210.704 21.962C210.601 21.389 210.505 20.8162 210.409 20.2425C210.374 20.0367 210.34 19.83 210.305 19.6239L210.301 19.6009L210.288 19.581C210.264 19.5436 210.262 19.507 210.262 19.4288V19.4197L210.26 19.4108C210.234 19.2493 210.158 19.099 210.042 18.9797C209.926 18.8606 209.776 18.7777 209.61 18.7417C209.445 18.7026 209.271 18.7112 209.111 18.7666C208.951 18.8218 208.811 18.921 208.71 19.0517C208.626 19.1521 208.557 19.2634 208.505 19.3823C208.387 19.6386 208.269 19.8954 208.15 20.153L208.148 20.1574C207.851 20.8004 207.552 21.4477 207.262 22.1001L207.261 22.1022C207.083 22.5252 206.936 22.9709 206.789 23.4152C206.76 23.5039 206.731 23.5926 206.701 23.681C206.648 23.8212 206.625 23.9702 206.633 24.1191C206.623 24.2524 206.657 24.3853 206.728 24.5C206.801 24.617 206.911 24.7091 207.041 24.7632C207.18 24.8214 207.334 24.8338 207.481 24.7983C207.627 24.763 207.756 24.682 207.849 24.5682C207.968 24.4281 208.07 24.2752 208.154 24.1132C208.399 23.6306 208.634 23.1421 208.868 22.6557C208.959 22.4676 209.047 22.2991 209.147 22.1156C209.154 22.1382 209.161 22.1603 209.168 22.1824C209.273 22.6254 209.45 23.0498 209.692 23.4399C209.738 23.5225 209.802 23.5948 209.88 23.6516C209.958 23.7091 210.049 23.7495 210.145 23.77C210.242 23.7905 210.342 23.7906 210.438 23.7703C210.534 23.75 210.625 23.7096 210.704 23.6523L210.859 23.5406L212.066 22.5648L211.995 23.0014C211.897 23.6015 211.8 24.1966 211.697 24.7919C211.629 25.0557 211.629 25.3313 211.697 25.595C211.726 25.7435 211.801 25.8801 211.912 25.9876C212.023 26.0959 212.166 26.1695 212.322 26.1989C212.478 26.2282 212.639 26.2119 212.785 26.1522C212.929 26.0933 213.051 25.9948 213.137 25.8693C213.336 25.6323 213.46 25.3454 213.494 25.0427C213.545 24.6153 213.603 24.182 213.661 23.7488C213.728 23.2496 213.794 22.7504 213.851 22.2609L213.851 22.2594C213.905 21.7235 213.931 21.1854 213.929 20.647C213.941 20.4769 213.897 20.3074 213.803 20.1625C213.709 20.0171 213.569 19.9041 213.404 19.8395C213.232 19.7645 213.04 19.7445 212.855 19.7824C212.672 19.82 212.506 19.9128 212.381 20.0472C212.158 20.2448 211.95 20.4563 211.756 20.6802L211.755 20.6817C211.543 20.9347 211.333 21.1926 211.124 21.4489C210.997 21.6047 210.871 21.7601 210.745 21.9131Z" fill="#3A3B7B"/>
</g>
<rect x="247.839" width="33.4165" height="33.4165" rx="5.56856" fill="#F5F7FA"/>
<g clip-path="url(#clip4_211_2510)">
<path d="M274.598 8.13861C274.598 8.46303 274.865 8.72601 275.193 8.72601H275.788C276.116 8.72601 276.382 8.46303 276.382 8.13861C276.382 7.8142 276.116 7.55122 275.788 7.55122H275.193C274.865 7.55122 274.598 7.8142 274.598 8.13861Z" fill="#212326"/>
<path d="M257.353 26.348H260.242L259.401 25.5173C259.178 25.297 258.876 25.1732 258.56 25.1732H257.353C252.756 25.1732 249.028 21.4914 249.028 16.9496C249.028 12.4078 252.756 8.72602 257.353 8.72601H266.868C271.466 8.72601 275.193 12.4078 275.193 16.9496C275.193 21.4914 271.466 25.1732 266.868 25.1732H263.309C262.836 25.1732 262.382 24.9875 262.047 24.6571L261.062 23.6838C260.504 23.133 259.748 22.8236 258.96 22.8236H257.353C254.069 22.8236 251.407 20.1937 251.407 16.9496C251.407 13.7055 254.069 11.0756 257.353 11.0756H266.868C270.152 11.0756 272.814 13.7055 272.814 16.9496C272.814 20.1937 270.152 22.8236 266.868 22.8236H264.583C264.109 22.8236 263.656 22.6379 263.321 22.3075L262.336 21.3342C261.778 20.7834 261.022 20.474 260.233 20.474H257.353C255.383 20.474 253.786 18.8961 253.786 16.9496C253.786 15.0032 255.383 13.4252 257.353 13.4252H266.868C268.838 13.4252 270.436 15.0032 270.436 16.9496C270.436 18.8723 268.877 20.4355 266.94 20.4733L266.939 20.474H266.069C265.596 20.474 265.142 20.2883 264.808 19.9579L263.822 18.9846C263.365 18.5327 262.774 18.2432 262.141 18.1539L262.111 18.1244H257.353C256.697 18.1244 256.164 17.5984 256.164 16.9496C256.164 16.3008 256.697 15.7748 257.353 15.7748H266.868C267.525 15.7748 268.057 16.3008 268.057 16.9496C268.057 17.5984 267.525 18.1244 266.868 18.1244H264.489L265.33 18.9551C265.553 19.1754 265.856 19.2992 266.171 19.2992H266.868C268.182 19.2992 269.247 18.2472 269.247 16.9496C269.247 15.652 268.182 14.6 266.868 14.6H257.353C256.04 14.6 254.975 15.652 254.975 16.9496C254.975 18.2472 256.04 19.2992 257.353 19.2992H261.72C262.193 19.2992 262.647 19.4849 262.982 19.8153L263.967 20.7886C264.524 21.3394 265.281 21.6488 266.069 21.6488H267.165V21.6398C269.654 21.4882 271.625 19.4462 271.625 16.9496C271.625 14.3543 269.495 12.2504 266.868 12.2504H257.353C254.726 12.2504 252.596 14.3543 252.596 16.9496C252.596 19.5449 254.726 21.6488 257.353 21.6488H260.233C260.707 21.6488 261.16 21.8345 261.495 22.1649L262.48 23.1382C263.038 23.689 263.794 23.9984 264.583 23.9984H266.868C270.809 23.9984 274.004 20.8426 274.004 16.9496C274.004 13.0567 270.809 9.90081 266.868 9.90081H257.353C253.412 9.90081 250.218 13.0567 250.218 16.9496C250.218 20.8426 253.412 23.9984 257.353 23.9984H258.96C259.433 23.9984 259.887 24.1841 260.221 24.5145L261.206 25.4878C261.764 26.0386 262.52 26.348 263.309 26.348H266.868C272.123 26.348 276.382 22.1402 276.382 16.9496C276.382 11.759 272.123 7.55122 266.868 7.55122L257.353 7.55122C252.099 7.55122 247.839 11.759 247.839 16.9496C247.839 22.1402 252.099 26.348 257.353 26.348Z" fill="#212326"/>
</g>
<rect x="309.799" width="33.4165" height="33.4165" rx="5.56856" fill="#F5F7FA"/>
<g clip-path="url(#clip5_211_2510)">
<path d="M318.392 9.63992C316.978 9.63992 315.622 10.2015 314.623 11.2012L311.36 14.4637C310.36 15.4633 309.799 16.8192 309.799 18.2329C309.799 21.1769 312.185 23.5635 315.129 23.5635C316.543 23.5635 317.899 23.0018 318.899 22.0022L321.155 19.7455C321.155 19.7454 321.155 19.7455 321.155 19.7455L327.731 13.1703C328.208 12.6928 328.855 12.4246 329.531 12.4246C330.661 12.4246 331.619 13.1614 331.952 14.1809L334.027 12.1058C333.08 10.6231 331.42 9.63992 329.531 9.63992C328.117 9.63992 326.761 10.2015 325.761 11.2012L316.93 20.0331C316.452 20.5105 315.805 20.7788 315.129 20.7788C313.723 20.7788 312.584 19.639 312.584 18.2329C312.584 17.5577 312.852 16.9102 313.329 16.4327L316.592 13.1703C317.069 12.6928 317.717 12.4246 318.392 12.4246C319.522 12.4246 320.481 13.1614 320.813 14.1809L322.888 12.1058C321.941 10.6231 320.281 9.63992 318.392 9.63992Z" fill="#394149"/>
<path d="M328.069 20.0331C327.591 20.5105 326.944 20.7788 326.268 20.7788C325.138 20.7788 324.18 20.0422 323.847 19.0229L321.772 21.0979C322.719 22.5804 324.379 23.5635 326.268 23.5635C327.682 23.5635 329.038 23.0018 330.038 22.0022L338.869 13.1703C339.347 12.6928 339.994 12.4246 340.67 12.4246C342.076 12.4246 343.215 13.5644 343.215 14.9705C343.215 15.6457 342.947 16.2932 342.47 16.7706L339.207 20.0331C338.73 20.5105 338.082 20.7788 337.407 20.7788C336.277 20.7788 335.318 20.0421 334.986 19.0226L332.911 21.0977C333.858 22.5804 335.518 23.5635 337.407 23.5635C338.821 23.5635 340.177 23.0018 341.176 22.0022L344.439 18.7397C345.439 17.74 346 16.3842 346 14.9705C346 12.0265 343.614 9.63992 340.67 9.63992C339.256 9.63992 337.9 10.2015 336.9 11.2012L328.069 20.0331Z" fill="#394149"/>
</g>
<defs>
<clipPath id="clip0_211_2510">
<rect width="27.8428" height="27.8428" fill="white" transform="translate(0.245888 0.135275)"/>
</clipPath>
<clipPath id="clip1_211_2510">
<rect width="27.8428" height="19.4899" fill="white" transform="translate(62.0379 6.85506)"/>
</clipPath>
<clipPath id="clip2_211_2510">
<rect width="38.2838" height="20.8821" fill="white" transform="translate(123.92 6.15891)"/>
</clipPath>
<clipPath id="clip3_211_2510">
<rect width="32.7153" height="20.186" fill="white" transform="translate(185.879 6.85506)"/>
</clipPath>
<clipPath id="clip4_211_2510">
<rect width="28.5388" height="18.7939" fill="white" transform="translate(247.839 7.55122)"/>
</clipPath>
<clipPath id="clip5_211_2510">
<rect width="36.1956" height="13.9214" fill="white" transform="translate(309.799 9.63992)"/>
</clipPath>
</defs>
</svg>
