<svg width="34" height="34" viewBox="0 0 34 34" fill="none" xmlns="http://www.w3.org/2000/svg">
<path d="M6.90594 5.66621H27.0933C28.2673 5.66621 29.3935 6.13301 30.2237 6.96308C31.0539 7.79326 31.5205 8.91939 31.5206 10.0934V23.9058C31.5206 25.0799 31.0539 26.2059 30.2237 27.0362C29.3934 27.8664 28.2675 28.333 27.0933 28.333H6.90594C5.73188 28.333 4.60575 27.8664 3.77557 27.0362C2.94551 26.206 2.4787 25.0798 2.4787 23.9058V10.0934C2.47876 8.91939 2.94539 7.79326 3.77557 6.96308C4.60575 6.13289 5.73188 5.66627 6.90594 5.66621ZM3.89582 23.9058C3.89582 24.7041 4.2129 25.4699 4.77729 26.0345C5.34179 26.599 6.10761 26.9169 6.90594 26.9169H27.0933C27.8917 26.9169 28.6574 26.599 29.222 26.0345C29.7865 25.4699 30.1044 24.7042 30.1044 23.9058V13.4583H3.89582V23.9058ZM22.3123 20.5419H25.5003C25.688 20.542 25.8684 20.6159 26.0012 20.7486C26.1339 20.8813 26.2078 21.0618 26.2079 21.2495C26.2079 21.4371 26.1337 21.6175 26.0012 21.7503C25.8684 21.8831 25.688 21.9579 25.5003 21.958H22.3123C22.1245 21.958 21.9443 21.8831 21.8114 21.7503C21.6788 21.6175 21.6038 21.4372 21.6038 21.2495C21.6039 21.0618 21.6787 20.8813 21.8114 20.7486C21.9442 20.6159 22.1246 20.5419 22.3123 20.5419ZM6.90594 7.08332C6.10761 7.08338 5.34179 7.40029 4.77729 7.96479C4.21278 8.5293 3.89588 9.29512 3.89582 10.0934V12.0412H30.1044V10.0934C30.1044 9.29512 29.7865 8.5293 29.222 7.96479C28.6574 7.4004 27.8916 7.08332 27.0933 7.08332H6.90594Z" fill="#4CAF4F" stroke="#4CAF4F" stroke-width="0.696069"/>
</svg>
