<svg width="34" height="34" viewBox="0 0 34 34" fill="none" xmlns="http://www.w3.org/2000/svg">
<path d="M28.3333 29.7501V26.9167C28.3333 25.4138 27.7363 23.9725 26.6736 22.9098C25.6109 21.8471 24.1696 21.2501 22.6667 21.2501H21.25C20.8743 21.2501 20.514 21.1008 20.2483 20.8351C19.9826 20.5695 19.8334 20.2091 19.8334 19.8334V12.7501C19.8334 11.9986 19.5348 11.278 19.0035 10.7466C18.4721 10.2153 17.7515 9.91675 17 9.91675C16.2486 9.91675 15.5279 10.2153 14.9966 10.7466C14.4652 11.278 14.1667 11.9986 14.1667 12.7501V25.5001L10.7667 20.9667C10.5028 20.6149 10.1606 20.3292 9.76714 20.1325C9.37372 19.9358 8.9399 19.8334 8.50004 19.8334H7.88521C6.65979 19.8334 5.66671 20.8265 5.66671 22.0519C5.66671 22.4542 5.77579 22.8495 5.98262 23.1937L9.9167 29.7501M17 5.66676V4.25009V5.66676ZM25.5 14.1667H26.9167H25.5ZM7.08337 14.1667H8.50004H7.08337ZM10.4026 7.56934L9.40104 6.56776L10.4026 7.56934ZM23.5974 7.56934L24.599 6.56776L23.5974 7.56934Z" fill="#4CAF4F"/>
<path d="M28.3333 29.7501V26.9167C28.3333 25.4138 27.7363 23.9725 26.6736 22.9098C25.6109 21.8471 24.1696 21.2501 22.6667 21.2501H21.25C20.8743 21.2501 20.514 21.1008 20.2483 20.8351C19.9826 20.5695 19.8334 20.2091 19.8334 19.8334V12.7501C19.8334 11.9986 19.5348 11.278 19.0035 10.7466C18.4721 10.2153 17.7515 9.91675 17 9.91675V9.91675C16.2486 9.91675 15.5279 10.2153 14.9966 10.7466C14.4652 11.278 14.1667 11.9986 14.1667 12.7501V25.5001L10.7667 20.9667C10.5028 20.6149 10.1606 20.3292 9.76714 20.1325C9.37372 19.9358 8.9399 19.8334 8.50004 19.8334H7.88521C6.65979 19.8334 5.66671 20.8265 5.66671 22.0519C5.66671 22.4542 5.77579 22.8495 5.98262 23.1937L9.9167 29.7501M17 5.66676V4.25009M25.5 14.1667H26.9167M7.08337 14.1667H8.50004M10.4026 7.56934L9.40104 6.56776M23.5974 7.56934L24.599 6.56776" stroke="#4CAF4F" stroke-width="1.39214" stroke-linecap="round" stroke-linejoin="round"/>
</svg>
