<svg width="34" height="34" viewBox="0 0 34 34" fill="none" xmlns="http://www.w3.org/2000/svg">
<g clip-path="url(#clip0_211_2332)">
<path d="M11.6879 6.18744C13.3585 6.18754 14.9889 6.70145 16.3577 7.65921C17.7266 8.61711 18.7675 9.97319 19.3399 11.5429C19.9124 13.1124 19.9884 14.82 19.5576 16.4342C19.1267 18.0485 18.2096 19.4917 16.9311 20.5673L16.5008 20.929L17.0135 21.1605C19.1195 22.1136 20.9315 23.6137 22.2616 25.5043L22.2666 25.5112L22.2726 25.5182C22.3759 25.6506 22.4514 25.803 22.4942 25.9654C22.5369 26.1277 22.5456 26.2972 22.521 26.4633C22.4963 26.6293 22.4381 26.7884 22.3501 26.9313C22.262 27.0742 22.1464 27.1984 22.0092 27.2951C21.872 27.3916 21.7162 27.459 21.5521 27.4938C21.3878 27.5285 21.2179 27.5296 21.0532 27.4968C20.8885 27.464 20.7315 27.3981 20.5931 27.303H20.5941C20.4556 27.208 20.337 27.0862 20.2473 26.9443L20.2433 26.9373L20.2383 26.9303L20.0535 26.6759C19.1132 25.4188 17.9011 24.3881 16.5057 23.6628C15.0176 22.8894 13.3651 22.4853 11.6879 22.4852C10.0106 22.4852 8.35745 22.8893 6.86917 23.6628C5.38083 24.4364 4.10042 25.5576 3.13658 26.9303L3.13558 26.9313C3.0223 27.0939 2.87112 27.2264 2.69534 27.3179C2.51948 27.4094 2.32416 27.4576 2.12592 27.457H2.12393C1.86963 27.4579 1.62126 27.3783 1.41438 27.2305L1.41239 27.2295L1.316 27.1539C1.10079 26.9676 0.955693 26.7114 0.906564 26.4285C0.857464 26.1456 0.90785 25.8556 1.04768 25.6076L1.11327 25.5043C2.44336 23.6137 4.25538 22.1136 6.36135 21.1605L6.87414 20.929L6.44383 20.5673C5.16527 19.4917 4.24822 18.0485 3.81731 16.4342C3.38648 14.82 3.46254 13.1124 4.03494 11.5429C4.60738 9.97319 5.64831 8.61711 7.01724 7.65921C8.38616 6.70135 10.0172 6.18744 11.6879 6.18744ZM22.5111 6.19738H22.513C24.1847 6.1926 25.8176 6.70393 27.1887 7.6602C28.5598 8.61654 29.6029 9.97248 30.176 11.5429C30.7489 13.1131 30.8244 14.8217 30.3916 16.4362C29.9586 18.0509 29.0381 19.4932 27.7562 20.5663L27.3239 20.928L27.8377 21.1605C29.9436 22.1136 31.7556 23.6137 33.0857 25.5043L33.0877 25.5063C33.1822 25.6384 33.2493 25.7882 33.2855 25.9465C33.3216 26.1049 33.3262 26.2694 33.2984 26.4295C33.2706 26.5896 33.211 26.7427 33.1235 26.8797C33.036 27.0166 32.9222 27.1349 32.7886 27.2275L32.7846 27.2305C32.5777 27.3783 32.3294 27.4569 32.0751 27.456C31.8765 27.4547 31.6808 27.4066 31.5047 27.3149C31.3284 27.2231 31.1764 27.0905 31.0614 26.9284C30.0957 25.5585 28.8153 24.4402 27.3278 23.6678C25.9331 22.9435 24.3943 22.5429 22.8261 22.4942L22.5121 22.4892L22.3888 22.4832C22.1053 22.455 21.8389 22.3297 21.6356 22.1265C21.4031 21.894 21.2719 21.5787 21.2718 21.25C21.2718 20.9212 21.4031 20.6059 21.6356 20.3735C21.868 20.1411 22.1834 20.0107 22.5121 20.0107C24.0148 20.0106 25.4563 19.4128 26.5189 18.3502C27.5814 17.2875 28.1785 15.846 28.1785 14.3433C28.1784 12.8405 27.5815 11.399 26.5189 10.3364C25.5226 9.34005 24.193 8.75319 22.7923 8.68378L22.5121 8.67683C21.994 8.67588 21.4779 8.74737 20.9797 8.88949L20.8564 8.9203C20.7359 8.94355 20.6123 8.94834 20.4897 8.93521C20.3263 8.9177 20.1677 8.86842 20.0237 8.78912C19.8798 8.7099 19.7531 8.60271 19.651 8.4741C19.5488 8.34532 19.4729 8.19709 19.4284 8.03883C19.3839 7.88058 19.3716 7.71505 19.3916 7.55188C19.4117 7.38877 19.4642 7.23151 19.5457 7.08879C19.6272 6.94602 19.7363 6.82029 19.8666 6.7201C19.9969 6.62002 20.1461 6.54648 20.3049 6.50445L20.3109 6.50346C21.0264 6.29974 21.7671 6.19614 22.5111 6.19738ZM12.793 8.78614C11.6938 8.56749 10.554 8.67923 9.51855 9.10812C8.48325 9.53701 7.59811 10.2633 6.9755 11.195C6.3529 12.1268 6.02056 13.2226 6.02049 14.3433C6.02049 15.846 6.61764 17.2875 7.68008 18.3502C8.74279 19.4129 10.1851 20.0107 11.6879 20.0107C12.8083 20.0106 13.9036 19.6781 14.8352 19.0557C15.7671 18.4331 16.4942 17.5471 16.9231 16.5117C17.3518 15.4764 17.4637 14.3372 17.2451 13.2382C17.0264 12.139 16.4873 11.1289 15.6948 10.3364C14.9023 9.54395 13.8922 9.00481 12.793 8.78614Z" fill="#4CAF4F" stroke="#4CAF4F" stroke-width="0.696069"/>
</g>
<defs>
<clipPath id="clip0_211_2332">
<rect width="33.4113" height="33.4113" fill="white" transform="scale(1.01762)"/>
</clipPath>
</defs>
</svg>
